STARTFONT 2.1
COMMENT This font was automatically resized by bdfresize-1.5
COMMENT   mag_x = 1/1, mag_y = 1/1, blackness = 4
COMMENT
COMMENT Converted from OpenType font "BebasNeue-Bold.ttf" by "otf2bdf 3.0".
COMMENT
FONT -FreeType-Bebas Neue-Bold-R-Normal--45-450-72-72-P-155-ISO10646-1
SIZE 45 72 72
FONTBOUNDINGBOX 51 49 -6 -8
STARTPROPERTIES 19
FOUNDRY "FreeType"
FAMILY_NAME "Bebas Neue"
WEIGHT_NAME "Bold"
SLANT "R"
SETWIDTH_NAME "Normal"
ADD_STYLE_NAME ""
PIXEL_SIZE 45
POINT_SIZE 450
RESOLUTION_X 72
RESOLUTION_Y 72
SPACING "P"
AVERAGE_WIDTH 155
CHARSET_REGISTRY "ISO10646"
CHARSET_ENCODING "1"
FONT_ASCENT 33
FONT_DESCENT 11
COPYRIGHT "Copyright \(c\) 2010 by Ryoichi Tsunekawa. All rights reserved."
_OTF_FONTFILE "BebasNeue-Bold.ttf"
_OTF_PSNAME "BebasNeue-Bold"
ENDPROPERTIES
CHARS 470
STARTCHAR 0020
ENCODING 32
SWIDTH 155 0
DWIDTH 7 0
BBX 0 0 0 0
BITMAP
ENDCHAR
STARTCHAR 0021
ENCODING 33
SWIDTH 200 0
DWIDTH 9 0
BBX 5 32 2 0
BITMAP
F8
F8
F8
F8
F8
F8
F8
F8
F8
F8
F8
F8
F8
F8
F8
F8
F8
F8
F0
F0
F0
F0
F0
F0
F0
00
00
F8
F8
F8
F8
F8
ENDCHAR
STARTCHAR 0022
ENCODING 34
SWIDTH 333 0
DWIDTH 15 0
BBX 11 9 2 23
BITMAP
FBE0
F3E0
F3E0
F3E0
F3C0
F3C0
F1C0
F1C0
F1C0
ENDCHAR
STARTCHAR 0023
ENCODING 35
SWIDTH 400 0
DWIDTH 18 0
BBX 17 32 1 0
BITMAP
0F1E00
0F1E00
0F1E00
0F1E00
0F1E00
0F1E00
0F1E00
0F1E00
0F1E00
7FFF80
1E3C00
1E3C00
1E3C00
1E3C00
1E3C00
1E3C00
3E7C00
3C7800
3C7800
FFFF00
FFFE00
FFFE00
FFFE00
3C7800
3C7800
3C7800
7CF800
78F000
78F000
78F000
78F000
78F000
ENDCHAR
STARTCHAR 0024
ENCODING 36
SWIDTH 400 0
DWIDTH 18 0
BBX 14 36 2 -2
BITMAP
0780
0780
0780
1FE0
7FF0
7FF8
FFFC
FC7C
F87C
F83C
F83C
F800
F800
FC00
7E00
7F00
3F80
1FC0
0FE0
07F0
03F8
01F8
00FC
007C
F07C
F07C
F07C
F07C
F8FC
FFFC
7FF8
7FF8
3FF0
0780
0780
0780
ENDCHAR
STARTCHAR 0025
ENCODING 37
SWIDTH 622 0
DWIDTH 28 0
BBX 25 32 2 0
BITMAP
3E007000
7F00E000
FF80E000
E381C000
E381C000
E381C000
E3838000
E3838000
E3870000
E3870000
E3870000
E38E0000
E38E7C00
E39CFF00
E39CFF00
E39DE780
E3B9C380
E3B9C380
FFB1C380
7F71C380
3C71C380
00E1C380
00E1C380
00E1C380
01C1C380
01C1C380
0381C380
0381C780
0381E780
0700FF00
0700FF00
0E007C00
ENDCHAR
STARTCHAR 0026
ENCODING 38
SWIDTH 422 0
DWIDTH 19 0
BBX 16 32 2 0
BITMAP
0FF8
3FF8
7FF8
7FF8
FFF8
F800
F800
F800
F800
F83E
F83E
F83E
7C3E
7FFF
3FFF
3FFF
7FFF
7FFF
FC3E
F83E
F83E
F83E
F83E
F83E
F83E
F83E
F87E
FFFE
FFFE
7FFE
3FBE
1F3E
ENDCHAR
STARTCHAR 0027
ENCODING 39
SWIDTH 177 0
DWIDTH 8 0
BBX 4 9 2 23
BITMAP
F0
F0
F0
F0
F0
F0
F0
F0
F0
ENDCHAR
STARTCHAR 0028
ENCODING 40
SWIDTH 244 0
DWIDTH 11 0
BBX 9 32 2 0
BITMAP
0F80
3F80
7F80
7F80
FF80
F800
F800
F800
F800
F800
F800
F800
F800
F800
F800
F800
F800
F800
F800
F800
F800
F800
F800
F800
F800
F800
F800
FF80
7F80
7F80
3F80
0F80
ENDCHAR
STARTCHAR 0029
ENCODING 41
SWIDTH 244 0
DWIDTH 11 0
BBX 8 32 1 0
BITMAP
F8
FC
FE
FF
FF
1F
1F
1F
1F
1F
1F
1F
1F
1F
1F
1F
1F
1F
1F
1F
1F
1F
1F
1F
1F
1F
1F
FF
FF
FE
FC
F8
ENDCHAR
STARTCHAR 002A
ENCODING 42
SWIDTH 400 0
DWIDTH 18 0
BBX 18 17 0 15
BITMAP
01E000
01E000
01E000
01C000
40C080
70C380
7CCF80
FFFFC0
0FFC00
01E000
03F000
073800
0F3C00
1E1E00
3E1F00
0C0C00
040800
ENDCHAR
STARTCHAR 002B
ENCODING 43
SWIDTH 400 0
DWIDTH 18 0
BBX 16 16 1 8
BITMAP
03C0
03C0
03C0
03C0
03C0
03C0
FFFF
FFFF
FFFF
FFFF
03C0
03C0
03C0
03C0
03C0
03C0
ENDCHAR
STARTCHAR 002C
ENCODING 44
SWIDTH 177 0
DWIDTH 8 0
BBX 5 9 2 -4
BITMAP
F8
F8
F8
F8
F8
30
70
60
E0
ENDCHAR
STARTCHAR 002D
ENCODING 45
SWIDTH 266 0
DWIDTH 12 0
BBX 9 5 2 14
BITMAP
FF80
FF80
FF80
FF80
FF80
ENDCHAR
STARTCHAR 002E
ENCODING 46
SWIDTH 177 0
DWIDTH 8 0
BBX 5 5 2 0
BITMAP
F8
F8
F8
F8
F8
ENDCHAR
STARTCHAR 002F
ENCODING 47
SWIDTH 377 0
DWIDTH 17 0
BBX 17 32 0 0
BITMAP
000F80
000F00
000F00
001F00
001E00
003E00
003C00
003C00
007C00
007800
007800
00F000
00F000
01F000
01E000
01E000
03E000
03C000
07C000
078000
078000
0F8000
0F0000
1F0000
1E0000
1E0000
3E0000
3C0000
3C0000
780000
780000
F80000
ENDCHAR
STARTCHAR 0030
ENCODING 48
SWIDTH 400 0
DWIDTH 18 0
BBX 15 32 1 0
BITMAP
07E0
1FF8
3FFC
7FFC
7FFE
7C3E
F83E
F83E
F83E
F83E
F83E
F83E
F83E
F83E
F83E
F83E
F83E
F83E
F83E
F83E
F83E
F83E
F83E
F83E
F83E
F83E
7C3E
7FFE
7FFC
3FFC
1FF8
07E0
ENDCHAR
STARTCHAR 0031
ENCODING 49
SWIDTH 400 0
DWIDTH 18 0
BBX 9 32 5 0
BITMAP
0780
0780
0F80
1F80
FF80
FF80
FF80
FF80
0F80
0F80
0F80
0F80
0F80
0F80
0F80
0F80
0F80
0F80
0F80
0F80
0F80
0F80
0F80
0F80
0F80
0F80
0F80
0F80
0F80
0F80
0F80
0F80
ENDCHAR
STARTCHAR 0032
ENCODING 50
SWIDTH 400 0
DWIDTH 18 0
BBX 15 32 2 0
BITMAP
0FC0
3FF0
7FF8
7FFC
FFFC
F87C
F87C
F03E
F03E
F03C
F07C
007C
007C
00F8
00F8
01F0
03F0
07E0
0FC0
1F80
1F80
3F00
7E00
7C00
F800
F800
F800
FFFC
FFFC
FFFC
FFFC
FFFC
ENDCHAR
STARTCHAR 0033
ENCODING 51
SWIDTH 400 0
DWIDTH 18 0
BBX 14 32 2 0
BITMAP
0FC0
3FF0
7FF8
FFF8
FFFC
F87C
F07C
F07C
F07C
F07C
007C
007C
00FC
0FF8
0FF0
0FF0
0FF8
0FF8
007C
007C
007C
F07C
F07C
F07C
F07C
F07C
F87C
FFFC
FFF8
7FF8
3FF0
0FC0
ENDCHAR
STARTCHAR 0034
ENCODING 52
SWIDTH 400 0
DWIDTH 18 0
BBX 16 32 1 0
BITMAP
00FC
00FC
00FC
01FC
01FC
03FC
03FC
03FC
07FC
07FC
0FFC
0FFC
1F7C
1F7C
1E7C
3E7C
3C7C
7C7C
7C7C
787C
F87C
F07C
FFFF
FFFF
FFFF
FFFF
FFFF
007C
007C
007C
007C
007C
ENDCHAR
STARTCHAR 0035
ENCODING 53
SWIDTH 400 0
DWIDTH 18 0
BBX 14 32 2 0
BITMAP
FFFC
FFFC
FFFC
FFFC
FFFC
F800
F800
F800
F800
F800
F9E0
FFF8
FFF8
FFFC
FFFC
F87C
F07C
F07C
F07C
007C
007C
007C
F07C
F07C
F07C
F07C
F87C
FFFC
FFF8
7FF8
3FF0
0FC0
ENDCHAR
STARTCHAR 0036
ENCODING 54
SWIDTH 400 0
DWIDTH 18 0
BBX 16 32 1 0
BITMAP
07E0
1FF8
3FFC
7FFE
7FFE
7C3E
7C1E
F81E
F81E
F800
F800
F8F0
FBFC
FBFE
FFFE
FFFE
FC3E
FC3E
F81F
F81F
F81F
F81F
F81F
F81F
F81F
7C3E
7C3E
7FFE
7FFE
3FFC
1FF8
07E0
ENDCHAR
STARTCHAR 0037
ENCODING 55
SWIDTH 400 0
DWIDTH 18 0
BBX 15 32 1 0
BITMAP
FFFE
FFFE
FFFE
FFFE
FFFE
003E
003E
003E
007C
007C
007C
00F8
00F8
00F8
00F8
01F0
01F0
01F0
01F0
03E0
03E0
03E0
03E0
07C0
07C0
07C0
07C0
0F80
0F80
0F80
1F00
1F00
ENDCHAR
STARTCHAR 0038
ENCODING 56
SWIDTH 400 0
DWIDTH 18 0
BBX 16 32 1 0
BITMAP
07E0
1FF8
3FFC
7FFE
7FFE
FC3E
F81F
F81F
F81F
F81F
F81F
F83E
7C3E
7FFC
3FF8
1FF8
3FFC
7FFE
7C3E
F81E
F81F
F81F
F81F
F81F
F81F
F83F
FC3E
7FFE
7FFE
3FFC
1FF8
07E0
ENDCHAR
STARTCHAR 0039
ENCODING 57
SWIDTH 400 0
DWIDTH 18 0
BBX 15 32 1 0
BITMAP
07E0
1FF8
3FFC
7FFC
7FFE
FC3E
F83E
F83E
F83E
F83E
F83E
F83E
F83E
F83E
F83E
FC7E
7FFE
7FFE
3FFE
3FBE
043E
003E
003E
F83E
F83E
F83E
7C3E
7FFE
7FFC
3FFC
1FF8
07E0
ENDCHAR
STARTCHAR 003A
ENCODING 58
SWIDTH 177 0
DWIDTH 8 0
BBX 5 22 2 0
BITMAP
F8
F8
F8
F8
F8
00
00
00
00
00
00
00
00
00
00
00
00
F8
F8
F8
F8
F8
ENDCHAR
STARTCHAR 003B
ENCODING 59
SWIDTH 177 0
DWIDTH 8 0
BBX 5 26 2 -4
BITMAP
F8
F8
F8
F8
F8
00
00
00
00
00
00
00
00
00
00
00
00
F8
F8
F8
F8
F8
30
70
60
E0
ENDCHAR
STARTCHAR 003C
ENCODING 60
SWIDTH 400 0
DWIDTH 18 0
BBX 15 14 1 9
BITMAP
0002
001E
00FE
03FE
1FF8
FFC0
FE00
FC00
FF00
3FE0
0FFC
01FE
003E
0006
ENDCHAR
STARTCHAR 003D
ENCODING 61
SWIDTH 400 0
DWIDTH 18 0
BBX 14 11 2 10
BITMAP
FFFC
FFFC
FFFC
FFFC
0000
0000
0000
FFFC
FFFC
FFFC
FFFC
ENDCHAR
STARTCHAR 003E
ENCODING 62
SWIDTH 400 0
DWIDTH 18 0
BBX 14 14 2 9
BITMAP
8000
F000
FC00
FF80
3FF0
07FC
00FC
007C
03FC
0FF8
7FC0
FF00
F800
C000
ENDCHAR
STARTCHAR 003F
ENCODING 63
SWIDTH 355 0
DWIDTH 16 0
BBX 14 32 1 0
BITMAP
0FC0
3FF0
7FF8
7FFC
FFFC
F87C
F87C
F83C
F87C
F87C
F87C
007C
007C
00F8
00F8
01F0
03F0
03E0
07C0
07C0
0F80
0F80
0F80
0F80
0F80
0000
0000
0F80
0F80
0F80
0F80
0F80
ENDCHAR
STARTCHAR 0040
ENCODING 64
SWIDTH 688 0
DWIDTH 31 0
BBX 29 36 1 -3
BITMAP
000FF800
003FFF00
00FFFF80
01FFFFC0
07F80FE0
07C003E0
0F8001F0
1F0000F0
1E0000F8
3E0F3C78
3C3FBC78
7C3FFC78
787FFC78
787FFC78
78787C78
F8787C78
F8F87C78
F0F87878
F0F87878
F0F07878
F0F078F0
F0F078F0
F0F8F8F0
F8FFFFE0
F8FFFFC0
787F7FC0
787E7F80
7C083E00
3E000000
3E000080
1F800300
1FE01F00
0FFFFF00
07FFFF00
01FFFC00
003FE000
ENDCHAR
STARTCHAR 0041
ENCODING 65
SWIDTH 400 0
DWIDTH 18 0
BBX 18 32 0 0
BITMAP
07F800
07F800
07F800
07F800
07F800
07FC00
0FFC00
0FFC00
0FFC00
0F7C00
0F3C00
0F3E00
0F3E00
1F3E00
1F3E00
1E3E00
1E3E00
1E1F00
1E1F00
3E1F00
3E1F00
3E1F00
3FFF00
3FFF00
3FFF80
3FFF80
7FFF80
7C0F80
7C0F80
780F80
7807C0
F807C0
ENDCHAR
STARTCHAR 0042
ENCODING 66
SWIDTH 400 0
DWIDTH 18 0
BBX 15 32 2 0
BITMAP
FFE0
FFF0
FFF8
FFFC
FFFC
F87C
F83E
F83E
F83E
F83E
F83E
F87C
F87C
FFFC
FFF8
FFF0
FFF8
FFFC
F87E
F83E
F83E
F83E
F83E
F83E
F83E
F83E
F83E
FFFE
FFFC
FFFC
FFF8
FFE0
ENDCHAR
STARTCHAR 0043
ENCODING 67
SWIDTH 377 0
DWIDTH 17 0
BBX 15 32 1 0
BITMAP
07E0
1FF8
3FFC
7FFC
7FFE
7C3E
F83E
F83E
F83E
F83E
F83E
F800
F800
F800
F800
F800
F800
F800
F800
F800
F83E
F83E
F83E
F83E
F83E
F83E
7C3E
7FFE
7FFC
3FFC
1FF8
07E0
ENDCHAR
STARTCHAR 0044
ENCODING 68
SWIDTH 400 0
DWIDTH 18 0
BBX 15 32 2 0
BITMAP
FFE0
FFF8
FFFC
FFFC
FFFE
F83E
F83E
F83E
F83E
F83E
F83E
F83E
F83E
F83E
F83E
F83E
F83E
F83E
F83E
F83E
F83E
F83E
F83E
F83E
F83E
F83E
F83E
FFFE
FFFC
FFFC
FFF8
FFE0
ENDCHAR
STARTCHAR 0045
ENCODING 69
SWIDTH 377 0
DWIDTH 17 0
BBX 13 32 2 0
BITMAP
FFF8
FFF8
FFF8
FFF8
FFF8
F800
F800
F800
F800
F800
F800
F800
F800
FFF0
FFF0
FFF0
FFF0
FFF0
F800
F800
F800
F800
F800
F800
F800
F800
F800
FFF8
FFF8
FFF8
FFF8
FFF8
ENDCHAR
STARTCHAR 0046
ENCODING 70
SWIDTH 333 0
DWIDTH 15 0
BBX 13 32 2 0
BITMAP
FFF8
FFF8
FFF8
FFF8
FFF8
F800
F800
F800
F800
F800
F800
F800
F800
F800
FFE0
FFE0
FFE0
FFE0
FFE0
F800
F800
F800
F800
F800
F800
F800
F800
F800
F800
F800
F800
F800
ENDCHAR
STARTCHAR 0047
ENCODING 71
SWIDTH 400 0
DWIDTH 18 0
BBX 15 32 1 0
BITMAP
07E0
1FF8
3FFC
7FFC
7FFE
7C3E
F83E
F83E
F83E
F83E
F83E
F800
F800
F800
F8FE
F8FE
F8FE
F8FE
F8FE
F83E
F83E
F83E
F83E
F83E
F83E
F83E
7C3E
7FFE
7FFC
3FFC
1FF8
07E0
ENDCHAR
STARTCHAR 0048
ENCODING 72
SWIDTH 422 0
DWIDTH 19 0
BBX 15 32 2 0
BITMAP
F83E
F83E
F83E
F83E
F83E
F83E
F83E
F83E
F83E
F83E
F83E
F83E
F83E
F83E
FFFE
FFFE
FFFE
FFFE
FFFE
F83E
F83E
F83E
F83E
F83E
F83E
F83E
F83E
F83E
F83E
F83E
F83E
F83E
ENDCHAR
STARTCHAR 0049
ENCODING 73
SWIDTH 200 0
DWIDTH 9 0
BBX 5 32 2 0
BITMAP
F8
F8
F8
F8
F8
F8
F8
F8
F8
F8
F8
F8
F8
F8
F8
F8
F8
F8
F8
F8
F8
F8
F8
F8
F8
F8
F8
F8
F8
F8
F8
F8
ENDCHAR
STARTCHAR 004A
ENCODING 74
SWIDTH 266 0
DWIDTH 12 0
BBX 10 32 0 0
BITMAP
07C0
07C0
07C0
07C0
07C0
07C0
07C0
07C0
07C0
07C0
07C0
07C0
07C0
07C0
07C0
07C0
07C0
07C0
07C0
07C0
07C0
07C0
07C0
07C0
07C0
07C0
07C0
FF80
FF80
FF80
FF00
FC00
ENDCHAR
STARTCHAR 004B
ENCODING 75
SWIDTH 422 0
DWIDTH 19 0
BBX 16 32 2 0
BITMAP
F81F
F81E
F83E
F83E
F87C
F87C
F8F8
F8F8
F9F0
F9F0
FBE0
FBE0
FFC0
FFC0
FF80
FFC0
FFC0
FFC0
FFE0
FFE0
FDF0
F9F0
F9F0
F8F8
F8F8
F87C
F87C
F87C
F83E
F83E
F81F
F81F
ENDCHAR
STARTCHAR 004C
ENCODING 76
SWIDTH 333 0
DWIDTH 15 0
BBX 13 32 2 0
BITMAP
F800
F800
F800
F800
F800
F800
F800
F800
F800
F800
F800
F800
F800
F800
F800
F800
F800
F800
F800
F800
F800
F800
F800
F800
F800
F800
F800
FFF8
FFF8
FFF8
FFF8
FFF8
ENDCHAR
STARTCHAR 004D
ENCODING 77
SWIDTH 533 0
DWIDTH 24 0
BBX 21 32 2 0
BITMAP
FE03F8
FE07F8
FE07F8
FE07F8
FE07F8
FF07F8
FF07F8
FF07F8
FF0FF8
FF0FF8
FF0FF8
FF0FF8
F78EF8
F78EF8
F79EF8
F79EF8
F79EF8
F79EF8
F3DCF8
F3DCF8
F3DCF8
F3FCF8
F3FCF8
F3FCF8
F1FCF8
F1F8F8
F1F8F8
F1F8F8
F1F8F8
F1F8F8
F0F8F8
F0F8F8
ENDCHAR
STARTCHAR 004E
ENCODING 78
SWIDTH 422 0
DWIDTH 19 0
BBX 15 32 2 0
BITMAP
FC1E
FC1E
FE1E
FE1E
FE1E
FE1E
FF1E
FF1E
FF1E
FF1E
F79E
F79E
F79E
F7DE
F3DE
F3DE
F3DE
F3FE
F1FE
F1FE
F1FE
F0FE
F0FE
F0FE
F0FE
F07E
F07E
F07E
F07E
F03E
F03E
F03E
ENDCHAR
STARTCHAR 004F
ENCODING 79
SWIDTH 400 0
DWIDTH 18 0
BBX 15 32 1 0
BITMAP
07E0
1FF8
3FFC
7FFC
7FFE
7C3E
F83E
F83E
F83E
F83E
F83E
F83E
F83E
F83E
F83E
F83E
F83E
F83E
F83E
F83E
F83E
F83E
F83E
F83E
F83E
F83E
7C3E
7FFE
7FFC
3FFC
1FF8
07E0
ENDCHAR
STARTCHAR 0050
ENCODING 80
SWIDTH 377 0
DWIDTH 17 0
BBX 14 32 2 0
BITMAP
FFC0
FFF0
FFF8
FFFC
FFFC
F87C
F87C
F83C
F83C
F83C
F83C
F83C
F87C
F87C
F87C
FFFC
FFFC
FFF8
FFF0
FFC0
F800
F800
F800
F800
F800
F800
F800
F800
F800
F800
F800
F800
ENDCHAR
STARTCHAR 0051
ENCODING 81
SWIDTH 400 0
DWIDTH 18 0
BBX 16 34 1 -2
BITMAP
07E0
1FF8
3FFC
7FFE
7FFE
7C3E
F83E
F83E
F83E
F83E
F83E
F83E
F83E
F83E
F83E
F83E
F83E
F83E
F83E
F83E
F83E
F83E
F83E
F83E
F83E
F83E
7C3E
7FFE
7FFE
3FFF
1FFF
07FF
000F
0001
ENDCHAR
STARTCHAR 0052
ENCODING 82
SWIDTH 400 0
DWIDTH 18 0
BBX 15 32 2 0
BITMAP
FFE0
FFF0
FFF8
FFFC
FFFC
F87C
F83E
F83E
F83E
F83E
F83E
F83E
F87C
F87C
FFFC
FFF8
FFF0
FFF8
FFFC
F8FC
F87C
F83E
F83E
F83E
F83E
F83E
F83E
F83E
F83E
F83E
F83E
F83E
ENDCHAR
STARTCHAR 0053
ENCODING 83
SWIDTH 377 0
DWIDTH 17 0
BBX 15 32 1 0
BITMAP
0FE0
1FF0
3FF8
7FFC
7FFC
FC3E
F83E
F83E
F83E
F800
FC00
7E00
7E00
3F00
3F80
1FE0
0FF0
07F0
01F8
00FC
00FC
007C
F83E
F83E
F83E
F83E
F87E
FFFC
7FFC
3FF8
3FF0
0FE0
ENDCHAR
STARTCHAR 0054
ENCODING 84
SWIDTH 355 0
DWIDTH 16 0
BBX 16 32 0 0
BITMAP
FFFF
FFFF
FFFF
FFFF
FFFF
03C0
03C0
03C0
03C0
03C0
03C0
03C0
03C0
03C0
03C0
03C0
03C0
03C0
03C0
03C0
03C0
03C0
03C0
03C0
03C0
03C0
03C0
03C0
03C0
03C0
03C0
03C0
ENDCHAR
STARTCHAR 0055
ENCODING 85
SWIDTH 400 0
DWIDTH 18 0
BBX 14 32 2 0
BITMAP
F83C
F83C
F83C
F83C
F83C
F83C
F83C
F83C
F83C
F83C
F83C
F83C
F83C
F83C
F83C
F83C
F83C
F83C
F83C
F83C
F83C
F83C
F83C
F83C
F83C
F83C
F87C
FFFC
FFF8
7FF8
3FF0
0FC0
ENDCHAR
STARTCHAR 0056
ENCODING 86
SWIDTH 400 0
DWIDTH 18 0
BBX 18 32 0 0
BITMAP
FC07C0
7C0780
7C0780
7C0780
7C0F80
7C0F80
7C0F80
3E0F00
3E0F00
3E0F00
3E0F00
3E1F00
3E1F00
1E1F00
1F1E00
1F1E00
1F1E00
1F3E00
1F3E00
1F3E00
0F3C00
0FBC00
0FBC00
0FBC00
0FFC00
0FFC00
07FC00
07F800
07F800
07F800
07F800
07F800
ENDCHAR
STARTCHAR 0057
ENCODING 87
SWIDTH 555 0
DWIDTH 25 0
BBX 24 32 1 0
BITMAP
F87C1F
F87C1E
F87E1E
F87E1E
F87E1E
F87E1E
F87E1E
F87E1E
787E3E
787E3E
7C7E3E
7CFE3C
7CFF3C
7CFF3C
7CFF3C
7CFF3C
7CFF3C
3CFF3C
3CEF7C
3EEF7C
3EEF78
3FEF78
3FE778
3FE7F8
3FE7F8
3FE7F8
1FE7F8
1FC7F8
1FC7F8
1FC7F0
1FC7F0
1FC3F0
ENDCHAR
STARTCHAR 0058
ENCODING 88
SWIDTH 422 0
DWIDTH 19 0
BBX 18 32 1 0
BITMAP
F80780
7C0F80
7C0F00
7C0F00
3E1F00
3E1E00
3E1E00
3F3E00
1F3C00
1F3C00
1F7C00
0FF800
0FF800
0FF800
07F000
07F000
07F000
07F800
0FF800
0FF800
0F7C00
1F7C00
1E7C00
1E3E00
3E3E00
3C3E00
3C1F00
7C1F00
781F80
780F80
F80F80
F00FC0
ENDCHAR
STARTCHAR 0059
ENCODING 89
SWIDTH 400 0
DWIDTH 18 0
BBX 18 32 0 0
BITMAP
F807C0
7C0780
7C0F80
7C0F80
7E0F00
3E0F00
3E1F00
3E1E00
1F1E00
1F3E00
1F3E00
0F3C00
0FBC00
0FFC00
0FF800
07F800
07F800
07F800
03F000
03F000
03F000
03E000
03E000
03E000
03E000
03E000
03E000
03E000
03E000
03E000
03E000
03E000
ENDCHAR
STARTCHAR 005A
ENCODING 90
SWIDTH 377 0
DWIDTH 17 0
BBX 15 32 1 0
BITMAP
FFFE
FFFE
FFFE
FFFE
FFFE
007C
007C
00F8
00F8
01F0
01F0
01F0
03E0
03E0
07C0
07C0
07C0
0F80
0F80
1F00
1F00
3F00
3E00
3E00
7C00
7C00
FC00
FFFE
FFFE
FFFE
FFFE
FFFE
ENDCHAR
STARTCHAR 005B
ENCODING 91
SWIDTH 244 0
DWIDTH 11 0
BBX 8 32 2 0
BITMAP
FF
FF
FF
FF
FF
F8
F8
F8
F8
F8
F8
F8
F8
F8
F8
F8
F8
F8
F8
F8
F8
F8
F8
F8
F8
F8
F8
FF
FF
FF
FF
FF
ENDCHAR
STARTCHAR 005C
ENCODING 92
SWIDTH 377 0
DWIDTH 17 0
BBX 17 32 0 0
BITMAP
F80000
780000
780000
3C0000
3C0000
3E0000
1E0000
1E0000
0F0000
0F0000
0F8000
078000
078000
07C000
03C000
03E000
01E000
01E000
01F000
00F000
00F000
007800
007800
007C00
003C00
003C00
001E00
001E00
001F00
000F00
000F00
000F80
ENDCHAR
STARTCHAR 005D
ENCODING 93
SWIDTH 244 0
DWIDTH 11 0
BBX 8 32 1 0
BITMAP
FF
FF
FF
FF
FF
1F
1F
1F
1F
1F
1F
1F
1F
1F
1F
1F
1F
1F
1F
1F
1F
1F
1F
1F
1F
1F
1F
FF
FF
FF
FF
FF
ENDCHAR
STARTCHAR 005E
ENCODING 94
SWIDTH 400 0
DWIDTH 18 0
BBX 16 14 1 18
BITMAP
03C0
07C0
07E0
07E0
0FF0
0FF0
1E78
1E78
3C38
3C3C
783C
781E
781E
F00F
ENDCHAR
STARTCHAR 005F
ENCODING 95
SWIDTH 511 0
DWIDTH 23 0
BBX 23 4 0 -4
BITMAP
FFFFFE
FFFFFE
FFFFFE
FFFFFE
ENDCHAR
STARTCHAR 0060
ENCODING 96
SWIDTH 244 0
DWIDTH 11 0
BBX 8 5 2 33
BITMAP
F8
7C
3C
1E
0F
ENDCHAR
STARTCHAR 0061
ENCODING 97
SWIDTH 400 0
DWIDTH 18 0
BBX 18 32 0 0
BITMAP
07F800
07F800
07F800
07F800
07F800
07FC00
0FFC00
0FFC00
0FFC00
0F7C00
0F3C00
0F3E00
0F3E00
1F3E00
1F3E00
1E3E00
1E3E00
1E1F00
1E1F00
3E1F00
3E1F00
3E1F00
3FFF00
3FFF00
3FFF80
3FFF80
7FFF80
7C0F80
7C0F80
780F80
7807C0
F807C0
ENDCHAR
STARTCHAR 0062
ENCODING 98
SWIDTH 400 0
DWIDTH 18 0
BBX 15 32 2 0
BITMAP
FFE0
FFF0
FFF8
FFFC
FFFC
F87C
F83E
F83E
F83E
F83E
F83E
F87C
F87C
FFFC
FFF8
FFF0
FFF8
FFFC
F87E
F83E
F83E
F83E
F83E
F83E
F83E
F83E
F83E
FFFE
FFFC
FFFC
FFF8
FFE0
ENDCHAR
STARTCHAR 0063
ENCODING 99
SWIDTH 377 0
DWIDTH 17 0
BBX 15 32 1 0
BITMAP
07E0
1FF8
3FFC
7FFC
7FFE
7C3E
F83E
F83E
F83E
F83E
F83E
F800
F800
F800
F800
F800
F800
F800
F800
F800
F83E
F83E
F83E
F83E
F83E
F83E
7C3E
7FFE
7FFC
3FFC
1FF8
07E0
ENDCHAR
STARTCHAR 0064
ENCODING 100
SWIDTH 400 0
DWIDTH 18 0
BBX 15 32 2 0
BITMAP
FFE0
FFF8
FFFC
FFFC
FFFE
F83E
F83E
F83E
F83E
F83E
F83E
F83E
F83E
F83E
F83E
F83E
F83E
F83E
F83E
F83E
F83E
F83E
F83E
F83E
F83E
F83E
F83E
FFFE
FFFC
FFFC
FFF8
FFE0
ENDCHAR
STARTCHAR 0065
ENCODING 101
SWIDTH 377 0
DWIDTH 17 0
BBX 13 32 2 0
BITMAP
FFF8
FFF8
FFF8
FFF8
FFF8
F800
F800
F800
F800
F800
F800
F800
F800
FFF0
FFF0
FFF0
FFF0
FFF0
F800
F800
F800
F800
F800
F800
F800
F800
F800
FFF8
FFF8
FFF8
FFF8
FFF8
ENDCHAR
STARTCHAR 0066
ENCODING 102
SWIDTH 333 0
DWIDTH 15 0
BBX 13 32 2 0
BITMAP
FFF8
FFF8
FFF8
FFF8
FFF8
F800
F800
F800
F800
F800
F800
F800
F800
F800
FFE0
FFE0
FFE0
FFE0
FFE0
F800
F800
F800
F800
F800
F800
F800
F800
F800
F800
F800
F800
F800
ENDCHAR
STARTCHAR 0067
ENCODING 103
SWIDTH 400 0
DWIDTH 18 0
BBX 15 32 1 0
BITMAP
07E0
1FF8
3FFC
7FFC
7FFE
7C3E
F83E
F83E
F83E
F83E
F83E
F800
F800
F800
F8FE
F8FE
F8FE
F8FE
F8FE
F83E
F83E
F83E
F83E
F83E
F83E
F83E
7C3E
7FFE
7FFC
3FFC
1FF8
07E0
ENDCHAR
STARTCHAR 0068
ENCODING 104
SWIDTH 422 0
DWIDTH 19 0
BBX 15 32 2 0
BITMAP
F83E
F83E
F83E
F83E
F83E
F83E
F83E
F83E
F83E
F83E
F83E
F83E
F83E
F83E
FFFE
FFFE
FFFE
FFFE
FFFE
F83E
F83E
F83E
F83E
F83E
F83E
F83E
F83E
F83E
F83E
F83E
F83E
F83E
ENDCHAR
STARTCHAR 0069
ENCODING 105
SWIDTH 200 0
DWIDTH 9 0
BBX 5 32 2 0
BITMAP
F8
F8
F8
F8
F8
F8
F8
F8
F8
F8
F8
F8
F8
F8
F8
F8
F8
F8
F8
F8
F8
F8
F8
F8
F8
F8
F8
F8
F8
F8
F8
F8
ENDCHAR
STARTCHAR 006A
ENCODING 106
SWIDTH 266 0
DWIDTH 12 0
BBX 10 32 0 0
BITMAP
07C0
07C0
07C0
07C0
07C0
07C0
07C0
07C0
07C0
07C0
07C0
07C0
07C0
07C0
07C0
07C0
07C0
07C0
07C0
07C0
07C0
07C0
07C0
07C0
07C0
07C0
07C0
FF80
FF80
FF80
FF00
FC00
ENDCHAR
STARTCHAR 006B
ENCODING 107
SWIDTH 422 0
DWIDTH 19 0
BBX 16 32 2 0
BITMAP
F81F
F81E
F83E
F83E
F87C
F87C
F8F8
F8F8
F9F0
F9F0
FBE0
FBE0
FFC0
FFC0
FF80
FFC0
FFC0
FFC0
FFE0
FFE0
FDF0
F9F0
F9F0
F8F8
F8F8
F87C
F87C
F87C
F83E
F83E
F81F
F81F
ENDCHAR
STARTCHAR 006C
ENCODING 108
SWIDTH 333 0
DWIDTH 15 0
BBX 13 32 2 0
BITMAP
F800
F800
F800
F800
F800
F800
F800
F800
F800
F800
F800
F800
F800
F800
F800
F800
F800
F800
F800
F800
F800
F800
F800
F800
F800
F800
F800
FFF8
FFF8
FFF8
FFF8
FFF8
ENDCHAR
STARTCHAR 006D
ENCODING 109
SWIDTH 533 0
DWIDTH 24 0
BBX 21 32 2 0
BITMAP
FE03F8
FE07F8
FE07F8
FE07F8
FE07F8
FF07F8
FF07F8
FF07F8
FF0FF8
FF0FF8
FF0FF8
FF0FF8
F78EF8
F78EF8
F79EF8
F79EF8
F79EF8
F79EF8
F3DCF8
F3DCF8
F3DCF8
F3FCF8
F3FCF8
F3FCF8
F1FCF8
F1F8F8
F1F8F8
F1F8F8
F1F8F8
F1F8F8
F0F8F8
F0F8F8
ENDCHAR
STARTCHAR 006E
ENCODING 110
SWIDTH 422 0
DWIDTH 19 0
BBX 15 32 2 0
BITMAP
FC1E
FC1E
FE1E
FE1E
FE1E
FE1E
FF1E
FF1E
FF1E
FF1E
F79E
F79E
F79E
F7DE
F3DE
F3DE
F3DE
F3FE
F1FE
F1FE
F1FE
F0FE
F0FE
F0FE
F0FE
F07E
F07E
F07E
F07E
F03E
F03E
F03E
ENDCHAR
STARTCHAR 006F
ENCODING 111
SWIDTH 400 0
DWIDTH 18 0
BBX 15 32 1 0
BITMAP
07E0
1FF8
3FFC
7FFC
7FFE
7C3E
F83E
F83E
F83E
F83E
F83E
F83E
F83E
F83E
F83E
F83E
F83E
F83E
F83E
F83E
F83E
F83E
F83E
F83E
F83E
F83E
7C3E
7FFE
7FFC
3FFC
1FF8
07E0
ENDCHAR
STARTCHAR 0070
ENCODING 112
SWIDTH 377 0
DWIDTH 17 0
BBX 14 32 2 0
BITMAP
FFC0
FFF0
FFF8
FFFC
FFFC
F87C
F87C
F83C
F83C
F83C
F83C
F83C
F87C
F87C
F87C
FFFC
FFFC
FFF8
FFF0
FFC0
F800
F800
F800
F800
F800
F800
F800
F800
F800
F800
F800
F800
ENDCHAR
STARTCHAR 0071
ENCODING 113
SWIDTH 400 0
DWIDTH 18 0
BBX 16 34 1 -2
BITMAP
07E0
1FF8
3FFC
7FFE
7FFE
7C3E
F83E
F83E
F83E
F83E
F83E
F83E
F83E
F83E
F83E
F83E
F83E
F83E
F83E
F83E
F83E
F83E
F83E
F83E
F83E
F83E
7C3E
7FFE
7FFE
3FFF
1FFF
07FF
000F
0001
ENDCHAR
STARTCHAR 0072
ENCODING 114
SWIDTH 400 0
DWIDTH 18 0
BBX 15 32 2 0
BITMAP
FFE0
FFF0
FFF8
FFFC
FFFC
F87C
F83E
F83E
F83E
F83E
F83E
F83E
F87C
F87C
FFFC
FFF8
FFF0
FFF8
FFFC
F8FC
F87C
F83E
F83E
F83E
F83E
F83E
F83E
F83E
F83E
F83E
F83E
F83E
ENDCHAR
STARTCHAR 0073
ENCODING 115
SWIDTH 377 0
DWIDTH 17 0
BBX 15 32 1 0
BITMAP
0FE0
1FF0
3FF8
7FFC
7FFC
FC3E
F83E
F83E
F83E
F800
FC00
7E00
7E00
3F00
3F80
1FE0
0FF0
07F0
01F8
00FC
00FC
007C
F83E
F83E
F83E
F83E
F87E
FFFC
7FFC
3FF8
3FF0
0FE0
ENDCHAR
STARTCHAR 0074
ENCODING 116
SWIDTH 355 0
DWIDTH 16 0
BBX 16 32 0 0
BITMAP
FFFF
FFFF
FFFF
FFFF
FFFF
03C0
03C0
03C0
03C0
03C0
03C0
03C0
03C0
03C0
03C0
03C0
03C0
03C0
03C0
03C0
03C0
03C0
03C0
03C0
03C0
03C0
03C0
03C0
03C0
03C0
03C0
03C0
ENDCHAR
STARTCHAR 0075
ENCODING 117
SWIDTH 400 0
DWIDTH 18 0
BBX 14 32 2 0
BITMAP
F83C
F83C
F83C
F83C
F83C
F83C
F83C
F83C
F83C
F83C
F83C
F83C
F83C
F83C
F83C
F83C
F83C
F83C
F83C
F83C
F83C
F83C
F83C
F83C
F83C
F83C
F87C
FFFC
FFF8
7FF8
3FF0
0FC0
ENDCHAR
STARTCHAR 0076
ENCODING 118
SWIDTH 400 0
DWIDTH 18 0
BBX 18 32 0 0
BITMAP
FC07C0
7C0780
7C0780
7C0780
7C0F80
7C0F80
7C0F80
3E0F00
3E0F00
3E0F00
3E0F00
3E1F00
3E1F00
1E1F00
1F1E00
1F1E00
1F1E00
1F3E00
1F3E00
1F3E00
0F3C00
0FBC00
0FBC00
0FBC00
0FFC00
0FFC00
07FC00
07F800
07F800
07F800
07F800
07F800
ENDCHAR
STARTCHAR 0077
ENCODING 119
SWIDTH 555 0
DWIDTH 25 0
BBX 24 32 1 0
BITMAP
F87C1F
F87C1E
F87E1E
F87E1E
F87E1E
F87E1E
F87E1E
F87E1E
787E3E
787E3E
7C7E3E
7CFE3C
7CFF3C
7CFF3C
7CFF3C
7CFF3C
7CFF3C
3CFF3C
3CEF7C
3EEF7C
3EEF78
3FEF78
3FE778
3FE7F8
3FE7F8
3FE7F8
1FE7F8
1FC7F8
1FC7F8
1FC7F0
1FC7F0
1FC3F0
ENDCHAR
STARTCHAR 0078
ENCODING 120
SWIDTH 422 0
DWIDTH 19 0
BBX 18 32 1 0
BITMAP
F80780
7C0F80
7C0F00
7C0F00
3E1F00
3E1E00
3E1E00
3F3E00
1F3C00
1F3C00
1F7C00
0FF800
0FF800
0FF800
07F000
07F000
07F000
07F800
0FF800
0FF800
0F7C00
1F7C00
1E7C00
1E3E00
3E3E00
3C3E00
3C1F00
7C1F00
781F80
780F80
F80F80
F00FC0
ENDCHAR
STARTCHAR 0079
ENCODING 121
SWIDTH 400 0
DWIDTH 18 0
BBX 18 32 0 0
BITMAP
F807C0
7C0780
7C0F80
7C0F80
7E0F00
3E0F00
3E1F00
3E1E00
1F1E00
1F3E00
1F3E00
0F3C00
0FBC00
0FFC00
0FF800
07F800
07F800
07F800
03F000
03F000
03F000
03E000
03E000
03E000
03E000
03E000
03E000
03E000
03E000
03E000
03E000
03E000
ENDCHAR
STARTCHAR 007A
ENCODING 122
SWIDTH 377 0
DWIDTH 17 0
BBX 15 32 1 0
BITMAP
FFFE
FFFE
FFFE
FFFE
FFFE
007C
007C
00F8
00F8
01F0
01F0
01F0
03E0
03E0
07C0
07C0
07C0
0F80
0F80
1F00
1F00
3F00
3E00
3E00
7C00
7C00
FC00
FFFE
FFFE
FFFE
FFFE
FFFE
ENDCHAR
STARTCHAR 007B
ENCODING 123
SWIDTH 266 0
DWIDTH 12 0
BBX 11 32 0 0
BITMAP
03E0
07E0
0FE0
0FE0
1FE0
1F00
1F00
1F00
1F00
1F00
1F00
1F00
1E00
3E00
FE00
FC00
F800
FE00
FE00
1E00
1F00
1F00
1F00
1F00
1F00
1F00
1F00
1FE0
0FE0
0FE0
07E0
03E0
ENDCHAR
STARTCHAR 007C
ENCODING 124
SWIDTH 511 0
DWIDTH 23 0
BBX 5 37 9 -3
BITMAP
F8
F8
F8
F8
F8
F8
F8
F8
F8
F8
F8
F8
F8
F8
F8
F8
F8
F8
F8
F8
F8
F8
F8
F8
F8
F8
F8
F8
F8
F8
F8
F8
F8
F8
F8
F8
F8
ENDCHAR
STARTCHAR 007D
ENCODING 125
SWIDTH 266 0
DWIDTH 12 0
BBX 10 32 1 0
BITMAP
F000
FC00
FC00
FE00
FE00
3E00
1E00
1E00
1E00
1E00
1F00
1F00
1F00
1F00
0FC0
0FC0
07C0
0FC0
1FC0
1F00
1F00
1F00
1F00
1E00
1E00
1E00
3E00
FE00
FE00
FE00
FC00
F000
ENDCHAR
STARTCHAR 007E
ENCODING 126
SWIDTH 400 0
DWIDTH 18 0
BBX 17 7 0 13
BITMAP
0F0100
1F8300
3FE780
7FFF80
F1FF00
707E00
203C00
ENDCHAR
STARTCHAR 00A0
ENCODING 160
SWIDTH 155 0
DWIDTH 7 0
BBX 0 0 0 0
BITMAP
ENDCHAR
STARTCHAR 00A1
ENCODING 161
SWIDTH 200 0
DWIDTH 9 0
BBX 5 32 2 0
BITMAP
F8
F8
F8
F8
F8
00
00
F0
F0
F0
F0
F0
F0
F0
F8
F8
F8
F8
F8
F8
F8
F8
F8
F8
F8
F8
F8
F8
F8
F8
F8
F8
ENDCHAR
STARTCHAR 00A2
ENCODING 162
SWIDTH 400 0
DWIDTH 18 0
BBX 14 33 2 -1
BITMAP
0780
0780
0780
3FE0
7FF8
7FF8
FFFC
F87C
F87C
F83C
F83C
F83C
F800
F800
F800
F800
F800
F800
F800
F800
F83C
F83C
F83C
F83C
F87C
F87C
FFFC
7FF8
7FF8
3FF0
0780
0780
0780
ENDCHAR
STARTCHAR 00A3
ENCODING 163
SWIDTH 400 0
DWIDTH 18 0
BBX 15 32 1 0
BITMAP
07E0
1FF8
3FFC
3FFC
7FFE
7C3E
7C1E
7C1E
7C1E
7C1E
7C1E
7C00
7C00
3E00
3E00
3E00
1F00
1F00
0F80
7FFC
7FFC
7FFC
7FFC
0780
0F80
0F00
1F00
FFFE
FFFE
FFFE
FFFE
FFFE
ENDCHAR
STARTCHAR 00A4
ENCODING 164
SWIDTH 400 0
DWIDTH 18 0
BBX 15 16 1 8
BITMAP
2004
600E
F3DE
3FFC
1FF8
1C78
383C
381C
381C
383C
1C38
1FF8
3FFC
FFDE
700E
2004
ENDCHAR
STARTCHAR 00A5
ENCODING 165
SWIDTH 400 0
DWIDTH 18 0
BBX 18 32 0 0
BITMAP
FC07C0
7C0F80
7C0F80
7C0F80
3E0F00
3E1F00
3E1F00
3E1E00
1F1E00
1F3E00
1F3C00
0F3C00
0FBC00
0FFC00
0FF800
07F800
07F800
07F000
03F000
03F000
3FFE00
3FFE00
03E000
03E000
03E000
3FFE00
3FFE00
03E000
03E000
03E000
03E000
03E000
ENDCHAR
STARTCHAR 00A6
ENCODING 166
SWIDTH 511 0
DWIDTH 23 0
BBX 5 37 9 -3
BITMAP
F8
F8
F8
F8
F8
F8
F8
F8
F8
F8
F8
F8
F8
F8
F8
F8
00
00
00
00
00
F8
F8
F8
F8
F8
F8
F8
F8
F8
F8
F8
F8
F8
F8
F8
F8
ENDCHAR
STARTCHAR 00A7
ENCODING 167
SWIDTH 400 0
DWIDTH 18 0
BBX 14 36 2 -4
BITMAP
0FC0
3FF0
7FF8
FFFC
FFFC
F87C
F87C
F87C
F800
FE00
FF80
7FE0
3FF0
3FF8
7FFC
F8FC
F87C
F07C
F07C
F87C
F87C
FFF8
7FF0
3FE0
1FF0
07F8
01FC
F07C
F07C
F07C
F87C
FFFC
FFFC
7FF8
3FF0
0FC0
ENDCHAR
STARTCHAR 00A8
ENCODING 168
SWIDTH 244 0
DWIDTH 11 0
BBX 11 5 0 33
BITMAP
F1E0
F1E0
F1E0
F1E0
F1E0
ENDCHAR
STARTCHAR 00A9
ENCODING 169
SWIDTH 733 0
DWIDTH 33 0
BBX 31 32 1 0
BITMAP
001FF000
007FFC00
01FFFF00
07F01FC0
0FC003E0
1F0001F0
1E07C0F0
3C0FE078
381FF03C
781C703C
703C701C
F03C701E
F03C700E
E03C000E
E03C000E
E03C000E
E03C000E
E03C000E
E03C700E
F03C700E
F03C701E
703C701C
781C703C
381FF03C
3C0FE078
1E07C0F0
1F0001F0
0FC003E0
07F01FC0
01FFFF00
007FFC00
001FF000
ENDCHAR
STARTCHAR 00AA
ENCODING 170
SWIDTH 288 0
DWIDTH 13 0
BBX 10 22 1 10
BITMAP
0F00
3F80
7F80
71C0
71C0
01C0
0FC0
3FC0
7FC0
79C0
F1C0
F1C0
F1C0
F3C0
7FC0
7FC0
39C0
0000
0000
FFC0
FFC0
FFC0
ENDCHAR
STARTCHAR 00AB
ENCODING 171
SWIDTH 355 0
DWIDTH 16 0
BBX 14 24 1 4
BITMAP
3E3C
3E7C
3C7C
3C78
7C78
7CF8
78F8
78F0
F8F0
F8F0
F1F0
F1F0
F1F0
F9F0
F8F0
78F0
78F8
7CF8
7C78
7C78
3C78
3C7C
3E7C
3E3C
ENDCHAR
STARTCHAR 00AC
ENCODING 172
SWIDTH 400 0
DWIDTH 18 0
BBX 16 10 1 8
BITMAP
FFFF
FFFF
FFFF
FFFF
000F
000F
000F
000F
000F
000F
ENDCHAR
STARTCHAR 00AD
ENCODING 173
SWIDTH 266 0
DWIDTH 12 0
BBX 9 5 2 14
BITMAP
FF80
FF80
FF80
FF80
FF80
ENDCHAR
STARTCHAR 00AE
ENCODING 174
SWIDTH 733 0
DWIDTH 33 0
BBX 31 32 1 0
BITMAP
001FF000
007FFC00
01FFFF00
07F01FC0
0FC003E0
1F0001F0
1E1FC0F0
3C1FF078
381FF03C
781C783C
701C781C
F01C781E
F01C780E
E01C780E
E01C700E
E01FF00E
E01FE00E
E01FF00E
E01C780E
F01C780E
F01C781E
701C781C
781C783C
381C783C
3C1C3878
1E1C38F0
1F0001F0
0FC003E0
07F01FC0
01FFFF00
007FFC00
001FF000
ENDCHAR
STARTCHAR 00AF
ENCODING 175
SWIDTH 244 0
DWIDTH 11 0
BBX 11 4 0 33
BITMAP
FFE0
FFE0
FFE0
FFE0
ENDCHAR
STARTCHAR 00B0
ENCODING 176
SWIDTH 222 0
DWIDTH 10 0
BBX 9 9 1 23
BITMAP
3C00
7E00
E700
C300
C380
C300
E700
7E00
3C00
ENDCHAR
STARTCHAR 00B1
ENCODING 177
SWIDTH 400 0
DWIDTH 18 0
BBX 14 16 2 8
BITMAP
0780
0780
0780
0780
0780
FFFC
FFFC
FFFC
FFFC
0780
0780
0780
FFFC
FFFC
FFFC
FFFC
ENDCHAR
STARTCHAR 00B2
ENCODING 178
SWIDTH 288 0
DWIDTH 13 0
BBX 9 20 2 16
BITMAP
3E00
7F00
FF80
E380
E380
E380
E380
0380
0780
0700
0E00
1C00
3C00
7800
7000
E000
E000
FF80
FF80
FF80
ENDCHAR
STARTCHAR 00B3
ENCODING 179
SWIDTH 288 0
DWIDTH 13 0
BBX 9 20 2 16
BITMAP
3E00
7F00
FF80
E380
E380
E380
0380
0780
1F00
1E00
1F00
0780
0380
E380
E380
E380
E780
FF80
7F00
3E00
ENDCHAR
STARTCHAR 00B4
ENCODING 180
SWIDTH 244 0
DWIDTH 11 0
BBX 8 5 1 33
BITMAP
1F
1E
3C
78
F0
ENDCHAR
STARTCHAR 00B5
ENCODING 181
SWIDTH 400 0
DWIDTH 18 0
BBX 15 27 1 -4
BITMAP
F83E
F83E
F83E
F83E
F83E
F83E
F83E
F83E
F83E
F83E
F83E
F83E
F83E
F83E
F83E
F83E
F83E
FC3E
FFFE
FFFE
FFFE
FFDE
FF9E
F800
F800
F800
F800
ENDCHAR
STARTCHAR 00B6
ENCODING 182
SWIDTH 400 0
DWIDTH 18 0
BBX 15 35 1 -3
BITMAP
0FFE
3FFE
7FFE
FFFE
FF9E
FF9E
FF9E
FF9E
FF9E
FF9E
FF9E
FF9E
FF9E
FF9E
FF9E
FF9E
FF9E
7F9E
3F9E
1F9E
079E
079E
079E
079E
079E
079E
079E
079E
079E
079E
079E
079E
079E
079E
079E
ENDCHAR
STARTCHAR 00B7
ENCODING 183
SWIDTH 177 0
DWIDTH 8 0
BBX 5 5 2 13
BITMAP
F8
F8
F8
F8
F8
ENDCHAR
STARTCHAR 00B8
ENCODING 184
SWIDTH 244 0
DWIDTH 11 0
BBX 9 7 1 -7
BITMAP
0C00
0C00
0E00
0780
F380
FF80
3F00
ENDCHAR
STARTCHAR 00B9
ENCODING 185
SWIDTH 200 0
DWIDTH 9 0
BBX 6 20 1 16
BITMAP
1C
1C
3C
FC
FC
1C
1C
1C
1C
1C
1C
1C
1C
1C
1C
1C
1C
1C
1C
1C
ENDCHAR
STARTCHAR 00BA
ENCODING 186
SWIDTH 288 0
DWIDTH 13 0
BBX 9 22 2 10
BITMAP
3C00
7F00
FF80
E380
E380
E380
E380
E380
E380
E380
E380
E380
E380
E380
FF80
7F00
3E00
0000
0000
FF80
FF80
FF80
ENDCHAR
STARTCHAR 00BB
ENCODING 187
SWIDTH 355 0
DWIDTH 16 0
BBX 14 24 1 4
BITMAP
F1F0
F9F0
F8F0
78F0
78F8
78F8
7C78
7C78
3C7C
3C7C
3E7C
3E3C
3E3C
3E7C
3C7C
3C78
7C78
7CF8
78F8
78F8
F8F0
F8F0
F9F0
F1F0
ENDCHAR
STARTCHAR 00BC
ENCODING 188
SWIDTH 622 0
DWIDTH 28 0
BBX 24 31 3 1
BITMAP
1C00F0
1C00E0
3C00E0
FC01C0
FC01C0
3C0380
3C0380
3C0380
3C0700
3C0700
3C0E00
3C0E00
3C0E1E
3C1C1E
3C1C3E
3C383E
3C387E
3C387E
3C70EE
3C70EE
0060EE
00E1CE
00E1CE
01C38E
01C38E
0183FF
0383FF
0383FF
07000E
07000E
0F000E
ENDCHAR
STARTCHAR 00BD
ENCODING 189
SWIDTH 622 0
DWIDTH 28 0
BBX 24 32 3 0
BITMAP
1C01C0
1C01C0
3C0380
FC0380
FC0700
3C0700
3C0700
3C0E00
3C0E00
3C0E00
3C1C00
3C1C00
3C387C
3C39FE
3C39FE
3C71CF
3C7387
3CE387
3CE007
3CE00E
01C00E
01C01E
01803C
038078
038070
0700E0
0701C0
0701C0
0E01C0
0E03FF
1C03FF
1C03FF
ENDCHAR
STARTCHAR 00BE
ENCODING 190
SWIDTH 622 0
DWIDTH 28 0
BBX 25 31 2 1
BITMAP
3E003800
7F007000
FF807000
E3807000
E380E000
E380E000
0381C000
0781C000
1F01C000
1E038000
1F038000
07830F00
03870F00
E3870F00
E38E1F00
E38E1F00
E38C3F00
FF9C3F00
7F1C7700
3E387700
00386700
0038E700
0070E700
0071C700
00E1C700
00E1FF80
00E1FF80
01C1FF80
01C00700
03800700
03800700
ENDCHAR
STARTCHAR 00BF
ENCODING 191
SWIDTH 355 0
DWIDTH 16 0
BBX 14 32 1 0
BITMAP
07C0
07C0
07C0
07C0
07C0
0000
0000
07C0
03C0
07C0
07C0
07C0
0780
0F80
1F00
1F00
3E00
7E00
7C00
FC00
F800
F83C
F83C
F83C
F83C
F87C
F87C
FFFC
7FF8
7FF8
3FF0
0FC0
ENDCHAR
STARTCHAR 00C0
ENCODING 192
SWIDTH 400 0
DWIDTH 18 0
BBX 18 38 0 0
BITMAP
0F8000
07C000
03E000
01E000
00F000
000000
07F800
07F800
07F800
07F800
07F800
07FC00
0FFC00
0FFC00
0FFC00
0F7C00
0F3C00
0F3E00
0F3E00
1F3E00
1F3E00
1E3E00
1E3E00
1E1F00
1E1F00
3E1F00
3E1F00
3E1F00
3FFF00
3FFF00
3FFF80
3FFF80
7FFF80
7C0F80
7C0F80
780F80
7807C0
F807C0
ENDCHAR
STARTCHAR 00C1
ENCODING 193
SWIDTH 400 0
DWIDTH 18 0
BBX 18 38 0 0
BITMAP
007C00
007800
00F000
01E000
01C000
000000
07F800
07F800
07F800
07F800
07F800
07FC00
0FFC00
0FFC00
0FFC00
0F7C00
0F3C00
0F3E00
0F3E00
1F3E00
1F3E00
1E3E00
1E3E00
1E1F00
1E1F00
3E1F00
3E1F00
3E1F00
3FFF00
3FFF00
3FFF80
3FFF80
7FFF80
7C0F80
7C0F80
780F80
7807C0
F807C0
ENDCHAR
STARTCHAR 00C2
ENCODING 194
SWIDTH 400 0
DWIDTH 18 0
BBX 18 38 0 0
BITMAP
03F000
03F800
07FC00
0F3C00
1E1E00
000000
07F800
07F800
07F800
07F800
07F800
07FC00
0FFC00
0FFC00
0FFC00
0F7C00
0F3C00
0F3E00
0F3E00
1F3E00
1F3E00
1E3E00
1E3E00
1E1F00
1E1F00
3E1F00
3E1F00
3E1F00
3FFF00
3FFF00
3FFF80
3FFF80
7FFF80
7C0F80
7C0F80
780F80
7807C0
F807C0
ENDCHAR
STARTCHAR 00C3
ENCODING 195
SWIDTH 400 0
DWIDTH 18 0
BBX 18 38 0 0
BITMAP
078C00
0FFE00
1FFE00
0C7800
000000
000000
07F800
07F800
07F800
07F800
07F800
07FC00
0FFC00
0FFC00
0FFC00
0F7C00
0F3C00
0F3E00
0F3E00
1F3E00
1F3E00
1E3E00
1E3E00
1E1F00
1E1F00
3E1F00
3E1F00
3E1F00
3FFF00
3FFF00
3FFF80
3FFF80
7FFF80
7C0F80
7C0F80
780F80
7807C0
F807C0
ENDCHAR
STARTCHAR 00C4
ENCODING 196
SWIDTH 400 0
DWIDTH 18 0
BBX 18 38 0 0
BITMAP
0F3E00
0F3E00
0F3E00
0F3E00
0F3E00
000000
07F800
07F800
07F800
07F800
07F800
07FC00
0FFC00
0FFC00
0FFC00
0F7C00
0F3C00
0F3E00
0F3E00
1F3E00
1F3E00
1E3E00
1E3E00
1E1F00
1E1F00
3E1F00
3E1F00
3E1F00
3FFF00
3FFF00
3FFF80
3FFF80
7FFF80
7C0F80
7C0F80
780F80
7807C0
F807C0
ENDCHAR
STARTCHAR 00C5
ENCODING 197
SWIDTH 400 0
DWIDTH 18 0
BBX 18 40 0 0
BITMAP
01E000
03F000
033800
033800
033800
03F000
01E000
000000
07F800
07F800
07F800
07F800
07F800
07FC00
0FFC00
0FFC00
0FFC00
0F7C00
0F3C00
0F3E00
0F3E00
1F3E00
1F3E00
1E3E00
1E3E00
1E1F00
1E1F00
3E1F00
3E1F00
3E1F00
3FFF00
3FFF00
3FFF80
3FFF80
7FFF80
7C0F80
7C0F80
780F80
7807C0
F807C0
ENDCHAR
STARTCHAR 00C6
ENCODING 198
SWIDTH 577 0
DWIDTH 26 0
BBX 25 32 0 0
BITMAP
00FFFF80
00FFFF80
00FFFF80
00FFFF80
01FFFF80
01FF0000
01FF0000
01FF0000
03FF0000
03FF0000
03DF0000
03DF0000
07DF0000
07DFFE00
079FFE00
079FFE00
0F9FFE00
0F9FFE00
0F1F0000
1F1F0000
1F1F0000
1F1F0000
1FFF0000
3FFF0000
3FFF0000
3FFF0000
3FFF0000
7C1FFF80
7C1FFF80
7C1FFF80
781FFF80
F81FFF80
ENDCHAR
STARTCHAR 00C7
ENCODING 199
SWIDTH 377 0
DWIDTH 17 0
BBX 15 39 1 -7
BITMAP
07E0
1FF8
3FFC
7FFC
7FFE
7C3E
F83E
F83E
F83E
F83E
F83E
F800
F800
F800
F800
F800
F800
F800
F800
F800
F83E
F83E
F83E
F83E
F83E
F83E
FC3E
7C3E
7FFE
7FFC
3FF8
1FF0
03C0
0180
01E0
00F0
1E70
0FF0
07C0
ENDCHAR
STARTCHAR 00C8
ENCODING 200
SWIDTH 377 0
DWIDTH 17 0
BBX 13 38 2 0
BITMAP
7C00
1E00
0F00
0780
0380
0000
FFF8
FFF8
FFF8
FFF8
FFF8
F800
F800
F800
F800
F800
F800
F800
F800
FFF0
FFF0
FFF0
FFF0
FFF0
F800
F800
F800
F800
F800
F800
F800
F800
F800
FFF8
FFF8
FFF8
FFF8
FFF8
ENDCHAR
STARTCHAR 00C9
ENCODING 201
SWIDTH 377 0
DWIDTH 17 0
BBX 13 38 2 0
BITMAP
01F0
03C0
0780
0700
0E00
0000
FFF8
FFF8
FFF8
FFF8
FFF8
F800
F800
F800
F800
F800
F800
F800
F800
FFF0
FFF0
FFF0
FFF0
FFF0
F800
F800
F800
F800
F800
F800
F800
F800
F800
FFF8
FFF8
FFF8
FFF8
FFF8
ENDCHAR
STARTCHAR 00CA
ENCODING 202
SWIDTH 377 0
DWIDTH 17 0
BBX 13 38 2 0
BITMAP
0F80
1FC0
3DE0
78F0
F8F8
0000
FFF8
FFF8
FFF8
FFF8
FFF8
F800
F800
F800
F800
F800
F800
F800
F800
FFF0
FFF0
FFF0
FFF0
FFF0
F800
F800
F800
F800
F800
F800
F800
F800
F800
FFF8
FFF8
FFF8
FFF8
FFF8
ENDCHAR
STARTCHAR 00CB
ENCODING 203
SWIDTH 377 0
DWIDTH 17 0
BBX 13 38 2 0
BITMAP
78F0
78F0
78F0
78F0
78F0
0000
FFF8
FFF8
FFF8
FFF8
FFF8
F800
F800
F800
F800
F800
F800
F800
F800
FFF0
FFF0
FFF0
FFF0
FFF0
F800
F800
F800
F800
F800
F800
F800
F800
F800
FFF8
FFF8
FFF8
FFF8
FFF8
ENDCHAR
STARTCHAR 00CC
ENCODING 204
SWIDTH 200 0
DWIDTH 9 0
BBX 8 38 -1 0
BITMAP
F8
7C
3E
1E
0F
00
1F
1F
1F
1F
1F
1F
1F
1F
1F
1F
1F
1F
1F
1F
1F
1F
1F
1F
1F
1F
1F
1F
1F
1F
1F
1F
1F
1F
1F
1F
1F
1F
ENDCHAR
STARTCHAR 00CD
ENCODING 205
SWIDTH 200 0
DWIDTH 9 0
BBX 8 38 2 0
BITMAP
3F
3C
78
F0
E0
00
F8
F8
F8
F8
F8
F8
F8
F8
F8
F8
F8
F8
F8
F8
F8
F8
F8
F8
F8
F8
F8
F8
F8
F8
F8
F8
F8
F8
F8
F8
F8
F8
ENDCHAR
STARTCHAR 00CE
ENCODING 206
SWIDTH 200 0
DWIDTH 9 0
BBX 13 38 -2 0
BITMAP
0F80
1FC0
3FE0
79F0
F0F8
0000
0F80
0F80
0F80
0F80
0F80
0F80
0F80
0F80
0F80
0F80
0F80
0F80
0F80
0F80
0F80
0F80
0F80
0F80
0F80
0F80
0F80
0F80
0F80
0F80
0F80
0F80
0F80
0F80
0F80
0F80
0F80
0F80
ENDCHAR
STARTCHAR 00CF
ENCODING 207
SWIDTH 200 0
DWIDTH 9 0
BBX 11 38 -1 0
BITMAP
F1E0
F1E0
F1E0
F1E0
F1E0
0000
1F00
1F00
1F00
1F00
1F00
1F00
1F00
1F00
1F00
1F00
1F00
1F00
1F00
1F00
1F00
1F00
1F00
1F00
1F00
1F00
1F00
1F00
1F00
1F00
1F00
1F00
1F00
1F00
1F00
1F00
1F00
1F00
ENDCHAR
STARTCHAR 00D0
ENCODING 208
SWIDTH 400 0
DWIDTH 18 0
BBX 17 32 0 0
BITMAP
3FF800
3FFE00
3FFF00
3FFF00
3FFF80
3E0F80
3E0F80
3E0F80
3E0F80
3E0F80
3E0F80
3E0F80
3E0F80
3E0F80
FFCF80
FFCF80
FFCF80
FFCF80
FFCF80
3E0F80
3E0F80
3E0F80
3E0F80
3E0F80
3E0F80
3E0F80
3E0F80
3FFF80
3FFF00
3FFF00
3FFE00
3FF800
ENDCHAR
STARTCHAR 00D1
ENCODING 209
SWIDTH 422 0
DWIDTH 19 0
BBX 15 38 2 0
BITMAP
1F10
3FFC
3FF8
10F0
0000
0000
FC1E
FC1E
FE1E
FE1E
FE1E
FE1E
FF1E
FF1E
FF1E
FF1E
F79E
F79E
F79E
F7DE
F3DE
F3DE
F3DE
F3FE
F1FE
F1FE
F1FE
F0FE
F0FE
F0FE
F0FE
F07E
F07E
F07E
F07E
F03E
F03E
F03E
ENDCHAR
STARTCHAR 00D2
ENCODING 210
SWIDTH 400 0
DWIDTH 18 0
BBX 15 39 1 0
BITMAP
3F00
1F00
0780
03C0
01E0
0000
0000
07E0
1FF8
3FFC
7FFC
7FFE
7C3E
F83E
F83E
F83E
F83E
F83E
F83E
F83E
F83E
F83E
F83E
F83E
F83E
F83E
F83E
F83E
F83E
F83E
F83E
F83E
F83E
7C3E
7FFE
7FFC
3FFC
1FF8
07E0
ENDCHAR
STARTCHAR 00D3
ENCODING 211
SWIDTH 400 0
DWIDTH 18 0
BBX 15 39 1 0
BITMAP
00F8
00F0
01E0
03C0
0780
0000
0000
07E0
1FF8
3FFC
7FFC
7FFE
7C3E
F83E
F83E
F83E
F83E
F83E
F83E
F83E
F83E
F83E
F83E
F83E
F83E
F83E
F83E
F83E
F83E
F83E
F83E
F83E
F83E
7C3E
7FFE
7FFC
3FFC
1FF8
07E0
ENDCHAR
STARTCHAR 00D4
ENCODING 212
SWIDTH 400 0
DWIDTH 18 0
BBX 15 39 1 0
BITMAP
03C0
07E0
0FF0
1E78
3C7C
0000
0000
07E0
1FF8
3FFC
7FFC
7FFE
7C3E
F83E
F83E
F83E
F83E
F83E
F83E
F83E
F83E
F83E
F83E
F83E
F83E
F83E
F83E
F83E
F83E
F83E
F83E
F83E
F83E
7C3E
7FFE
7FFC
3FFC
1FF8
07E0
ENDCHAR
STARTCHAR 00D5
ENCODING 213
SWIDTH 400 0
DWIDTH 18 0
BBX 15 38 1 0
BITMAP
0F18
3FFC
3FF8
18F0
0000
0000
07E0
1FF8
3FFC
7FFC
7FFE
7C3E
F83E
F83E
F83E
F83E
F83E
F83E
F83E
F83E
F83E
F83E
F83E
F83E
F83E
F83E
F83E
F83E
F83E
F83E
F83E
F83E
7C3E
7FFE
7FFC
3FFC
1FF8
07E0
ENDCHAR
STARTCHAR 00D6
ENCODING 214
SWIDTH 400 0
DWIDTH 18 0
BBX 15 38 1 0
BITMAP
3E78
3E78
3E78
3E78
3E78
0000
07E0
1FF8
3FFC
7FFC
7FFE
7C3E
F83E
F83E
F83E
F83E
F83E
F83E
F83E
F83E
F83E
F83E
F83E
F83E
F83E
F83E
F83E
F83E
F83E
F83E
F83E
F83E
7C3E
7FFE
7FFC
3FFC
1FF8
07E0
ENDCHAR
STARTCHAR 00D7
ENCODING 215
SWIDTH 400 0
DWIDTH 18 0
BBX 14 14 2 9
BITMAP
2010
7038
F87C
7CF8
3FF0
1FE0
0FC0
0FC0
1FE0
3FF0
7CF8
F87C
F03C
6018
ENDCHAR
STARTCHAR 00D8
ENCODING 216
SWIDTH 400 0
DWIDTH 18 0
BBX 15 34 1 -1
BITMAP
0006
07E6
1FFC
3FFC
7FFC
7FFE
7C3E
F83E
F83E
F83E
F87E
F87E
F87E
F8FE
F8FE
F9BE
F9BE
F9BE
FB3E
FB3E
FB3E
FE3E
FE3E
FC3E
FC3E
FC3E
F83E
7C3E
7FFE
7FFC
3FFC
3FF8
67E0
6000
ENDCHAR
STARTCHAR 00D9
ENCODING 217
SWIDTH 400 0
DWIDTH 18 0
BBX 14 39 2 0
BITMAP
3E00
1E00
0F00
0780
03C0
0000
0000
F83C
F83C
F83C
F83C
F83C
F83C
F83C
F83C
F83C
F83C
F83C
F83C
F83C
F83C
F83C
F83C
F83C
F83C
F83C
F83C
F83C
F83C
F83C
F83C
F83C
F83C
F87C
FFFC
FFF8
7FF8
3FF0
0FC0
ENDCHAR
STARTCHAR 00DA
ENCODING 218
SWIDTH 400 0
DWIDTH 18 0
BBX 14 39 2 0
BITMAP
01F0
01E0
03C0
0780
0F00
0000
0000
F83C
F83C
F83C
F83C
F83C
F83C
F83C
F83C
F83C
F83C
F83C
F83C
F83C
F83C
F83C
F83C
F83C
F83C
F83C
F83C
F83C
F83C
F83C
F83C
F83C
F83C
F87C
FFFC
FFF8
7FF8
3FF0
0FC0
ENDCHAR
STARTCHAR 00DB
ENCODING 219
SWIDTH 400 0
DWIDTH 18 0
BBX 14 39 2 0
BITMAP
0780
0FC0
1FE0
3CF0
7878
0000
0000
F83C
F83C
F83C
F83C
F83C
F83C
F83C
F83C
F83C
F83C
F83C
F83C
F83C
F83C
F83C
F83C
F83C
F83C
F83C
F83C
F83C
F83C
F83C
F83C
F83C
F83C
F87C
FFFC
FFF8
7FF8
3FF0
0FC0
ENDCHAR
STARTCHAR 00DC
ENCODING 220
SWIDTH 400 0
DWIDTH 18 0
BBX 14 38 2 0
BITMAP
7CF8
7CF8
7CF8
7CF8
7CF8
0000
F83C
F83C
F83C
F83C
F83C
F83C
F83C
F83C
F83C
F83C
F83C
F83C
F83C
F83C
F83C
F83C
F83C
F83C
F83C
F83C
F83C
F83C
F83C
F83C
F83C
F83C
F87C
FFFC
FFF8
7FF8
3FF0
0FC0
ENDCHAR
STARTCHAR 00DD
ENCODING 221
SWIDTH 400 0
DWIDTH 18 0
BBX 18 38 0 0
BITMAP
007C00
007800
00F000
01E000
03C000
000000
F807C0
7C0780
7C0F80
7C0F80
7E0F00
3E0F00
3E1F00
3E1E00
1F1E00
1F3E00
1F3E00
0F3C00
0FBC00
0FFC00
0FF800
07F800
07F800
07F800
03F000
03F000
03F000
03E000
03E000
03E000
03E000
03E000
03E000
03E000
03E000
03E000
03E000
03E000
ENDCHAR
STARTCHAR 00DE
ENCODING 222
SWIDTH 377 0
DWIDTH 17 0
BBX 14 32 2 0
BITMAP
F800
F800
F800
F800
FFC0
FFF0
FFF8
FFFC
FFFC
F87C
F87C
F83C
F83C
F83C
F83C
F83C
F87C
F87C
F87C
FFFC
FFF8
FFF8
FFE0
FE00
F800
F800
F800
F800
F800
F800
F800
F800
ENDCHAR
STARTCHAR 00DF
ENCODING 223
SWIDTH 755 0
DWIDTH 34 0
BBX 32 32 1 0
BITMAP
0FE007E0
1FF01FF8
3FF83FFC
7FFC3FFE
7FFC7FFE
FC3E7C3E
F83E7C1E
F83E7C1F
F83E7C1F
F8007C00
FC007E00
7E003E00
7E003F00
3F001F80
3F801FC0
1FE00FE0
0FF007F0
07F003F8
01F801FC
00FC00FE
00FC007E
007C003E
F83E7C3E
F83E7C1F
F83E7C1F
F83E7C1F
F87E7C3E
FFFC7FFE
7FFC3FFE
3FF83FFC
3FF01FF8
0FE007E0
ENDCHAR
STARTCHAR 00E0
ENCODING 224
SWIDTH 400 0
DWIDTH 18 0
BBX 18 38 0 0
BITMAP
0F8000
07C000
03E000
01E000
00F000
000000
07F800
07F800
07F800
07F800
07F800
07FC00
0FFC00
0FFC00
0FFC00
0F7C00
0F3C00
0F3E00
0F3E00
1F3E00
1F3E00
1E3E00
1E3E00
1E1F00
1E1F00
3E1F00
3E1F00
3E1F00
3FFF00
3FFF00
3FFF80
3FFF80
7FFF80
7C0F80
7C0F80
780F80
7807C0
F807C0
ENDCHAR
STARTCHAR 00E1
ENCODING 225
SWIDTH 400 0
DWIDTH 18 0
BBX 18 38 0 0
BITMAP
007C00
007800
00F000
01E000
01C000
000000
07F800
07F800
07F800
07F800
07F800
07FC00
0FFC00
0FFC00
0FFC00
0F7C00
0F3C00
0F3E00
0F3E00
1F3E00
1F3E00
1E3E00
1E3E00
1E1F00
1E1F00
3E1F00
3E1F00
3E1F00
3FFF00
3FFF00
3FFF80
3FFF80
7FFF80
7C0F80
7C0F80
780F80
7807C0
F807C0
ENDCHAR
STARTCHAR 00E2
ENCODING 226
SWIDTH 400 0
DWIDTH 18 0
BBX 18 38 0 0
BITMAP
03F000
03F800
07FC00
0F3C00
1E1E00
000000
07F800
07F800
07F800
07F800
07F800
07FC00
0FFC00
0FFC00
0FFC00
0F7C00
0F3C00
0F3E00
0F3E00
1F3E00
1F3E00
1E3E00
1E3E00
1E1F00
1E1F00
3E1F00
3E1F00
3E1F00
3FFF00
3FFF00
3FFF80
3FFF80
7FFF80
7C0F80
7C0F80
780F80
7807C0
F807C0
ENDCHAR
STARTCHAR 00E3
ENCODING 227
SWIDTH 400 0
DWIDTH 18 0
BBX 18 38 0 0
BITMAP
078C00
0FFE00
1FFE00
0C7800
000000
000000
07F800
07F800
07F800
07F800
07F800
07FC00
0FFC00
0FFC00
0FFC00
0F7C00
0F3C00
0F3E00
0F3E00
1F3E00
1F3E00
1E3E00
1E3E00
1E1F00
1E1F00
3E1F00
3E1F00
3E1F00
3FFF00
3FFF00
3FFF80
3FFF80
7FFF80
7C0F80
7C0F80
780F80
7807C0
F807C0
ENDCHAR
STARTCHAR 00E4
ENCODING 228
SWIDTH 400 0
DWIDTH 18 0
BBX 18 38 0 0
BITMAP
0F3E00
0F3E00
0F3E00
0F3E00
0F3E00
000000
07F800
07F800
07F800
07F800
07F800
07FC00
0FFC00
0FFC00
0FFC00
0F7C00
0F3C00
0F3E00
0F3E00
1F3E00
1F3E00
1E3E00
1E3E00
1E1F00
1E1F00
3E1F00
3E1F00
3E1F00
3FFF00
3FFF00
3FFF80
3FFF80
7FFF80
7C0F80
7C0F80
780F80
7807C0
F807C0
ENDCHAR
STARTCHAR 00E5
ENCODING 229
SWIDTH 400 0
DWIDTH 18 0
BBX 18 40 0 0
BITMAP
01E000
03F000
033800
033800
033800
03F000
01E000
000000
07F800
07F800
07F800
07F800
07F800
07FC00
0FFC00
0FFC00
0FFC00
0F7C00
0F3C00
0F3E00
0F3E00
1F3E00
1F3E00
1E3E00
1E3E00
1E1F00
1E1F00
3E1F00
3E1F00
3E1F00
3FFF00
3FFF00
3FFF80
3FFF80
7FFF80
7C0F80
7C0F80
780F80
7807C0
F807C0
ENDCHAR
STARTCHAR 00E6
ENCODING 230
SWIDTH 577 0
DWIDTH 26 0
BBX 25 32 0 0
BITMAP
00FFFF80
00FFFF80
00FFFF80
00FFFF80
01FFFF80
01FF0000
01FF0000
01FF0000
03FF0000
03FF0000
03DF0000
03DF0000
07DF0000
07DFFE00
079FFE00
079FFE00
0F9FFE00
0F9FFE00
0F1F0000
1F1F0000
1F1F0000
1F1F0000
1FFF0000
3FFF0000
3FFF0000
3FFF0000
3FFF0000
7C1FFF80
7C1FFF80
7C1FFF80
781FFF80
F81FFF80
ENDCHAR
STARTCHAR 00E7
ENCODING 231
SWIDTH 377 0
DWIDTH 17 0
BBX 15 39 1 -7
BITMAP
07E0
1FF8
3FFC
7FFC
7FFE
7C3E
F83E
F83E
F83E
F83E
F83E
F800
F800
F800
F800
F800
F800
F800
F800
F800
F83E
F83E
F83E
F83E
F83E
F83E
FC3E
7C3E
7FFE
7FFC
3FF8
1FF0
03C0
0180
01E0
00F0
1E70
0FF0
07C0
ENDCHAR
STARTCHAR 00E8
ENCODING 232
SWIDTH 377 0
DWIDTH 17 0
BBX 13 38 2 0
BITMAP
7C00
1E00
0F00
0780
0380
0000
FFF8
FFF8
FFF8
FFF8
FFF8
F800
F800
F800
F800
F800
F800
F800
F800
FFF0
FFF0
FFF0
FFF0
FFF0
F800
F800
F800
F800
F800
F800
F800
F800
F800
FFF8
FFF8
FFF8
FFF8
FFF8
ENDCHAR
STARTCHAR 00E9
ENCODING 233
SWIDTH 377 0
DWIDTH 17 0
BBX 13 38 2 0
BITMAP
01F0
03C0
0780
0700
0E00
0000
FFF8
FFF8
FFF8
FFF8
FFF8
F800
F800
F800
F800
F800
F800
F800
F800
FFF0
FFF0
FFF0
FFF0
FFF0
F800
F800
F800
F800
F800
F800
F800
F800
F800
FFF8
FFF8
FFF8
FFF8
FFF8
ENDCHAR
STARTCHAR 00EA
ENCODING 234
SWIDTH 377 0
DWIDTH 17 0
BBX 13 38 2 0
BITMAP
0F80
1FC0
3DE0
78F0
F8F8
0000
FFF8
FFF8
FFF8
FFF8
FFF8
F800
F800
F800
F800
F800
F800
F800
F800
FFF0
FFF0
FFF0
FFF0
FFF0
F800
F800
F800
F800
F800
F800
F800
F800
F800
FFF8
FFF8
FFF8
FFF8
FFF8
ENDCHAR
STARTCHAR 00EB
ENCODING 235
SWIDTH 377 0
DWIDTH 17 0
BBX 13 38 2 0
BITMAP
78F0
78F0
78F0
78F0
78F0
0000
FFF8
FFF8
FFF8
FFF8
FFF8
F800
F800
F800
F800
F800
F800
F800
F800
FFF0
FFF0
FFF0
FFF0
FFF0
F800
F800
F800
F800
F800
F800
F800
F800
F800
FFF8
FFF8
FFF8
FFF8
FFF8
ENDCHAR
STARTCHAR 00EC
ENCODING 236
SWIDTH 200 0
DWIDTH 9 0
BBX 8 38 -1 0
BITMAP
F8
7C
3E
1E
0F
00
1F
1F
1F
1F
1F
1F
1F
1F
1F
1F
1F
1F
1F
1F
1F
1F
1F
1F
1F
1F
1F
1F
1F
1F
1F
1F
1F
1F
1F
1F
1F
1F
ENDCHAR
STARTCHAR 00ED
ENCODING 237
SWIDTH 200 0
DWIDTH 9 0
BBX 8 38 2 0
BITMAP
3F
3C
78
F0
E0
00
F8
F8
F8
F8
F8
F8
F8
F8
F8
F8
F8
F8
F8
F8
F8
F8
F8
F8
F8
F8
F8
F8
F8
F8
F8
F8
F8
F8
F8
F8
F8
F8
ENDCHAR
STARTCHAR 00EE
ENCODING 238
SWIDTH 200 0
DWIDTH 9 0
BBX 13 38 -2 0
BITMAP
0F80
1FC0
3FE0
79F0
F0F8
0000
0F80
0F80
0F80
0F80
0F80
0F80
0F80
0F80
0F80
0F80
0F80
0F80
0F80
0F80
0F80
0F80
0F80
0F80
0F80
0F80
0F80
0F80
0F80
0F80
0F80
0F80
0F80
0F80
0F80
0F80
0F80
0F80
ENDCHAR
STARTCHAR 00EF
ENCODING 239
SWIDTH 200 0
DWIDTH 9 0
BBX 11 38 -1 0
BITMAP
F1E0
F1E0
F1E0
F1E0
F1E0
0000
1F00
1F00
1F00
1F00
1F00
1F00
1F00
1F00
1F00
1F00
1F00
1F00
1F00
1F00
1F00
1F00
1F00
1F00
1F00
1F00
1F00
1F00
1F00
1F00
1F00
1F00
1F00
1F00
1F00
1F00
1F00
1F00
ENDCHAR
STARTCHAR 00F0
ENCODING 240
SWIDTH 400 0
DWIDTH 18 0
BBX 17 32 0 0
BITMAP
3FF800
3FFE00
3FFF00
3FFF00
3FFF80
3E0F80
3E0F80
3E0F80
3E0F80
3E0F80
3E0F80
3E0F80
3E0F80
3E0F80
FFCF80
FFCF80
FFCF80
FFCF80
FFCF80
3E0F80
3E0F80
3E0F80
3E0F80
3E0F80
3E0F80
3E0F80
3E0F80
3FFF80
3FFF00
3FFF00
3FFE00
3FF800
ENDCHAR
STARTCHAR 00F1
ENCODING 241
SWIDTH 422 0
DWIDTH 19 0
BBX 15 38 2 0
BITMAP
1F10
3FFC
3FF8
10F0
0000
0000
FC1E
FC1E
FE1E
FE1E
FE1E
FE1E
FF1E
FF1E
FF1E
FF1E
F79E
F79E
F79E
F7DE
F3DE
F3DE
F3DE
F3FE
F1FE
F1FE
F1FE
F0FE
F0FE
F0FE
F0FE
F07E
F07E
F07E
F07E
F03E
F03E
F03E
ENDCHAR
STARTCHAR 00F2
ENCODING 242
SWIDTH 400 0
DWIDTH 18 0
BBX 15 39 1 0
BITMAP
3F00
1F00
0780
03C0
01E0
0000
0000
07E0
1FF8
3FFC
7FFC
7FFE
7C3E
F83E
F83E
F83E
F83E
F83E
F83E
F83E
F83E
F83E
F83E
F83E
F83E
F83E
F83E
F83E
F83E
F83E
F83E
F83E
F83E
7C3E
7FFE
7FFC
3FFC
1FF8
07E0
ENDCHAR
STARTCHAR 00F3
ENCODING 243
SWIDTH 400 0
DWIDTH 18 0
BBX 15 39 1 0
BITMAP
00F8
00F0
01E0
03C0
0780
0000
0000
07E0
1FF8
3FFC
7FFC
7FFE
7C3E
F83E
F83E
F83E
F83E
F83E
F83E
F83E
F83E
F83E
F83E
F83E
F83E
F83E
F83E
F83E
F83E
F83E
F83E
F83E
F83E
7C3E
7FFE
7FFC
3FFC
1FF8
07E0
ENDCHAR
STARTCHAR 00F4
ENCODING 244
SWIDTH 400 0
DWIDTH 18 0
BBX 15 39 1 0
BITMAP
03C0
07E0
0FF0
1E78
3C7C
0000
0000
07E0
1FF8
3FFC
7FFC
7FFE
7C3E
F83E
F83E
F83E
F83E
F83E
F83E
F83E
F83E
F83E
F83E
F83E
F83E
F83E
F83E
F83E
F83E
F83E
F83E
F83E
F83E
7C3E
7FFE
7FFC
3FFC
1FF8
07E0
ENDCHAR
STARTCHAR 00F5
ENCODING 245
SWIDTH 400 0
DWIDTH 18 0
BBX 15 38 1 0
BITMAP
0F18
3FFC
3FF8
18F0
0000
0000
07E0
1FF8
3FFC
7FFC
7FFE
7C3E
F83E
F83E
F83E
F83E
F83E
F83E
F83E
F83E
F83E
F83E
F83E
F83E
F83E
F83E
F83E
F83E
F83E
F83E
F83E
F83E
7C3E
7FFE
7FFC
3FFC
1FF8
07E0
ENDCHAR
STARTCHAR 00F6
ENCODING 246
SWIDTH 400 0
DWIDTH 18 0
BBX 15 38 1 0
BITMAP
3E78
3E78
3E78
3E78
3E78
0000
07E0
1FF8
3FFC
7FFC
7FFE
7C3E
F83E
F83E
F83E
F83E
F83E
F83E
F83E
F83E
F83E
F83E
F83E
F83E
F83E
F83E
F83E
F83E
F83E
F83E
F83E
F83E
7C3E
7FFE
7FFC
3FFC
1FF8
07E0
ENDCHAR
STARTCHAR 00F7
ENCODING 247
SWIDTH 400 0
DWIDTH 18 0
BBX 16 19 1 7
BITMAP
03C0
03C0
03C0
03C0
03C0
0000
0000
0000
FFFF
FFFF
FFFF
FFFF
0000
0000
03C0
03C0
03C0
03C0
03C0
ENDCHAR
STARTCHAR 00F8
ENCODING 248
SWIDTH 400 0
DWIDTH 18 0
BBX 15 34 1 -1
BITMAP
0006
07E6
1FFC
3FFC
7FFC
7FFE
7C3E
F83E
F83E
F83E
F87E
F87E
F87E
F8FE
F8FE
F9BE
F9BE
F9BE
FB3E
FB3E
FB3E
FE3E
FE3E
FC3E
FC3E
FC3E
F83E
7C3E
7FFE
7FFC
3FFC
3FF8
67E0
6000
ENDCHAR
STARTCHAR 00F9
ENCODING 249
SWIDTH 400 0
DWIDTH 18 0
BBX 14 39 2 0
BITMAP
3E00
1E00
0F00
0780
03C0
0000
0000
F83C
F83C
F83C
F83C
F83C
F83C
F83C
F83C
F83C
F83C
F83C
F83C
F83C
F83C
F83C
F83C
F83C
F83C
F83C
F83C
F83C
F83C
F83C
F83C
F83C
F83C
F87C
FFFC
FFF8
7FF8
3FF0
0FC0
ENDCHAR
STARTCHAR 00FA
ENCODING 250
SWIDTH 400 0
DWIDTH 18 0
BBX 14 39 2 0
BITMAP
01F0
01E0
03C0
0780
0F00
0000
0000
F83C
F83C
F83C
F83C
F83C
F83C
F83C
F83C
F83C
F83C
F83C
F83C
F83C
F83C
F83C
F83C
F83C
F83C
F83C
F83C
F83C
F83C
F83C
F83C
F83C
F83C
F87C
FFFC
FFF8
7FF8
3FF0
0FC0
ENDCHAR
STARTCHAR 00FB
ENCODING 251
SWIDTH 400 0
DWIDTH 18 0
BBX 14 39 2 0
BITMAP
0780
0FC0
1FE0
3CF0
7878
0000
0000
F83C
F83C
F83C
F83C
F83C
F83C
F83C
F83C
F83C
F83C
F83C
F83C
F83C
F83C
F83C
F83C
F83C
F83C
F83C
F83C
F83C
F83C
F83C
F83C
F83C
F83C
F87C
FFFC
FFF8
7FF8
3FF0
0FC0
ENDCHAR
STARTCHAR 00FC
ENCODING 252
SWIDTH 400 0
DWIDTH 18 0
BBX 14 38 2 0
BITMAP
7CF8
7CF8
7CF8
7CF8
7CF8
0000
F83C
F83C
F83C
F83C
F83C
F83C
F83C
F83C
F83C
F83C
F83C
F83C
F83C
F83C
F83C
F83C
F83C
F83C
F83C
F83C
F83C
F83C
F83C
F83C
F83C
F83C
F87C
FFFC
FFF8
7FF8
3FF0
0FC0
ENDCHAR
STARTCHAR 00FD
ENCODING 253
SWIDTH 400 0
DWIDTH 18 0
BBX 18 38 0 0
BITMAP
007C00
007800
00F000
01E000
03C000
000000
F807C0
7C0780
7C0F80
7C0F80
7E0F00
3E0F00
3E1F00
3E1E00
1F1E00
1F3E00
1F3E00
0F3C00
0FBC00
0FFC00
0FF800
07F800
07F800
07F800
03F000
03F000
03F000
03E000
03E000
03E000
03E000
03E000
03E000
03E000
03E000
03E000
03E000
03E000
ENDCHAR
STARTCHAR 00FE
ENCODING 254
SWIDTH 377 0
DWIDTH 17 0
BBX 14 32 2 0
BITMAP
F800
F800
F800
F800
FFC0
FFF0
FFF8
FFFC
FFFC
F87C
F87C
F83C
F83C
F83C
F83C
F83C
F87C
F87C
F87C
FFFC
FFF8
FFF8
FFE0
FE00
F800
F800
F800
F800
F800
F800
F800
F800
ENDCHAR
STARTCHAR 00FF
ENCODING 255
SWIDTH 400 0
DWIDTH 18 0
BBX 18 38 0 0
BITMAP
0F3E00
0F3E00
0F3E00
0F3E00
0F3E00
000000
F807C0
7C0780
7C0F80
7C0F80
7E0F00
3E0F00
3E1F00
3E1E00
1F1E00
1F3E00
1F3E00
0F3C00
0FBC00
0FFC00
0FF800
07F800
07F800
07F800
03F000
03F000
03F000
03E000
03E000
03E000
03E000
03E000
03E000
03E000
03E000
03E000
03E000
03E000
ENDCHAR
STARTCHAR 0100
ENCODING 256
SWIDTH 400 0
DWIDTH 18 0
BBX 18 37 0 0
BITMAP
0FFC00
0FFC00
0FFC00
0FFC00
000000
07F800
07F800
07F800
07F800
07F800
07FC00
0FFC00
0FFC00
0FFC00
0F7C00
0F3C00
0F3E00
0F3E00
1F3E00
1F3E00
1E3E00
1E3E00
1E1F00
1E1F00
3E1F00
3E1F00
3E1F00
3FFF00
3FFF00
3FFF80
3FFF80
7FFF80
7C0F80
7C0F80
780F80
7807C0
F807C0
ENDCHAR
STARTCHAR 0101
ENCODING 257
SWIDTH 400 0
DWIDTH 18 0
BBX 18 37 0 0
BITMAP
0FFC00
0FFC00
0FFC00
0FFC00
000000
07F800
07F800
07F800
07F800
07F800
07FC00
0FFC00
0FFC00
0FFC00
0F7C00
0F3C00
0F3E00
0F3E00
1F3E00
1F3E00
1E3E00
1E3E00
1E1F00
1E1F00
3E1F00
3E1F00
3E1F00
3FFF00
3FFF00
3FFF80
3FFF80
7FFF80
7C0F80
7C0F80
780F80
7807C0
F807C0
ENDCHAR
STARTCHAR 0102
ENCODING 258
SWIDTH 400 0
DWIDTH 18 0
BBX 18 39 0 0
BITMAP
0E1C00
0E1C00
0F1C00
07FC00
07F800
01F000
000000
07F800
07F800
07F800
07F800
07F800
07FC00
0FFC00
0FFC00
0FFC00
0F7C00
0F3C00
0F3E00
0F3E00
1F3E00
1F3E00
1E3E00
1E3E00
1E1F00
1E1F00
3E1F00
3E1F00
3E1F00
3FFF00
3FFF00
3FFF80
3FFF80
7FFF80
7C0F80
7C0F80
780F80
7807C0
F807C0
ENDCHAR
STARTCHAR 0103
ENCODING 259
SWIDTH 400 0
DWIDTH 18 0
BBX 18 39 0 0
BITMAP
0E1C00
0E1C00
0F1C00
07FC00
07F800
01F000
000000
07F800
07F800
07F800
07F800
07F800
07FC00
0FFC00
0FFC00
0FFC00
0F7C00
0F3C00
0F3E00
0F3E00
1F3E00
1F3E00
1E3E00
1E3E00
1E1F00
1E1F00
3E1F00
3E1F00
3E1F00
3FFF00
3FFF00
3FFF80
3FFF80
7FFF80
7C0F80
7C0F80
780F80
7807C0
F807C0
ENDCHAR
STARTCHAR 0104
ENCODING 260
SWIDTH 400 0
DWIDTH 18 0
BBX 18 39 0 -7
BITMAP
07F800
07F800
07F800
07F800
07F800
07FC00
0FFC00
0FFC00
0FFC00
0F7C00
0F3C00
0F3E00
0F3E00
1F3E00
1F3E00
1E3E00
1E3E00
1E1F00
1E1F00
3E1F00
3E1F00
3E1F00
3FFF00
3FFF00
3FFF80
3FFF80
7FFF80
7C0F80
7C0F80
780F80
7807C0
7807C0
800600
000E00
001E00
001E00
001FC0
001FC0
000780
ENDCHAR
STARTCHAR 0105
ENCODING 261
SWIDTH 400 0
DWIDTH 18 0
BBX 18 39 0 -7
BITMAP
07F800
07F800
07F800
07F800
07F800
07FC00
0FFC00
0FFC00
0FFC00
0F7C00
0F3C00
0F3E00
0F3E00
1F3E00
1F3E00
1E3E00
1E3E00
1E1F00
1E1F00
3E1F00
3E1F00
3E1F00
3FFF00
3FFF00
3FFF80
3FFF80
7FFF80
7C0F80
7C0F80
780F80
7807C0
7807C0
800600
000E00
001E00
001E00
001FC0
001FC0
000780
ENDCHAR
STARTCHAR 0106
ENCODING 262
SWIDTH 377 0
DWIDTH 17 0
BBX 15 39 1 0
BITMAP
00F8
00F0
01E0
03C0
0780
0000
0000
07E0
1FF8
3FFC
7FFC
7FFE
7C3E
F83E
F83E
F83E
F83E
F83E
F800
F800
F800
F800
F800
F800
F800
F800
F800
F83E
F83E
F83E
F83E
F83E
F83E
7C3E
7FFE
7FFC
3FFC
1FF8
07E0
ENDCHAR
STARTCHAR 0107
ENCODING 263
SWIDTH 377 0
DWIDTH 17 0
BBX 15 39 1 0
BITMAP
00F8
00F0
01E0
03C0
0780
0000
0000
07E0
1FF8
3FFC
7FFC
7FFE
7C3E
F83E
F83E
F83E
F83E
F83E
F800
F800
F800
F800
F800
F800
F800
F800
F800
F83E
F83E
F83E
F83E
F83E
F83E
7C3E
7FFE
7FFC
3FFC
1FF8
07E0
ENDCHAR
STARTCHAR 0108
ENCODING 264
SWIDTH 377 0
DWIDTH 17 0
BBX 15 39 1 0
BITMAP
07C0
07E0
0FF0
1EF8
3C7C
0000
0000
07E0
1FF8
3FFC
7FFC
7FFE
7C3E
F83E
F83E
F83E
F83E
F83E
F800
F800
F800
F800
F800
F800
F800
F800
F800
F83E
F83E
F83E
F83E
F83E
F83E
7C3E
7FFE
7FFC
3FFC
1FF8
07E0
ENDCHAR
STARTCHAR 0109
ENCODING 265
SWIDTH 377 0
DWIDTH 17 0
BBX 15 39 1 0
BITMAP
07C0
07E0
0FF0
1EF8
3C7C
0000
0000
07E0
1FF8
3FFC
7FFC
7FFE
7C3E
F83E
F83E
F83E
F83E
F83E
F800
F800
F800
F800
F800
F800
F800
F800
F800
F83E
F83E
F83E
F83E
F83E
F83E
7C3E
7FFE
7FFC
3FFC
1FF8
07E0
ENDCHAR
STARTCHAR 010A
ENCODING 266
SWIDTH 377 0
DWIDTH 17 0
BBX 15 38 1 0
BITMAP
03C0
03C0
03C0
03C0
03C0
0000
07E0
1FF8
3FFC
7FFC
7FFE
7C3E
F83E
F83E
F83E
F83E
F83E
F800
F800
F800
F800
F800
F800
F800
F800
F800
F83E
F83E
F83E
F83E
F83E
F83E
7C3E
7FFE
7FFC
3FFC
1FF8
07E0
ENDCHAR
STARTCHAR 010B
ENCODING 267
SWIDTH 377 0
DWIDTH 17 0
BBX 15 38 1 0
BITMAP
03C0
03C0
03C0
03C0
03C0
0000
07E0
1FF8
3FFC
7FFC
7FFE
7C3E
F83E
F83E
F83E
F83E
F83E
F800
F800
F800
F800
F800
F800
F800
F800
F800
F83E
F83E
F83E
F83E
F83E
F83E
7C3E
7FFE
7FFC
3FFC
1FF8
07E0
ENDCHAR
STARTCHAR 010C
ENCODING 268
SWIDTH 377 0
DWIDTH 17 0
BBX 15 39 1 0
BITMAP
3C3C
3E78
1EF0
0FE0
07C0
0000
0000
07E0
1FF8
3FFC
7FFC
7FFE
7C3E
F83E
F83E
F83E
F83E
F83E
F800
F800
F800
F800
F800
F800
F800
F800
F800
F83E
F83E
F83E
F83E
F83E
F83E
7C3E
7FFE
7FFC
3FFC
1FF8
07E0
ENDCHAR
STARTCHAR 010D
ENCODING 269
SWIDTH 377 0
DWIDTH 17 0
BBX 15 39 1 0
BITMAP
3C3C
3E78
1EF0
0FE0
07C0
0000
0000
07E0
1FF8
3FFC
7FFC
7FFE
7C3E
F83E
F83E
F83E
F83E
F83E
F800
F800
F800
F800
F800
F800
F800
F800
F800
F83E
F83E
F83E
F83E
F83E
F83E
7C3E
7FFE
7FFC
3FFC
1FF8
07E0
ENDCHAR
STARTCHAR 010E
ENCODING 270
SWIDTH 400 0
DWIDTH 18 0
BBX 15 38 2 0
BITMAP
78F8
3CF0
1FE0
0FC0
0780
0000
FFE0
FFF8
FFFC
FFFC
FFFE
F83E
F83E
F83E
F83E
F83E
F83E
F83E
F83E
F83E
F83E
F83E
F83E
F83E
F83E
F83E
F83E
F83E
F83E
F83E
F83E
F83E
F83E
FFFE
FFFC
FFFC
FFF8
FFE0
ENDCHAR
STARTCHAR 010F
ENCODING 271
SWIDTH 400 0
DWIDTH 18 0
BBX 15 38 2 0
BITMAP
78F8
3CF0
1FE0
0FC0
0780
0000
FFE0
FFF8
FFFC
FFFC
FFFE
F83E
F83E
F83E
F83E
F83E
F83E
F83E
F83E
F83E
F83E
F83E
F83E
F83E
F83E
F83E
F83E
F83E
F83E
F83E
F83E
F83E
F83E
FFFE
FFFC
FFFC
FFF8
FFE0
ENDCHAR
STARTCHAR 0110
ENCODING 272
SWIDTH 400 0
DWIDTH 18 0
BBX 17 32 0 0
BITMAP
3FF800
3FFE00
3FFF00
3FFF00
3FFF80
3E0F80
3E0F80
3E0F80
3E0F80
3E0F80
3E0F80
3E0F80
3E0F80
3E0F80
FFCF80
FFCF80
FFCF80
FFCF80
FFCF80
3E0F80
3E0F80
3E0F80
3E0F80
3E0F80
3E0F80
3E0F80
3E0F80
3FFF80
3FFF00
3FFF00
3FFE00
3FF800
ENDCHAR
STARTCHAR 0111
ENCODING 273
SWIDTH 400 0
DWIDTH 18 0
BBX 17 32 0 0
BITMAP
3FF800
3FFE00
3FFF00
3FFF00
3FFF80
3E0F80
3E0F80
3E0F80
3E0F80
3E0F80
3E0F80
3E0F80
3E0F80
3E0F80
FFCF80
FFCF80
FFCF80
FFCF80
FFCF80
3E0F80
3E0F80
3E0F80
3E0F80
3E0F80
3E0F80
3E0F80
3E0F80
3FFF80
3FFF00
3FFF00
3FFE00
3FF800
ENDCHAR
STARTCHAR 0112
ENCODING 274
SWIDTH 377 0
DWIDTH 17 0
BBX 13 37 2 0
BITMAP
7FF0
7FF0
7FF0
7FF0
0000
FFF8
FFF8
FFF8
FFF8
FFF8
F800
F800
F800
F800
F800
F800
F800
F800
FFF0
FFF0
FFF0
FFF0
FFF0
F800
F800
F800
F800
F800
F800
F800
F800
F800
FFF8
FFF8
FFF8
FFF8
FFF8
ENDCHAR
STARTCHAR 0113
ENCODING 275
SWIDTH 377 0
DWIDTH 17 0
BBX 13 37 2 0
BITMAP
7FF0
7FF0
7FF0
7FF0
0000
FFF8
FFF8
FFF8
FFF8
FFF8
F800
F800
F800
F800
F800
F800
F800
F800
FFF0
FFF0
FFF0
FFF0
FFF0
F800
F800
F800
F800
F800
F800
F800
F800
F800
FFF8
FFF8
FFF8
FFF8
FFF8
ENDCHAR
STARTCHAR 0114
ENCODING 276
SWIDTH 377 0
DWIDTH 17 0
BBX 13 39 2 0
BITMAP
7070
70E0
38E0
3FE0
1FC0
0F80
0000
FFF8
FFF8
FFF8
FFF8
FFF8
F800
F800
F800
F800
F800
F800
F800
F800
FFF0
FFF0
FFF0
FFF0
FFF0
F800
F800
F800
F800
F800
F800
F800
F800
F800
FFF8
FFF8
FFF8
FFF8
FFF8
ENDCHAR
STARTCHAR 0115
ENCODING 277
SWIDTH 377 0
DWIDTH 17 0
BBX 13 39 2 0
BITMAP
7070
70E0
38E0
3FE0
1FC0
0F80
0000
FFF8
FFF8
FFF8
FFF8
FFF8
F800
F800
F800
F800
F800
F800
F800
F800
FFF0
FFF0
FFF0
FFF0
FFF0
F800
F800
F800
F800
F800
F800
F800
F800
F800
FFF8
FFF8
FFF8
FFF8
FFF8
ENDCHAR
STARTCHAR 0116
ENCODING 278
SWIDTH 377 0
DWIDTH 17 0
BBX 13 38 2 0
BITMAP
0F80
0F80
0F80
0F80
0F80
0000
FFF8
FFF8
FFF8
FFF8
FFF8
F800
F800
F800
F800
F800
F800
F800
F800
FFF0
FFF0
FFF0
FFF0
FFF0
F800
F800
F800
F800
F800
F800
F800
F800
F800
FFF8
FFF8
FFF8
FFF8
FFF8
ENDCHAR
STARTCHAR 0117
ENCODING 279
SWIDTH 377 0
DWIDTH 17 0
BBX 13 38 2 0
BITMAP
0F80
0F80
0F80
0F80
0F80
0000
FFF8
FFF8
FFF8
FFF8
FFF8
F800
F800
F800
F800
F800
F800
F800
F800
FFF0
FFF0
FFF0
FFF0
FFF0
F800
F800
F800
F800
F800
F800
F800
F800
F800
FFF8
FFF8
FFF8
FFF8
FFF8
ENDCHAR
STARTCHAR 0118
ENCODING 280
SWIDTH 377 0
DWIDTH 17 0
BBX 13 39 2 -7
BITMAP
FFF8
FFF8
FFF8
FFF8
FFF8
F800
F800
F800
F800
F800
F800
F800
F800
FFF0
FFF0
FFF0
FFF0
FFF0
F800
F800
F800
F800
F800
F800
F800
F800
F800
FFF8
FFF8
FFF8
FFF8
FFF8
0060
01C0
01C0
03C0
03F8
01F8
00F8
ENDCHAR
STARTCHAR 0119
ENCODING 281
SWIDTH 377 0
DWIDTH 17 0
BBX 13 39 2 -7
BITMAP
FFF8
FFF8
FFF8
FFF8
FFF8
F800
F800
F800
F800
F800
F800
F800
F800
FFF0
FFF0
FFF0
FFF0
FFF0
F800
F800
F800
F800
F800
F800
F800
F800
F800
FFF8
FFF8
FFF8
FFF8
FFF8
0060
01C0
01C0
03C0
03F8
01F8
00F8
ENDCHAR
STARTCHAR 011A
ENCODING 282
SWIDTH 377 0
DWIDTH 17 0
BBX 13 38 2 0
BITMAP
F8F8
3DE0
3FC0
1FC0
0F80
0000
FFF8
FFF8
FFF8
FFF8
FFF8
F800
F800
F800
F800
F800
F800
F800
F800
FFF0
FFF0
FFF0
FFF0
FFF0
F800
F800
F800
F800
F800
F800
F800
F800
F800
FFF8
FFF8
FFF8
FFF8
FFF8
ENDCHAR
STARTCHAR 011B
ENCODING 283
SWIDTH 377 0
DWIDTH 17 0
BBX 13 38 2 0
BITMAP
F8F8
3DE0
3FC0
1FC0
0F80
0000
FFF8
FFF8
FFF8
FFF8
FFF8
F800
F800
F800
F800
F800
F800
F800
F800
FFF0
FFF0
FFF0
FFF0
FFF0
F800
F800
F800
F800
F800
F800
F800
F800
F800
FFF8
FFF8
FFF8
FFF8
FFF8
ENDCHAR
STARTCHAR 011C
ENCODING 284
SWIDTH 400 0
DWIDTH 18 0
BBX 15 39 1 0
BITMAP
07C0
07E0
0FF0
1EF8
3C7C
0000
0000
07E0
1FF8
3FFC
7FFC
7FFE
7C3E
F83E
F83E
F83E
F83E
F83E
F800
F800
F800
F8FE
F8FE
F8FE
F8FE
F8FE
F83E
F83E
F83E
F83E
F83E
F83E
F83E
7C3E
7FFE
7FFC
3FFC
1FF8
07E0
ENDCHAR
STARTCHAR 011D
ENCODING 285
SWIDTH 400 0
DWIDTH 18 0
BBX 15 39 1 0
BITMAP
07C0
07E0
0FF0
1EF8
3C7C
0000
0000
07E0
1FF8
3FFC
7FFC
7FFE
7C3E
F83E
F83E
F83E
F83E
F83E
F800
F800
F800
F8FE
F8FE
F8FE
F8FE
F8FE
F83E
F83E
F83E
F83E
F83E
F83E
F83E
7C3E
7FFE
7FFC
3FFC
1FF8
07E0
ENDCHAR
STARTCHAR 011E
ENCODING 286
SWIDTH 400 0
DWIDTH 18 0
BBX 15 39 1 0
BITMAP
1C38
1C78
1FF0
0FF0
07C0
0000
0000
07E0
1FF8
3FFC
7FFC
7FFE
7C3E
F83E
F83E
F83E
F83E
F83E
F800
F800
F800
F8FE
F8FE
F8FE
F8FE
F8FE
F83E
F83E
F83E
F83E
F83E
F83E
F83E
7C3E
7FFE
7FFC
3FFC
1FF8
07E0
ENDCHAR
STARTCHAR 011F
ENCODING 287
SWIDTH 400 0
DWIDTH 18 0
BBX 15 39 1 0
BITMAP
1C38
1C78
1FF0
0FF0
07C0
0000
0000
07E0
1FF8
3FFC
7FFC
7FFE
7C3E
F83E
F83E
F83E
F83E
F83E
F800
F800
F800
F8FE
F8FE
F8FE
F8FE
F8FE
F83E
F83E
F83E
F83E
F83E
F83E
F83E
7C3E
7FFE
7FFC
3FFC
1FF8
07E0
ENDCHAR
STARTCHAR 0120
ENCODING 288
SWIDTH 400 0
DWIDTH 18 0
BBX 15 38 1 0
BITMAP
03C0
03C0
03C0
03C0
03C0
0000
07E0
1FF8
3FFC
7FFC
7FFE
7C3E
F83E
F83E
F83E
F83E
F83E
F800
F800
F800
F8FE
F8FE
F8FE
F8FE
F8FE
F83E
F83E
F83E
F83E
F83E
F83E
F83E
7C3E
7FFE
7FFC
3FFC
1FF8
07E0
ENDCHAR
STARTCHAR 0121
ENCODING 289
SWIDTH 400 0
DWIDTH 18 0
BBX 15 38 1 0
BITMAP
03C0
03C0
03C0
03C0
03C0
0000
07E0
1FF8
3FFC
7FFC
7FFE
7C3E
F83E
F83E
F83E
F83E
F83E
F800
F800
F800
F8FE
F8FE
F8FE
F8FE
F8FE
F83E
F83E
F83E
F83E
F83E
F83E
F83E
7C3E
7FFE
7FFC
3FFC
1FF8
07E0
ENDCHAR
STARTCHAR 0122
ENCODING 290
SWIDTH 400 0
DWIDTH 18 0
BBX 15 39 1 -7
BITMAP
07E0
1FF8
3FFC
7FFC
7FFE
7C3E
F83E
F83E
F83E
F83E
F83E
F800
F800
F800
F8FE
F8FE
F8FE
F8FE
F8FE
F83E
F83E
F83E
F83E
F83E
F83E
F83E
7C3E
7FFE
7FFC
3FFC
1FF8
07E0
0000
03C0
03C0
03C0
03C0
0380
0380
ENDCHAR
STARTCHAR 0123
ENCODING 291
SWIDTH 400 0
DWIDTH 18 0
BBX 15 39 1 -7
BITMAP
07E0
1FF8
3FFC
7FFC
7FFE
7C3E
F83E
F83E
F83E
F83E
F83E
F800
F800
F800
F8FE
F8FE
F8FE
F8FE
F8FE
F83E
F83E
F83E
F83E
F83E
F83E
F83E
7C3E
7FFE
7FFC
3FFC
1FF8
07E0
0000
03C0
03C0
03C0
03C0
0380
0380
ENDCHAR
STARTCHAR 0124
ENCODING 292
SWIDTH 422 0
DWIDTH 19 0
BBX 15 38 2 0
BITMAP
07C0
0FE0
1EF0
3E78
7C3C
0000
F83E
F83E
F83E
F83E
F83E
F83E
F83E
F83E
F83E
F83E
F83E
F83E
F83E
F83E
FFFE
FFFE
FFFE
FFFE
FFFE
F83E
F83E
F83E
F83E
F83E
F83E
F83E
F83E
F83E
F83E
F83E
F83E
F83E
ENDCHAR
STARTCHAR 0125
ENCODING 293
SWIDTH 422 0
DWIDTH 19 0
BBX 15 38 2 0
BITMAP
07C0
0FE0
1EF0
3E78
7C3C
0000
F83E
F83E
F83E
F83E
F83E
F83E
F83E
F83E
F83E
F83E
F83E
F83E
F83E
F83E
FFFE
FFFE
FFFE
FFFE
FFFE
F83E
F83E
F83E
F83E
F83E
F83E
F83E
F83E
F83E
F83E
F83E
F83E
F83E
ENDCHAR
STARTCHAR 0126
ENCODING 294
SWIDTH 444 0
DWIDTH 20 0
BBX 19 32 0 0
BITMAP
3E07C0
3E07C0
3E07C0
3E07C0
3E07C0
FFFFE0
FFFFE0
FFFFE0
FFFFE0
3E07C0
3E07C0
3E07C0
3E07C0
3E07C0
3FFFC0
3FFFC0
3FFFC0
3FFFC0
3FFFC0
3E07C0
3E07C0
3E07C0
3E07C0
3E07C0
3E07C0
3E07C0
3E07C0
3E07C0
3E07C0
3E07C0
3E07C0
3E07C0
ENDCHAR
STARTCHAR 0127
ENCODING 295
SWIDTH 444 0
DWIDTH 20 0
BBX 19 32 0 0
BITMAP
3E07C0
3E07C0
3E07C0
3E07C0
3E07C0
FFFFE0
FFFFE0
FFFFE0
FFFFE0
3E07C0
3E07C0
3E07C0
3E07C0
3E07C0
3FFFC0
3FFFC0
3FFFC0
3FFFC0
3FFFC0
3E07C0
3E07C0
3E07C0
3E07C0
3E07C0
3E07C0
3E07C0
3E07C0
3E07C0
3E07C0
3E07C0
3E07C0
3E07C0
ENDCHAR
STARTCHAR 0128
ENCODING 296
SWIDTH 200 0
DWIDTH 9 0
BBX 12 38 -2 0
BITMAP
3C60
7FF0
FFF0
63E0
0000
0000
0F80
0F80
0F80
0F80
0F80
0F80
0F80
0F80
0F80
0F80
0F80
0F80
0F80
0F80
0F80
0F80
0F80
0F80
0F80
0F80
0F80
0F80
0F80
0F80
0F80
0F80
0F80
0F80
0F80
0F80
0F80
0F80
ENDCHAR
STARTCHAR 0129
ENCODING 297
SWIDTH 200 0
DWIDTH 9 0
BBX 12 38 -2 0
BITMAP
3C60
7FF0
FFF0
63E0
0000
0000
0F80
0F80
0F80
0F80
0F80
0F80
0F80
0F80
0F80
0F80
0F80
0F80
0F80
0F80
0F80
0F80
0F80
0F80
0F80
0F80
0F80
0F80
0F80
0F80
0F80
0F80
0F80
0F80
0F80
0F80
0F80
0F80
ENDCHAR
STARTCHAR 012A
ENCODING 298
SWIDTH 200 0
DWIDTH 9 0
BBX 10 37 -1 0
BITMAP
FFC0
FFC0
FFC0
FFC0
0000
1F00
1F00
1F00
1F00
1F00
1F00
1F00
1F00
1F00
1F00
1F00
1F00
1F00
1F00
1F00
1F00
1F00
1F00
1F00
1F00
1F00
1F00
1F00
1F00
1F00
1F00
1F00
1F00
1F00
1F00
1F00
1F00
ENDCHAR
STARTCHAR 012B
ENCODING 299
SWIDTH 200 0
DWIDTH 9 0
BBX 10 37 -1 0
BITMAP
FFC0
FFC0
FFC0
FFC0
0000
1F00
1F00
1F00
1F00
1F00
1F00
1F00
1F00
1F00
1F00
1F00
1F00
1F00
1F00
1F00
1F00
1F00
1F00
1F00
1F00
1F00
1F00
1F00
1F00
1F00
1F00
1F00
1F00
1F00
1F00
1F00
1F00
ENDCHAR
STARTCHAR 012C
ENCODING 300
SWIDTH 200 0
DWIDTH 9 0
BBX 10 39 -1 0
BITMAP
E1C0
E1C0
F1C0
7FC0
7F80
1F00
0000
1F00
1F00
1F00
1F00
1F00
1F00
1F00
1F00
1F00
1F00
1F00
1F00
1F00
1F00
1F00
1F00
1F00
1F00
1F00
1F00
1F00
1F00
1F00
1F00
1F00
1F00
1F00
1F00
1F00
1F00
1F00
1F00
ENDCHAR
STARTCHAR 012D
ENCODING 301
SWIDTH 200 0
DWIDTH 9 0
BBX 10 39 -1 0
BITMAP
E1C0
E1C0
F1C0
7FC0
7F80
1F00
0000
1F00
1F00
1F00
1F00
1F00
1F00
1F00
1F00
1F00
1F00
1F00
1F00
1F00
1F00
1F00
1F00
1F00
1F00
1F00
1F00
1F00
1F00
1F00
1F00
1F00
1F00
1F00
1F00
1F00
1F00
1F00
1F00
ENDCHAR
STARTCHAR 012E
ENCODING 302
SWIDTH 200 0
DWIDTH 9 0
BBX 7 39 1 -7
BITMAP
7C
7C
7C
7C
7C
7C
7C
7C
7C
7C
7C
7C
7C
7C
7C
7C
7C
7C
7C
7C
7C
7C
7C
7C
7C
7C
7C
7C
7C
7C
7C
7C
30
70
F0
F0
FE
FE
7C
ENDCHAR
STARTCHAR 012F
ENCODING 303
SWIDTH 200 0
DWIDTH 9 0
BBX 7 39 1 -7
BITMAP
7C
7C
7C
7C
7C
7C
7C
7C
7C
7C
7C
7C
7C
7C
7C
7C
7C
7C
7C
7C
7C
7C
7C
7C
7C
7C
7C
7C
7C
7C
7C
7C
30
70
F0
F0
FE
FE
7C
ENDCHAR
STARTCHAR 0130
ENCODING 304
SWIDTH 200 0
DWIDTH 9 0
BBX 5 38 2 0
BITMAP
F0
F0
F0
F0
F0
00
F8
F8
F8
F8
F8
F8
F8
F8
F8
F8
F8
F8
F8
F8
F8
F8
F8
F8
F8
F8
F8
F8
F8
F8
F8
F8
F8
F8
F8
F8
F8
F8
ENDCHAR
STARTCHAR 0131
ENCODING 305
SWIDTH 200 0
DWIDTH 9 0
BBX 5 32 2 0
BITMAP
F8
F8
F8
F8
F8
F8
F8
F8
F8
F8
F8
F8
F8
F8
F8
F8
F8
F8
F8
F8
F8
F8
F8
F8
F8
F8
F8
F8
F8
F8
F8
F8
ENDCHAR
STARTCHAR 0132
ENCODING 306
SWIDTH 444 0
DWIDTH 20 0
BBX 17 32 2 0
BITMAP
F80F80
F80F80
F80F80
F80F80
F80F80
F80F80
F80F80
F80F80
F80F80
F80F80
F80F80
F80F80
F80F80
F80F80
F80F80
F80F80
F80F80
F80F80
F80F80
F80F80
F80F80
F80F80
F80F80
F80F80
F80F00
F81F00
F81F00
F9FF00
F9FF00
F9FE00
F9FC00
F9F000
ENDCHAR
STARTCHAR 0133
ENCODING 307
SWIDTH 444 0
DWIDTH 20 0
BBX 17 32 2 0
BITMAP
F80F80
F80F80
F80F80
F80F80
F80F80
F80F80
F80F80
F80F80
F80F80
F80F80
F80F80
F80F80
F80F80
F80F80
F80F80
F80F80
F80F80
F80F80
F80F80
F80F80
F80F80
F80F80
F80F80
F80F80
F80F00
F81F00
F81F00
F9FF00
F9FF00
F9FE00
F9FC00
F9F000
ENDCHAR
STARTCHAR 0134
ENCODING 308
SWIDTH 266 0
DWIDTH 12 0
BBX 13 38 0 0
BITMAP
0F80
1FC0
3DE0
7CF0
F878
0000
07C0
07C0
07C0
07C0
07C0
07C0
07C0
07C0
07C0
07C0
07C0
07C0
07C0
07C0
07C0
07C0
07C0
07C0
07C0
07C0
07C0
07C0
07C0
07C0
07C0
07C0
07C0
FF80
FF80
FF80
FF00
FC00
ENDCHAR
STARTCHAR 0135
ENCODING 309
SWIDTH 266 0
DWIDTH 12 0
BBX 13 38 0 0
BITMAP
0F80
1FC0
3DE0
7CF0
F878
0000
07C0
07C0
07C0
07C0
07C0
07C0
07C0
07C0
07C0
07C0
07C0
07C0
07C0
07C0
07C0
07C0
07C0
07C0
07C0
07C0
07C0
07C0
07C0
07C0
07C0
07C0
07C0
FF80
FF80
FF80
FF00
FC00
ENDCHAR
STARTCHAR 0136
ENCODING 310
SWIDTH 422 0
DWIDTH 19 0
BBX 16 40 2 -8
BITMAP
F81F
F81E
F83E
F83E
F87C
F87C
F8F8
F8F8
F9F0
F9F0
FBE0
FBE0
FFC0
FFC0
FF80
FFC0
FFC0
FFC0
FFE0
FFE0
FDF0
F9F0
F9F0
F8F8
F8F8
F87C
F87C
F87C
F83E
F83E
F81F
F81F
0000
03C0
03C0
03C0
03C0
03C0
0180
0300
ENDCHAR
STARTCHAR 0137
ENCODING 311
SWIDTH 422 0
DWIDTH 19 0
BBX 16 40 2 -8
BITMAP
F81F
F81E
F83E
F83E
F87C
F87C
F8F8
F8F8
F9F0
F9F0
FBE0
FBE0
FFC0
FFC0
FF80
FFC0
FFC0
FFC0
FFE0
FFE0
FDF0
F9F0
F9F0
F8F8
F8F8
F87C
F87C
F87C
F83E
F83E
F81F
F81F
0000
03C0
03C0
03C0
03C0
03C0
0180
0300
ENDCHAR
STARTCHAR 0138
ENCODING 312
SWIDTH 422 0
DWIDTH 19 0
BBX 16 32 2 0
BITMAP
F81F
F81E
F83E
F83E
F87C
F87C
F8F8
F8F8
F9F0
F9F0
FBE0
FBE0
FFC0
FFC0
FF80
FFC0
FFC0
FFC0
FFE0
FFE0
FDF0
F9F0
F9F0
F8F8
F8F8
F87C
F87C
F87C
F83E
F83E
F81F
F81F
ENDCHAR
STARTCHAR 0139
ENCODING 313
SWIDTH 333 0
DWIDTH 15 0
BBX 13 38 2 0
BITMAP
0F80
1F00
1E00
3C00
7800
0000
F800
F800
F800
F800
F800
F800
F800
F800
F800
F800
F800
F800
F800
F800
F800
F800
F800
F800
F800
F800
F800
F800
F800
F800
F800
F800
F800
FFF8
FFF8
FFF8
FFF8
FFF8
ENDCHAR
STARTCHAR 013A
ENCODING 314
SWIDTH 333 0
DWIDTH 15 0
BBX 13 38 2 0
BITMAP
0F80
1F00
1E00
3C00
7800
0000
F800
F800
F800
F800
F800
F800
F800
F800
F800
F800
F800
F800
F800
F800
F800
F800
F800
F800
F800
F800
F800
F800
F800
F800
F800
F800
F800
FFF8
FFF8
FFF8
FFF8
FFF8
ENDCHAR
STARTCHAR 013B
ENCODING 315
SWIDTH 333 0
DWIDTH 15 0
BBX 13 40 2 -8
BITMAP
F800
F800
F800
F800
F800
F800
F800
F800
F800
F800
F800
F800
F800
F800
F800
F800
F800
F800
F800
F800
F800
F800
F800
F800
F800
F800
F800
FFF8
FFF8
FFF8
FFF8
FFF8
0000
0F00
0F00
0F00
0F00
0F00
0300
0600
ENDCHAR
STARTCHAR 013C
ENCODING 316
SWIDTH 333 0
DWIDTH 15 0
BBX 13 40 2 -8
BITMAP
F800
F800
F800
F800
F800
F800
F800
F800
F800
F800
F800
F800
F800
F800
F800
F800
F800
F800
F800
F800
F800
F800
F800
F800
F800
F800
F800
FFF8
FFF8
FFF8
FFF8
FFF8
0000
0F00
0F00
0F00
0F00
0F00
0300
0600
ENDCHAR
STARTCHAR 013D
ENCODING 317
SWIDTH 333 0
DWIDTH 15 0
BBX 13 32 2 0
BITMAP
F9F0
F9F0
F9F0
F9F0
F9F0
F870
F860
F860
F8C0
F800
F800
F800
F800
F800
F800
F800
F800
F800
F800
F800
F800
F800
F800
F800
F800
F800
F800
FFF8
FFF8
FFF8
FFF8
FFF8
ENDCHAR
STARTCHAR 013E
ENCODING 318
SWIDTH 333 0
DWIDTH 15 0
BBX 13 32 2 0
BITMAP
F9F0
F9F0
F9F0
F9F0
F9F0
F870
F860
F860
F8C0
F800
F800
F800
F800
F800
F800
F800
F800
F800
F800
F800
F800
F800
F800
F800
F800
F800
F800
FFF8
FFF8
FFF8
FFF8
FFF8
ENDCHAR
STARTCHAR 013F
ENCODING 319
SWIDTH 333 0
DWIDTH 15 0
BBX 13 32 2 0
BITMAP
F800
F800
F800
F800
F800
F800
F800
F800
F800
F800
F800
F800
F800
F800
F9F0
F9F0
F9F0
F9F0
F9F0
F800
F800
F800
F800
F800
F800
F800
F800
FFF8
FFF8
FFF8
FFF8
FFF8
ENDCHAR
STARTCHAR 0140
ENCODING 320
SWIDTH 333 0
DWIDTH 15 0
BBX 13 32 2 0
BITMAP
F800
F800
F800
F800
F800
F800
F800
F800
F800
F800
F800
F800
F800
F800
F9F0
F9F0
F9F0
F9F0
F9F0
F800
F800
F800
F800
F800
F800
F800
F800
FFF8
FFF8
FFF8
FFF8
FFF8
ENDCHAR
STARTCHAR 0141
ENCODING 321
SWIDTH 355 0
DWIDTH 16 0
BBX 15 32 0 0
BITMAP
3E00
3E00
3E00
3E00
3E00
3E00
3E00
3E00
3E00
3E00
3E08
3E18
3E38
3E78
3EF0
3FE0
3FC0
3FC0
3F80
3F00
3E00
3E00
7E00
FE00
FE00
FE00
BE00
BFFE
3FFE
3FFE
3FFE
3FFE
ENDCHAR
STARTCHAR 0142
ENCODING 322
SWIDTH 355 0
DWIDTH 16 0
BBX 15 32 0 0
BITMAP
3E00
3E00
3E00
3E00
3E00
3E00
3E00
3E00
3E00
3E00
3E08
3E18
3E38
3E78
3EF0
3FE0
3FC0
3FC0
3F80
3F00
3E00
3E00
7E00
FE00
FE00
FE00
BE00
BFFE
3FFE
3FFE
3FFE
3FFE
ENDCHAR
STARTCHAR 0143
ENCODING 323
SWIDTH 422 0
DWIDTH 19 0
BBX 15 38 2 0
BITMAP
00F8
01E0
03C0
0380
0700
0000
FC1E
FC1E
FE1E
FE1E
FE1E
FE1E
FF1E
FF1E
FF1E
FF1E
F79E
F79E
F79E
F7DE
F3DE
F3DE
F3DE
F3FE
F1FE
F1FE
F1FE
F0FE
F0FE
F0FE
F0FE
F07E
F07E
F07E
F07E
F03E
F03E
F03E
ENDCHAR
STARTCHAR 0144
ENCODING 324
SWIDTH 422 0
DWIDTH 19 0
BBX 15 38 2 0
BITMAP
00F8
01E0
03C0
0380
0700
0000
FC1E
FC1E
FE1E
FE1E
FE1E
FE1E
FF1E
FF1E
FF1E
FF1E
F79E
F79E
F79E
F7DE
F3DE
F3DE
F3DE
F3FE
F1FE
F1FE
F1FE
F0FE
F0FE
F0FE
F0FE
F07E
F07E
F07E
F07E
F03E
F03E
F03E
ENDCHAR
STARTCHAR 0145
ENCODING 325
SWIDTH 422 0
DWIDTH 19 0
BBX 15 40 2 -8
BITMAP
FC1E
FC1E
FE1E
FE1E
FE1E
FE1E
FF1E
FF1E
FF1E
FF1E
F79E
F79E
F79E
F7DE
F3DE
F3DE
F3DE
F3FE
F1FE
F1FE
F1FE
F0FE
F0FE
F0FE
F0FE
F07E
F07E
F07E
F07E
F03E
F03E
F03E
0000
03C0
03C0
03C0
03C0
03C0
0180
0300
ENDCHAR
STARTCHAR 0146
ENCODING 326
SWIDTH 422 0
DWIDTH 19 0
BBX 15 40 2 -8
BITMAP
FC1E
FC1E
FE1E
FE1E
FE1E
FE1E
FF1E
FF1E
FF1E
FF1E
F79E
F79E
F79E
F7DE
F3DE
F3DE
F3DE
F3FE
F1FE
F1FE
F1FE
F0FE
F0FE
F0FE
F0FE
F07E
F07E
F07E
F07E
F03E
F03E
F03E
0000
03C0
03C0
03C0
03C0
03C0
0180
0300
ENDCHAR
STARTCHAR 0147
ENCODING 327
SWIDTH 422 0
DWIDTH 19 0
BBX 15 38 2 0
BITMAP
7C7C
1EF8
0FF0
0FE0
07C0
0000
FC1E
FC1E
FE1E
FE1E
FE1E
FE1E
FF1E
FF1E
FF1E
FF1E
F79E
F79E
F79E
F7DE
F3DE
F3DE
F3DE
F3FE
F1FE
F1FE
F1FE
F0FE
F0FE
F0FE
F0FE
F07E
F07E
F07E
F07E
F03E
F03E
F03E
ENDCHAR
STARTCHAR 0148
ENCODING 328
SWIDTH 422 0
DWIDTH 19 0
BBX 15 38 2 0
BITMAP
7C7C
1EF8
0FF0
0FE0
07C0
0000
FC1E
FC1E
FE1E
FE1E
FE1E
FE1E
FF1E
FF1E
FF1E
FF1E
F79E
F79E
F79E
F7DE
F3DE
F3DE
F3DE
F3FE
F1FE
F1FE
F1FE
F0FE
F0FE
F0FE
F0FE
F07E
F07E
F07E
F07E
F03E
F03E
F03E
ENDCHAR
STARTCHAR 0149
ENCODING 329
SWIDTH 533 0
DWIDTH 24 0
BBX 23 32 0 0
BITMAP
F9F83E
F9FC3E
F9FC3E
F9FC3E
F9FC3E
31FE3E
31FE3E
71FE3E
61FE3E
01EF3E
01EF3E
01EF3E
01EFBE
01E7BE
01E7BE
01E7BE
01E3FE
01E3FE
01E3FE
01E3FE
01E1FE
01E1FE
01E1FE
01E1FE
01E0FE
01E0FE
01E0FE
01E0FE
01E07E
01E07E
01E07E
01E07E
ENDCHAR
STARTCHAR 014C
ENCODING 332
SWIDTH 400 0
DWIDTH 18 0
BBX 15 38 1 0
BITMAP
1FF8
1FF8
1FF8
1FF8
0000
0000
07E0
1FF8
3FFC
7FFC
7FFE
7C3E
F83E
F83E
F83E
F83E
F83E
F83E
F83E
F83E
F83E
F83E
F83E
F83E
F83E
F83E
F83E
F83E
F83E
F83E
F83E
F83E
7C3E
7FFE
7FFC
3FFC
1FF8
07E0
ENDCHAR
STARTCHAR 014D
ENCODING 333
SWIDTH 400 0
DWIDTH 18 0
BBX 15 38 1 0
BITMAP
1FF8
1FF8
1FF8
1FF8
0000
0000
07E0
1FF8
3FFC
7FFC
7FFE
7C3E
F83E
F83E
F83E
F83E
F83E
F83E
F83E
F83E
F83E
F83E
F83E
F83E
F83E
F83E
F83E
F83E
F83E
F83E
F83E
F83E
7C3E
7FFE
7FFC
3FFC
1FF8
07E0
ENDCHAR
STARTCHAR 014E
ENCODING 334
SWIDTH 400 0
DWIDTH 18 0
BBX 15 39 1 0
BITMAP
1C38
1C38
1FF8
0FF0
07E0
0000
0000
07E0
1FF8
3FFC
7FFC
7FFE
7C3E
F83E
F83E
F83E
F83E
F83E
F83E
F83E
F83E
F83E
F83E
F83E
F83E
F83E
F83E
F83E
F83E
F83E
F83E
F83E
F83E
7C3E
7FFE
7FFC
3FFC
1FF8
07E0
ENDCHAR
STARTCHAR 014F
ENCODING 335
SWIDTH 400 0
DWIDTH 18 0
BBX 15 39 1 0
BITMAP
1C38
1C38
1FF8
0FF0
07E0
0000
0000
07E0
1FF8
3FFC
7FFC
7FFE
7C3E
F83E
F83E
F83E
F83E
F83E
F83E
F83E
F83E
F83E
F83E
F83E
F83E
F83E
F83E
F83E
F83E
F83E
F83E
F83E
F83E
7C3E
7FFE
7FFC
3FFC
1FF8
07E0
ENDCHAR
STARTCHAR 0150
ENCODING 336
SWIDTH 400 0
DWIDTH 18 0
BBX 15 39 1 0
BITMAP
079E
0FBC
0F3C
1E78
1C70
0000
0000
07E0
1FF8
3FFC
7FFC
7FFE
7C3E
F83E
F83E
F83E
F83E
F83E
F83E
F83E
F83E
F83E
F83E
F83E
F83E
F83E
F83E
F83E
F83E
F83E
F83E
F83E
F83E
7C3E
7FFE
7FFC
3FFC
1FF8
07E0
ENDCHAR
STARTCHAR 0151
ENCODING 337
SWIDTH 400 0
DWIDTH 18 0
BBX 15 39 1 0
BITMAP
079E
0FBC
0F3C
1E78
1C70
0000
0000
07E0
1FF8
3FFC
7FFC
7FFE
7C3E
F83E
F83E
F83E
F83E
F83E
F83E
F83E
F83E
F83E
F83E
F83E
F83E
F83E
F83E
F83E
F83E
F83E
F83E
F83E
F83E
7C3E
7FFE
7FFC
3FFC
1FF8
07E0
ENDCHAR
STARTCHAR 0152
ENCODING 338
SWIDTH 577 0
DWIDTH 26 0
BBX 24 32 1 0
BITMAP
07FFFF
1FFFFF
3FFFFF
7FFFFF
7FFFFF
7C1F00
F81F00
F81F00
F81F00
F81F00
F81F00
F81F00
F81F00
F81FFC
F81FFC
F81FFC
F81FFC
F81FFC
F81F00
F81F00
F81F00
F81F00
F81F00
F81F00
F81F00
F81F00
7C1F00
7FFFFF
7FFFFF
3FFFFF
1FFFFF
0FFFFF
ENDCHAR
STARTCHAR 0153
ENCODING 339
SWIDTH 577 0
DWIDTH 26 0
BBX 24 32 1 0
BITMAP
07FFFF
1FFFFF
3FFFFF
7FFFFF
7FFFFF
7C1F00
F81F00
F81F00
F81F00
F81F00
F81F00
F81F00
F81F00
F81FFC
F81FFC
F81FFC
F81FFC
F81FFC
F81F00
F81F00
F81F00
F81F00
F81F00
F81F00
F81F00
F81F00
7C1F00
7FFFFF
7FFFFF
3FFFFF
1FFFFF
0FFFFF
ENDCHAR
STARTCHAR 0154
ENCODING 340
SWIDTH 400 0
DWIDTH 18 0
BBX 15 38 2 0
BITMAP
01F0
03E0
03C0
0780
0F00
0000
FFE0
FFF0
FFF8
FFFC
FFFC
F87C
F83E
F83E
F83E
F83E
F83E
F83E
F87C
F87C
FFFC
FFF8
FFF0
FFF8
FFFC
F8FC
F87C
F83E
F83E
F83E
F83E
F83E
F83E
F83E
F83E
F83E
F83E
F83E
ENDCHAR
STARTCHAR 0155
ENCODING 341
SWIDTH 400 0
DWIDTH 18 0
BBX 15 38 2 0
BITMAP
01F0
03E0
03C0
0780
0F00
0000
FFE0
FFF0
FFF8
FFFC
FFFC
F87C
F83E
F83E
F83E
F83E
F83E
F83E
F87C
F87C
FFFC
FFF8
FFF0
FFF8
FFFC
F8FC
F87C
F83E
F83E
F83E
F83E
F83E
F83E
F83E
F83E
F83E
F83E
F83E
ENDCHAR
STARTCHAR 0156
ENCODING 342
SWIDTH 400 0
DWIDTH 18 0
BBX 15 40 2 -8
BITMAP
FFE0
FFF0
FFF8
FFFC
FFFC
F87C
F83E
F83E
F83E
F83E
F83E
F83E
F87C
F87C
FFFC
FFF8
FFF0
FFF8
FFFC
F8FC
F87C
F83E
F83E
F83E
F83E
F83E
F83E
F83E
F83E
F83E
F83E
F83E
0000
0780
0780
0780
0780
0780
0300
0300
ENDCHAR
STARTCHAR 0157
ENCODING 343
SWIDTH 400 0
DWIDTH 18 0
BBX 15 40 2 -8
BITMAP
FFE0
FFF0
FFF8
FFFC
FFFC
F87C
F83E
F83E
F83E
F83E
F83E
F83E
F87C
F87C
FFFC
FFF8
FFF0
FFF8
FFFC
F8FC
F87C
F83E
F83E
F83E
F83E
F83E
F83E
F83E
F83E
F83E
F83E
F83E
0000
0780
0780
0780
0780
0780
0300
0300
ENDCHAR
STARTCHAR 0158
ENCODING 344
SWIDTH 400 0
DWIDTH 18 0
BBX 15 38 2 0
BITMAP
78F8
3CF0
1FE0
0FC0
0780
0000
FFE0
FFF0
FFF8
FFFC
FFFC
F87C
F83E
F83E
F83E
F83E
F83E
F83E
F87C
F87C
FFFC
FFF8
FFF0
FFF8
FFFC
F8FC
F87C
F83E
F83E
F83E
F83E
F83E
F83E
F83E
F83E
F83E
F83E
F83E
ENDCHAR
STARTCHAR 0159
ENCODING 345
SWIDTH 400 0
DWIDTH 18 0
BBX 15 38 2 0
BITMAP
78F8
3CF0
1FE0
0FC0
0780
0000
FFE0
FFF0
FFF8
FFFC
FFFC
F87C
F83E
F83E
F83E
F83E
F83E
F83E
F87C
F87C
FFFC
FFF8
FFF0
FFF8
FFFC
F8FC
F87C
F83E
F83E
F83E
F83E
F83E
F83E
F83E
F83E
F83E
F83E
F83E
ENDCHAR
STARTCHAR 015A
ENCODING 346
SWIDTH 377 0
DWIDTH 17 0
BBX 15 39 1 0
BITMAP
00F8
01F0
03E0
03C0
0780
0000
0000
0FE0
1FF0
3FF8
7FFC
7FFC
FC3E
F83E
F83E
F83E
F800
FC00
7E00
7E00
3F00
3F80
1FE0
0FF0
07F0
01F8
00FC
00FC
007C
F83E
F83E
F83E
F83E
F87E
FFFC
7FFC
3FF8
3FF0
0FE0
ENDCHAR
STARTCHAR 015B
ENCODING 347
SWIDTH 377 0
DWIDTH 17 0
BBX 15 39 1 0
BITMAP
00F8
01F0
03E0
03C0
0780
0000
0000
0FE0
1FF0
3FF8
7FFC
7FFC
FC3E
F83E
F83E
F83E
F800
FC00
7E00
7E00
3F00
3F80
1FE0
0FF0
07F0
01F8
00FC
00FC
007C
F83E
F83E
F83E
F83E
F87E
FFFC
7FFC
3FF8
3FF0
0FE0
ENDCHAR
STARTCHAR 015C
ENCODING 348
SWIDTH 377 0
DWIDTH 17 0
BBX 15 39 1 0
BITMAP
07C0
0FE0
1FE0
3EF0
7C7C
0000
0000
0FE0
1FF0
3FF8
7FFC
7FFC
FC3E
F83E
F83E
F83E
F800
FC00
7E00
7E00
3F00
3F80
1FE0
0FF0
07F0
01F8
00FC
00FC
007C
F83E
F83E
F83E
F83E
F87E
FFFC
7FFC
3FF8
3FF0
0FE0
ENDCHAR
STARTCHAR 015D
ENCODING 349
SWIDTH 377 0
DWIDTH 17 0
BBX 15 39 1 0
BITMAP
07C0
0FE0
1FE0
3EF0
7C7C
0000
0000
0FE0
1FF0
3FF8
7FFC
7FFC
FC3E
F83E
F83E
F83E
F800
FC00
7E00
7E00
3F00
3F80
1FE0
0FF0
07F0
01F8
00FC
00FC
007C
F83E
F83E
F83E
F83E
F87E
FFFC
7FFC
3FF8
3FF0
0FE0
ENDCHAR
STARTCHAR 015E
ENCODING 350
SWIDTH 377 0
DWIDTH 17 0
BBX 15 39 1 -7
BITMAP
0FE0
1FF0
3FF8
7FFC
7FFC
FC3E
F83E
F83E
F83E
F800
FC00
7C00
7E00
3F00
3F80
1FC0
0FE0
07F0
01F8
00FC
00FC
007C
F83E
F83E
F83E
F83E
F87E
FFFC
7FFC
7FF8
3FF8
0FE0
0300
0300
03E0
00F0
1CF0
1FE0
07C0
ENDCHAR
STARTCHAR 015F
ENCODING 351
SWIDTH 377 0
DWIDTH 17 0
BBX 15 39 1 -7
BITMAP
0FE0
1FF0
3FF8
7FFC
7FFC
FC3E
F83E
F83E
F83E
F800
FC00
7C00
7E00
3F00
3F80
1FC0
0FE0
07F0
01F8
00FC
00FC
007C
F83E
F83E
F83E
F83E
F87E
FFFC
7FFC
7FF8
3FF8
0FE0
0300
0300
03E0
00F0
1CF0
1FE0
07C0
ENDCHAR
STARTCHAR 0160
ENCODING 352
SWIDTH 377 0
DWIDTH 17 0
BBX 15 39 1 0
BITMAP
787C
3C78
1EF0
0FE0
07C0
0000
0000
0FE0
1FF0
3FF8
7FFC
7FFC
FC3E
F83E
F83E
F83E
F800
FC00
7E00
7E00
3F00
3F80
1FE0
0FF0
07F0
01F8
00FC
00FC
007C
F83E
F83E
F83E
F83E
F87E
FFFC
7FFC
3FF8
3FF0
0FE0
ENDCHAR
STARTCHAR 0161
ENCODING 353
SWIDTH 377 0
DWIDTH 17 0
BBX 15 39 1 0
BITMAP
787C
3C78
1EF0
0FE0
07C0
0000
0000
0FE0
1FF0
3FF8
7FFC
7FFC
FC3E
F83E
F83E
F83E
F800
FC00
7E00
7E00
3F00
3F80
1FE0
0FF0
07F0
01F8
00FC
00FC
007C
F83E
F83E
F83E
F83E
F87E
FFFC
7FFC
3FF8
3FF0
0FE0
ENDCHAR
STARTCHAR 0162
ENCODING 354
SWIDTH 355 0
DWIDTH 16 0
BBX 16 40 0 -8
BITMAP
FFFF
FFFF
FFFF
FFFF
FFFF
03C0
03C0
03C0
03C0
03C0
03C0
03C0
03C0
03C0
03C0
03C0
03C0
03C0
03C0
03C0
03C0
03C0
03C0
03C0
03C0
03C0
03C0
03C0
03C0
03C0
03C0
03C0
0180
0180
01E0
00F0
0E70
0EF0
0FE0
03C0
ENDCHAR
STARTCHAR 0163
ENCODING 355
SWIDTH 355 0
DWIDTH 16 0
BBX 16 40 0 -8
BITMAP
FFFF
FFFF
FFFF
FFFF
FFFF
03C0
03C0
03C0
03C0
03C0
03C0
03C0
03C0
03C0
03C0
03C0
03C0
03C0
03C0
03C0
03C0
03C0
03C0
03C0
03C0
03C0
03C0
03C0
03C0
03C0
03C0
03C0
0180
0180
01E0
00F0
0E70
0EF0
0FE0
03C0
ENDCHAR
STARTCHAR 0164
ENCODING 356
SWIDTH 355 0
DWIDTH 16 0
BBX 16 38 0 0
BITMAP
3C3C
1E78
0FF0
07E0
03C0
0000
FFFF
FFFF
FFFF
FFFF
FFFF
03C0
03C0
03C0
03C0
03C0
03C0
03C0
03C0
03C0
03C0
03C0
03C0
03C0
03C0
03C0
03C0
03C0
03C0
03C0
03C0
03C0
03C0
03C0
03C0
03C0
03C0
03C0
ENDCHAR
STARTCHAR 0165
ENCODING 357
SWIDTH 355 0
DWIDTH 16 0
BBX 16 38 0 0
BITMAP
3C3C
1E78
0FF0
07E0
03C0
0000
FFFF
FFFF
FFFF
FFFF
FFFF
03C0
03C0
03C0
03C0
03C0
03C0
03C0
03C0
03C0
03C0
03C0
03C0
03C0
03C0
03C0
03C0
03C0
03C0
03C0
03C0
03C0
03C0
03C0
03C0
03C0
03C0
03C0
ENDCHAR
STARTCHAR 0166
ENCODING 358
SWIDTH 355 0
DWIDTH 16 0
BBX 16 32 0 0
BITMAP
FFFF
FFFF
FFFF
FFFF
FFFF
03C0
03C0
03C0
03C0
03C0
1FF8
1FF8
1FF8
1FF8
03C0
03C0
03C0
03C0
03C0
03C0
03C0
03C0
03C0
03C0
03C0
03C0
03C0
03C0
03C0
03C0
03C0
03C0
ENDCHAR
STARTCHAR 0167
ENCODING 359
SWIDTH 355 0
DWIDTH 16 0
BBX 16 32 0 0
BITMAP
FFFF
FFFF
FFFF
FFFF
FFFF
03C0
03C0
03C0
03C0
03C0
1FF8
1FF8
1FF8
1FF8
03C0
03C0
03C0
03C0
03C0
03C0
03C0
03C0
03C0
03C0
03C0
03C0
03C0
03C0
03C0
03C0
03C0
03C0
ENDCHAR
STARTCHAR 0168
ENCODING 360
SWIDTH 400 0
DWIDTH 18 0
BBX 14 38 2 0
BITMAP
1E30
3FF8
7FF0
31E0
0000
0000
F83C
F83C
F83C
F83C
F83C
F83C
F83C
F83C
F83C
F83C
F83C
F83C
F83C
F83C
F83C
F83C
F83C
F83C
F83C
F83C
F83C
F83C
F83C
F83C
F83C
F83C
F87C
FFFC
FFF8
7FF8
3FF0
0FC0
ENDCHAR
STARTCHAR 0169
ENCODING 361
SWIDTH 400 0
DWIDTH 18 0
BBX 14 38 2 0
BITMAP
1E30
3FF8
7FF0
31E0
0000
0000
F83C
F83C
F83C
F83C
F83C
F83C
F83C
F83C
F83C
F83C
F83C
F83C
F83C
F83C
F83C
F83C
F83C
F83C
F83C
F83C
F83C
F83C
F83C
F83C
F83C
F83C
F87C
FFFC
FFF8
7FF8
3FF0
0FC0
ENDCHAR
STARTCHAR 016A
ENCODING 362
SWIDTH 400 0
DWIDTH 18 0
BBX 14 38 2 0
BITMAP
3FF0
3FF0
3FF0
3FF0
0000
0000
F83C
F83C
F83C
F83C
F83C
F83C
F83C
F83C
F83C
F83C
F83C
F83C
F83C
F83C
F83C
F83C
F83C
F83C
F83C
F83C
F83C
F83C
F83C
F83C
F83C
F83C
F87C
FFFC
FFF8
7FF8
3FF0
0FC0
ENDCHAR
STARTCHAR 016B
ENCODING 363
SWIDTH 400 0
DWIDTH 18 0
BBX 14 38 2 0
BITMAP
3FF0
3FF0
3FF0
3FF0
0000
0000
F83C
F83C
F83C
F83C
F83C
F83C
F83C
F83C
F83C
F83C
F83C
F83C
F83C
F83C
F83C
F83C
F83C
F83C
F83C
F83C
F83C
F83C
F83C
F83C
F83C
F83C
F87C
FFFC
FFF8
7FF8
3FF0
0FC0
ENDCHAR
STARTCHAR 016C
ENCODING 364
SWIDTH 400 0
DWIDTH 18 0
BBX 14 39 2 0
BITMAP
3870
3870
3FF0
1FE0
0FC0
0000
0000
F83C
F83C
F83C
F83C
F83C
F83C
F83C
F83C
F83C
F83C
F83C
F83C
F83C
F83C
F83C
F83C
F83C
F83C
F83C
F83C
F83C
F83C
F83C
F83C
F83C
F83C
F87C
FFFC
FFF8
7FF8
3FF0
0FC0
ENDCHAR
STARTCHAR 016D
ENCODING 365
SWIDTH 400 0
DWIDTH 18 0
BBX 14 39 2 0
BITMAP
3870
3870
3FF0
1FE0
0FC0
0000
0000
F83C
F83C
F83C
F83C
F83C
F83C
F83C
F83C
F83C
F83C
F83C
F83C
F83C
F83C
F83C
F83C
F83C
F83C
F83C
F83C
F83C
F83C
F83C
F83C
F83C
F83C
F87C
FFFC
FFF8
7FF8
3FF0
0FC0
ENDCHAR
STARTCHAR 016E
ENCODING 366
SWIDTH 400 0
DWIDTH 18 0
BBX 14 41 2 0
BITMAP
0780
0FC0
0CC0
1CE0
0CC0
0FC0
0780
0000
0000
F83C
F83C
F83C
F83C
F83C
F83C
F83C
F83C
F83C
F83C
F83C
F83C
F83C
F83C
F83C
F83C
F83C
F83C
F83C
F83C
F83C
F83C
F83C
F83C
F83C
F83C
F87C
FFFC
FFF8
7FF8
3FF0
0FC0
ENDCHAR
STARTCHAR 016F
ENCODING 367
SWIDTH 400 0
DWIDTH 18 0
BBX 14 41 2 0
BITMAP
0780
0FC0
0CC0
1CE0
0CC0
0FC0
0780
0000
0000
F83C
F83C
F83C
F83C
F83C
F83C
F83C
F83C
F83C
F83C
F83C
F83C
F83C
F83C
F83C
F83C
F83C
F83C
F83C
F83C
F83C
F83C
F83C
F83C
F83C
F83C
F87C
FFFC
FFF8
7FF8
3FF0
0FC0
ENDCHAR
STARTCHAR 0170
ENCODING 368
SWIDTH 400 0
DWIDTH 18 0
BBX 14 39 2 0
BITMAP
0FBC
0F7C
1E78
1CF0
38E0
0000
0000
F83C
F83C
F83C
F83C
F83C
F83C
F83C
F83C
F83C
F83C
F83C
F83C
F83C
F83C
F83C
F83C
F83C
F83C
F83C
F83C
F83C
F83C
F83C
F83C
F83C
F83C
F87C
FFFC
FFF8
7FF8
3FF0
0FC0
ENDCHAR
STARTCHAR 0171
ENCODING 369
SWIDTH 400 0
DWIDTH 18 0
BBX 14 39 2 0
BITMAP
0FBC
0F7C
1E78
1CF0
38E0
0000
0000
F83C
F83C
F83C
F83C
F83C
F83C
F83C
F83C
F83C
F83C
F83C
F83C
F83C
F83C
F83C
F83C
F83C
F83C
F83C
F83C
F83C
F83C
F83C
F83C
F83C
F83C
F87C
FFFC
FFF8
7FF8
3FF0
0FC0
ENDCHAR
STARTCHAR 0172
ENCODING 370
SWIDTH 400 0
DWIDTH 18 0
BBX 14 38 2 -6
BITMAP
F83C
F83C
F83C
F83C
F83C
F83C
F83C
F83C
F83C
F83C
F83C
F83C
F83C
F83C
F83C
F83C
F83C
F83C
F83C
F83C
F83C
F83C
F83C
F83C
F83C
F83C
F87C
FFFC
FFFC
7FF8
3FF0
0FE0
00C0
01C0
03C0
03F8
03F8
00F8
ENDCHAR
STARTCHAR 0173
ENCODING 371
SWIDTH 400 0
DWIDTH 18 0
BBX 14 38 2 -6
BITMAP
F83C
F83C
F83C
F83C
F83C
F83C
F83C
F83C
F83C
F83C
F83C
F83C
F83C
F83C
F83C
F83C
F83C
F83C
F83C
F83C
F83C
F83C
F83C
F83C
F83C
F83C
F87C
FFFC
FFFC
7FF8
3FF0
0FE0
00C0
01C0
03C0
03F8
03F8
00F8
ENDCHAR
STARTCHAR 0174
ENCODING 372
SWIDTH 555 0
DWIDTH 25 0
BBX 24 38 1 0
BITMAP
007C00
00FE00
01EF00
03E780
07C3C0
000000
F87C1F
F87C1E
F87E1E
F87E1E
F87E1E
F87E1E
F87E1E
F87E1E
787E3E
787E3E
7C7E3E
7CFE3C
7CFF3C
7CFF3C
7CFF3C
7CFF3C
7CFF3C
3CFF3C
3CEF7C
3EEF7C
3EEF78
3FEF78
3FE778
3FE7F8
3FE7F8
3FE7F8
1FE7F8
1FC7F8
1FC7F8
1FC7F0
1FC7F0
1FC3F0
ENDCHAR
STARTCHAR 0175
ENCODING 373
SWIDTH 555 0
DWIDTH 25 0
BBX 24 38 1 0
BITMAP
007C00
00FE00
01EF00
03E780
07C3C0
000000
F87C1F
F87C1E
F87E1E
F87E1E
F87E1E
F87E1E
F87E1E
F87E1E
787E3E
787E3E
7C7E3E
7CFE3C
7CFF3C
7CFF3C
7CFF3C
7CFF3C
7CFF3C
3CFF3C
3CEF7C
3EEF7C
3EEF78
3FEF78
3FE778
3FE7F8
3FE7F8
3FE7F8
1FE7F8
1FC7F8
1FC7F8
1FC7F0
1FC7F0
1FC3F0
ENDCHAR
STARTCHAR 0176
ENCODING 374
SWIDTH 400 0
DWIDTH 18 0
BBX 18 38 0 0
BITMAP
03F000
03F800
07FC00
0F3C00
1E1E00
000000
F807C0
7C0780
7C0F80
7C0F80
7E0F00
3E0F00
3E1F00
3E1E00
1F1E00
1F3E00
1F3E00
0F3C00
0FBC00
0FFC00
0FF800
07F800
07F800
07F800
03F000
03F000
03F000
03E000
03E000
03E000
03E000
03E000
03E000
03E000
03E000
03E000
03E000
03E000
ENDCHAR
STARTCHAR 0177
ENCODING 375
SWIDTH 400 0
DWIDTH 18 0
BBX 18 38 0 0
BITMAP
03F000
03F800
07FC00
0F3C00
1E1E00
000000
F807C0
7C0780
7C0F80
7C0F80
7E0F00
3E0F00
3E1F00
3E1E00
1F1E00
1F3E00
1F3E00
0F3C00
0FBC00
0FFC00
0FF800
07F800
07F800
07F800
03F000
03F000
03F000
03E000
03E000
03E000
03E000
03E000
03E000
03E000
03E000
03E000
03E000
03E000
ENDCHAR
STARTCHAR 0178
ENCODING 376
SWIDTH 400 0
DWIDTH 18 0
BBX 18 38 0 0
BITMAP
0F3E00
0F3E00
0F3E00
0F3E00
0F3E00
000000
F807C0
7C0780
7C0F80
7C0F80
7E0F00
3E0F00
3E1F00
3E1E00
1F1E00
1F3E00
1F3E00
0F3C00
0FBC00
0FFC00
0FF800
07F800
07F800
07F800
03F000
03F000
03F000
03E000
03E000
03E000
03E000
03E000
03E000
03E000
03E000
03E000
03E000
03E000
ENDCHAR
STARTCHAR 0179
ENCODING 377
SWIDTH 377 0
DWIDTH 17 0
BBX 15 38 1 0
BITMAP
01F8
01E0
03C0
0780
0700
0000
FFFE
FFFE
FFFE
FFFE
FFFE
007C
007C
00F8
00F8
01F0
01F0
01F0
03E0
03E0
07C0
07C0
07C0
0F80
0F80
1F00
1F00
3F00
3E00
3E00
7C00
7C00
FC00
FFFE
FFFE
FFFE
FFFE
FFFE
ENDCHAR
STARTCHAR 017A
ENCODING 378
SWIDTH 377 0
DWIDTH 17 0
BBX 15 38 1 0
BITMAP
01F8
01E0
03C0
0780
0700
0000
FFFE
FFFE
FFFE
FFFE
FFFE
007C
007C
00F8
00F8
01F0
01F0
01F0
03E0
03E0
07C0
07C0
07C0
0F80
0F80
1F00
1F00
3F00
3E00
3E00
7C00
7C00
FC00
FFFE
FFFE
FFFE
FFFE
FFFE
ENDCHAR
STARTCHAR 017B
ENCODING 379
SWIDTH 377 0
DWIDTH 17 0
BBX 15 38 1 0
BITMAP
07C0
07C0
07C0
07C0
07C0
0000
FFFE
FFFE
FFFE
FFFE
FFFE
007C
007C
00F8
00F8
01F0
01F0
01F0
03E0
03E0
07C0
07C0
07C0
0F80
0F80
1F00
1F00
3F00
3E00
3E00
7C00
7C00
FC00
FFFE
FFFE
FFFE
FFFE
FFFE
ENDCHAR
STARTCHAR 017C
ENCODING 380
SWIDTH 377 0
DWIDTH 17 0
BBX 15 38 1 0
BITMAP
07C0
07C0
07C0
07C0
07C0
0000
FFFE
FFFE
FFFE
FFFE
FFFE
007C
007C
00F8
00F8
01F0
01F0
01F0
03E0
03E0
07C0
07C0
07C0
0F80
0F80
1F00
1F00
3F00
3E00
3E00
7C00
7C00
FC00
FFFE
FFFE
FFFE
FFFE
FFFE
ENDCHAR
STARTCHAR 017D
ENCODING 381
SWIDTH 377 0
DWIDTH 17 0
BBX 15 38 1 0
BITMAP
7C7C
3EF0
1FE0
0FE0
07C0
0000
FFFE
FFFE
FFFE
FFFE
FFFE
007C
007C
00F8
00F8
01F0
01F0
01F0
03E0
03E0
07C0
07C0
07C0
0F80
0F80
1F00
1F00
3F00
3E00
3E00
7C00
7C00
FC00
FFFE
FFFE
FFFE
FFFE
FFFE
ENDCHAR
STARTCHAR 017E
ENCODING 382
SWIDTH 377 0
DWIDTH 17 0
BBX 15 38 1 0
BITMAP
7C7C
3EF0
1FE0
0FE0
07C0
0000
FFFE
FFFE
FFFE
FFFE
FFFE
007C
007C
00F8
00F8
01F0
01F0
01F0
03E0
03E0
07C0
07C0
07C0
0F80
0F80
1F00
1F00
3F00
3E00
3E00
7C00
7C00
FC00
FFFE
FFFE
FFFE
FFFE
FFFE
ENDCHAR
STARTCHAR 01FC
ENCODING 508
SWIDTH 577 0
DWIDTH 26 0
BBX 25 38 0 0
BITMAP
0007C000
000F8000
000F0000
001E0000
003C0000
00000000
00FFFF80
00FFFF80
00FFFF80
00FFFF80
01FFFF80
01FF0000
01FF0000
01FF0000
03FF0000
03FF0000
03DF0000
03DF0000
07DF0000
07DFFE00
079FFE00
079FFE00
0F9FFE00
0F9FFE00
0F1F0000
1F1F0000
1F1F0000
1F1F0000
1FFF0000
3FFF0000
3FFF0000
3FFF0000
3FFF0000
7C1FFF80
7C1FFF80
7C1FFF80
781FFF80
F81FFF80
ENDCHAR
STARTCHAR 01FD
ENCODING 509
SWIDTH 577 0
DWIDTH 26 0
BBX 25 38 0 0
BITMAP
0007C000
000F8000
000F0000
001E0000
003C0000
00000000
00FFFF80
00FFFF80
00FFFF80
00FFFF80
01FFFF80
01FF0000
01FF0000
01FF0000
03FF0000
03FF0000
03DF0000
03DF0000
07DF0000
07DFFE00
079FFE00
079FFE00
0F9FFE00
0F9FFE00
0F1F0000
1F1F0000
1F1F0000
1F1F0000
1FFF0000
3FFF0000
3FFF0000
3FFF0000
3FFF0000
7C1FFF80
7C1FFF80
7C1FFF80
781FFF80
F81FFF80
ENDCHAR
STARTCHAR 01FE
ENCODING 510
SWIDTH 400 0
DWIDTH 18 0
BBX 15 40 1 -1
BITMAP
00F8
00F0
01E0
03C0
0780
0004
0006
07E4
1FFC
3FFC
7FFC
7FFE
7C3E
F83E
F83E
F83E
F87E
F87E
F87E
F8FE
F8FE
F9BE
F9BE
F9BE
FB3E
FB3E
FB3E
FE3E
FE3E
FC3E
FC3E
FC3E
F83E
7C3E
7FFE
7FFC
3FFC
3FF8
67E0
6000
ENDCHAR
STARTCHAR 01FF
ENCODING 511
SWIDTH 400 0
DWIDTH 18 0
BBX 15 40 1 -1
BITMAP
00F8
00F0
01E0
03C0
0780
0004
0006
07E4
1FFC
3FFC
7FFC
7FFE
7C3E
F83E
F83E
F83E
F87E
F87E
F87E
F8FE
F8FE
F9BE
F9BE
F9BE
FB3E
FB3E
FB3E
FE3E
FE3E
FC3E
FC3E
FC3E
F83E
7C3E
7FFE
7FFC
3FFC
3FF8
67E0
6000
ENDCHAR
STARTCHAR 0218
ENCODING 536
SWIDTH 377 0
DWIDTH 17 0
BBX 15 39 1 -7
BITMAP
0FE0
1FF0
3FF8
7FFC
7FFC
FC3E
F83E
F83E
F83E
F800
FC00
7E00
7E00
3F00
3F80
1FE0
0FF0
07F0
01F8
00FC
00FC
007C
F83E
F83E
F83E
F83E
F87E
FFFC
7FFC
3FF8
3FF0
0FE0
0000
0780
0780
0780
0780
0780
0300
ENDCHAR
STARTCHAR 0219
ENCODING 537
SWIDTH 377 0
DWIDTH 17 0
BBX 15 39 1 -7
BITMAP
0FE0
1FF0
3FF8
7FFC
7FFC
FC3E
F83E
F83E
F83E
F800
FC00
7E00
7E00
3F00
3F80
1FE0
0FF0
07F0
01F8
00FC
00FC
007C
F83E
F83E
F83E
F83E
F87E
FFFC
7FFC
3FF8
3FF0
0FE0
0000
0780
0780
0780
0780
0780
0300
ENDCHAR
STARTCHAR 021A
ENCODING 538
SWIDTH 355 0
DWIDTH 16 0
BBX 16 40 0 -8
BITMAP
FFFF
FFFF
FFFF
FFFF
FFFF
03C0
03C0
03C0
03C0
03C0
03C0
03C0
03C0
03C0
03C0
03C0
03C0
03C0
03C0
03C0
03C0
03C0
03C0
03C0
03C0
03C0
03C0
03C0
03C0
03C0
03C0
03C0
0000
03C0
03C0
03C0
03C0
03C0
0180
0380
ENDCHAR
STARTCHAR 021B
ENCODING 539
SWIDTH 355 0
DWIDTH 16 0
BBX 16 40 0 -8
BITMAP
FFFF
FFFF
FFFF
FFFF
FFFF
03C0
03C0
03C0
03C0
03C0
03C0
03C0
03C0
03C0
03C0
03C0
03C0
03C0
03C0
03C0
03C0
03C0
03C0
03C0
03C0
03C0
03C0
03C0
03C0
03C0
03C0
03C0
0000
03C0
03C0
03C0
03C0
03C0
0180
0380
ENDCHAR
STARTCHAR 0237
ENCODING 567
SWIDTH 266 0
DWIDTH 12 0
BBX 10 32 0 0
BITMAP
07C0
07C0
07C0
07C0
07C0
07C0
07C0
07C0
07C0
07C0
07C0
07C0
07C0
07C0
07C0
07C0
07C0
07C0
07C0
07C0
07C0
07C0
07C0
07C0
07C0
07C0
07C0
FF80
FF80
FF80
FF00
FC00
ENDCHAR
STARTCHAR 02BC
ENCODING 700
SWIDTH 177 0
DWIDTH 8 0
BBX 5 9 2 23
BITMAP
F8
F8
F8
F8
F8
30
70
60
E0
ENDCHAR
STARTCHAR 02C6
ENCODING 710
SWIDTH 244 0
DWIDTH 11 0
BBX 13 5 -1 33
BITMAP
0F80
0FC0
1FE0
3DF0
F8F8
ENDCHAR
STARTCHAR 02C7
ENCODING 711
SWIDTH 244 0
DWIDTH 11 0
BBX 13 5 -1 33
BITMAP
F878
78F0
3DE0
1FC0
0F80
ENDCHAR
STARTCHAR 02D8
ENCODING 728
SWIDTH 244 0
DWIDTH 11 0
BBX 10 5 1 33
BITMAP
E1C0
E3C0
FF80
7F80
3E00
ENDCHAR
STARTCHAR 02D9
ENCODING 729
SWIDTH 244 0
DWIDTH 11 0
BBX 5 5 3 33
BITMAP
F8
F8
F8
F8
F8
ENDCHAR
STARTCHAR 02DA
ENCODING 730
SWIDTH 244 0
DWIDTH 11 0
BBX 7 7 2 33
BITMAP
3C
7E
E6
C6
EE
7E
38
ENDCHAR
STARTCHAR 02DB
ENCODING 731
SWIDTH 244 0
DWIDTH 11 0
BBX 7 7 2 -7
BITMAP
18
70
70
F0
FE
FE
3E
ENDCHAR
STARTCHAR 02DC
ENCODING 732
SWIDTH 244 0
DWIDTH 11 0
BBX 12 4 0 33
BITMAP
7C40
FFF0
FFE0
43C0
ENDCHAR
STARTCHAR 02DD
ENCODING 733
SWIDTH 244 0
DWIDTH 11 0
BBX 13 5 -1 33
BITMAP
3EF8
3DF0
79E0
73C0
E380
ENDCHAR
STARTCHAR 0401
ENCODING 1025
SWIDTH 377 0
DWIDTH 17 0
BBX 13 38 2 0
BITMAP
78F0
78F0
78F0
78F0
78F0
0000
FFF8
FFF8
FFF8
FFF8
FFF8
F800
F800
F800
F800
F800
F800
F800
F800
FFF0
FFF0
FFF0
FFF0
FFF0
F800
F800
F800
F800
F800
F800
F800
F800
F800
FFF8
FFF8
FFF8
FFF8
FFF8
ENDCHAR
STARTCHAR 0410
ENCODING 1040
SWIDTH 400 0
DWIDTH 18 0
BBX 18 32 0 0
BITMAP
07F800
07F800
07F800
07F800
07F800
07FC00
0FFC00
0FFC00
0FFC00
0F7C00
0F3C00
0F3E00
0F3E00
1F3E00
1F3E00
1E3E00
1E3E00
1E1F00
1E1F00
3E1F00
3E1F00
3E1F00
3FFF00
3FFF00
3FFF80
3FFF80
7FFF80
7C0F80
7C0F80
780F80
7807C0
F807C0
ENDCHAR
STARTCHAR 0411
ENCODING 1041
SWIDTH 422 0
DWIDTH 19 0
BBX 15 32 2 0
BITMAP
FFFC
FFFC
FFFC
FFFC
FFFC
F800
F800
F800
F800
F800
F800
F800
F800
FFE0
FFF8
FFFC
FFFC
FFFE
F83E
F83E
F83E
F83E
F83E
F83E
F83E
F83E
F83E
FFFE
FFFC
FFFC
FFF8
FFE0
ENDCHAR
STARTCHAR 0412
ENCODING 1042
SWIDTH 400 0
DWIDTH 18 0
BBX 15 32 2 0
BITMAP
FFE0
FFF0
FFF8
FFFC
FFFC
F87C
F83E
F83E
F83E
F83E
F83E
F87C
F87C
FFFC
FFF8
FFF0
FFF8
FFFC
F87E
F83E
F83E
F83E
F83E
F83E
F83E
F83E
F83E
FFFE
FFFC
FFFC
FFF8
FFE0
ENDCHAR
STARTCHAR 0413
ENCODING 1043
SWIDTH 355 0
DWIDTH 16 0
BBX 13 32 2 0
BITMAP
FFF8
FFF8
FFF8
FFF8
FFF8
F800
F800
F800
F800
F800
F800
F800
F800
F800
F800
F800
F800
F800
F800
F800
F800
F800
F800
F800
F800
F800
F800
F800
F800
F800
F800
F800
ENDCHAR
STARTCHAR 0414
ENCODING 1044
SWIDTH 488 0
DWIDTH 22 0
BBX 20 36 1 -4
BITMAP
0FFFC0
0FFFC0
0FFFC0
0FFFC0
0FFFC0
0F87C0
0F87C0
0F07C0
0F07C0
0F07C0
1F07C0
1F07C0
1F07C0
1F07C0
1F07C0
1F07C0
1F07C0
1F07C0
1F07C0
1F07C0
1F07C0
1F07C0
1F07C0
1F07C0
1F07C0
1E07C0
3E07C0
FFFFF0
FFFFF0
FFFFF0
FFFFF0
FFFFF0
F801F0
F801F0
F801F0
F801F0
ENDCHAR
STARTCHAR 0415
ENCODING 1045
SWIDTH 377 0
DWIDTH 17 0
BBX 13 32 2 0
BITMAP
FFF8
FFF8
FFF8
FFF8
FFF8
F800
F800
F800
F800
F800
F800
F800
F800
FFF0
FFF0
FFF0
FFF0
FFF0
F800
F800
F800
F800
F800
F800
F800
F800
F800
FFF8
FFF8
FFF8
FFF8
FFF8
ENDCHAR
STARTCHAR 0416
ENCODING 1046
SWIDTH 600 0
DWIDTH 27 0
BBX 27 32 0 0
BITMAP
FC1F03E0
7C1F07C0
3C1F07C0
3E1F0F80
3E1F0F80
1F1F1F00
1F1F1F00
0F9F1E00
0F9F3E00
07DF3E00
07DF7C00
03DF7C00
03FFF800
03FFF800
03FFF800
03FFFC00
07FFFC00
07FFFC00
07FFFE00
0F9FBE00
0F9F3E00
0F9F3E00
1F1F1F00
1F1F1F00
1F1F1F00
3F1F0F80
3E1F0F80
3E1F0F80
3E1F07C0
7C1F07C0
7C1F07C0
FC1F03E0
ENDCHAR
STARTCHAR 0417
ENCODING 1047
SWIDTH 400 0
DWIDTH 18 0
BBX 14 32 2 0
BITMAP
0FC0
3FF0
7FF8
FFF8
FFFC
F87C
F07C
F07C
F07C
F07C
007C
007C
00FC
07F8
07F0
07F0
07F8
07F8
007C
007C
007C
F07C
F07C
F07C
F07C
F07C
F87C
FFFC
FFF8
7FF8
3FF0
0FC0
ENDCHAR
STARTCHAR 0418
ENCODING 1048
SWIDTH 422 0
DWIDTH 19 0
BBX 16 32 2 0
BITMAP
F03F
F03F
F07F
F07F
F07F
F0FF
F0FF
F0FF
F1FF
F1FF
F1FF
F1FF
F3DF
F3DF
F3DF
F7DF
F79F
F79F
F79F
FF1F
FF1F
FF1F
FF1F
FE1F
FE1F
FE1F
FC1F
FC1F
FC1F
FC1F
F81F
F81F
ENDCHAR
STARTCHAR 0419
ENCODING 1049
SWIDTH 422 0
DWIDTH 19 0
BBX 16 39 2 0
BITMAP
1C38
1C38
1FF8
1FF0
0FE0
0100
0000
F03F
F03F
F07F
F07F
F07F
F0FF
F0FF
F0FF
F1FF
F1FF
F1FF
F1FF
F3DF
F3DF
F3DF
F7DF
F79F
F79F
F79F
FF1F
FF1F
FF1F
FF1F
FE1F
FE1F
FE1F
FC1F
FC1F
FC1F
FC1F
F81F
F81F
ENDCHAR
STARTCHAR 041A
ENCODING 1050
SWIDTH 422 0
DWIDTH 19 0
BBX 16 32 2 0
BITMAP
F81F
F81E
F83E
F83E
F87C
F87C
F8F8
F8F8
F9F0
F9F0
FBE0
FBE0
FFC0
FFC0
FF80
FFC0
FFC0
FFC0
FFE0
FFE0
FDF0
F9F0
F9F0
F8F8
F8F8
F87C
F87C
F87C
F83E
F83E
F81F
F81F
ENDCHAR
STARTCHAR 041B
ENCODING 1051
SWIDTH 444 0
DWIDTH 20 0
BBX 18 32 0 0
BITMAP
0FFFC0
0FFFC0
0FFFC0
0FFFC0
0FFFC0
0F87C0
0F87C0
0F87C0
0F87C0
0F87C0
0F87C0
0F87C0
0F87C0
0F87C0
0F87C0
0F87C0
0F87C0
0F87C0
0F87C0
0F87C0
0F07C0
0F07C0
0F07C0
1F07C0
1F07C0
1F07C0
1F07C0
FF07C0
FF07C0
FE07C0
FC07C0
F007C0
ENDCHAR
STARTCHAR 041C
ENCODING 1052
SWIDTH 533 0
DWIDTH 24 0
BBX 21 32 2 0
BITMAP
FE03F8
FE07F8
FE07F8
FE07F8
FE07F8
FF07F8
FF07F8
FF07F8
FF0FF8
FF0FF8
FF0FF8
FF0FF8
F78EF8
F78EF8
F79EF8
F79EF8
F79EF8
F79EF8
F3DCF8
F3DCF8
F3DCF8
F3FCF8
F3FCF8
F3FCF8
F1FCF8
F1F8F8
F1F8F8
F1F8F8
F1F8F8
F1F8F8
F0F8F8
F0F8F8
ENDCHAR
STARTCHAR 041D
ENCODING 1053
SWIDTH 422 0
DWIDTH 19 0
BBX 15 32 2 0
BITMAP
F83E
F83E
F83E
F83E
F83E
F83E
F83E
F83E
F83E
F83E
F83E
F83E
F83E
F83E
FFFE
FFFE
FFFE
FFFE
FFFE
F83E
F83E
F83E
F83E
F83E
F83E
F83E
F83E
F83E
F83E
F83E
F83E
F83E
ENDCHAR
STARTCHAR 041E
ENCODING 1054
SWIDTH 400 0
DWIDTH 18 0
BBX 15 32 1 0
BITMAP
07E0
1FF8
3FFC
7FFC
7FFE
7C3E
F83E
F83E
F83E
F83E
F83E
F83E
F83E
F83E
F83E
F83E
F83E
F83E
F83E
F83E
F83E
F83E
F83E
F83E
F83E
F83E
7C3E
7FFE
7FFC
3FFC
1FF8
07E0
ENDCHAR
STARTCHAR 041F
ENCODING 1055
SWIDTH 422 0
DWIDTH 19 0
BBX 15 32 2 0
BITMAP
FFFE
FFFE
FFFE
FFFE
FFFE
F83E
F83E
F83E
F83E
F83E
F83E
F83E
F83E
F83E
F83E
F83E
F83E
F83E
F83E
F83E
F83E
F83E
F83E
F83E
F83E
F83E
F83E
F83E
F83E
F83E
F83E
F83E
ENDCHAR
STARTCHAR 0420
ENCODING 1056
SWIDTH 377 0
DWIDTH 17 0
BBX 14 32 2 0
BITMAP
FFC0
FFF0
FFF8
FFFC
FFFC
F87C
F87C
F83C
F83C
F83C
F83C
F83C
F87C
F87C
F87C
FFFC
FFFC
FFF8
FFF0
FFC0
F800
F800
F800
F800
F800
F800
F800
F800
F800
F800
F800
F800
ENDCHAR
STARTCHAR 0421
ENCODING 1057
SWIDTH 377 0
DWIDTH 17 0
BBX 15 32 1 0
BITMAP
07E0
1FF8
3FFC
7FFC
7FFE
7C3E
F83E
F83E
F83E
F83E
F83E
F800
F800
F800
F800
F800
F800
F800
F800
F800
F83E
F83E
F83E
F83E
F83E
F83E
7C3E
7FFE
7FFC
3FFC
1FF8
07E0
ENDCHAR
STARTCHAR 0422
ENCODING 1058
SWIDTH 355 0
DWIDTH 16 0
BBX 16 32 0 0
BITMAP
FFFF
FFFF
FFFF
FFFF
FFFF
03C0
03C0
03C0
03C0
03C0
03C0
03C0
03C0
03C0
03C0
03C0
03C0
03C0
03C0
03C0
03C0
03C0
03C0
03C0
03C0
03C0
03C0
03C0
03C0
03C0
03C0
03C0
ENDCHAR
STARTCHAR 0423
ENCODING 1059
SWIDTH 400 0
DWIDTH 18 0
BBX 18 32 0 0
BITMAP
F807C0
7C07C0
7C0FC0
7C0F80
3C0F80
3E0F80
3E0F80
3E1F00
1E1F00
1F1F00
1F1F00
0F1F00
0F3E00
0FBE00
0FBE00
07BE00
07BC00
07BC00
03FC00
03FC00
03FC00
03F800
01F800
01F800
01F800
01F000
03F000
1FF000
1FE000
1FE000
1FC000
1F0000
ENDCHAR
STARTCHAR 0424
ENCODING 1060
SWIDTH 577 0
DWIDTH 26 0
BBX 24 32 1 0
BITMAP
003C00
003C00
003C00
003C00
07FFF0
1FFFF8
3FFFFC
7FFFFE
7FFFFE
7C3C3E
F83C1F
F83C1F
F83C1F
F83C1F
F83C1F
F83C1F
F83C1F
F83C1F
F83C1F
F83C1F
F83C1F
F83C1F
7C3C1F
7C3C3E
7FFFFE
7FFFFE
3FFFFC
1FFFF8
00FF80
003C00
003C00
003C00
ENDCHAR
STARTCHAR 0425
ENCODING 1061
SWIDTH 422 0
DWIDTH 19 0
BBX 18 32 1 0
BITMAP
F80780
7C0F80
7C0F00
7C0F00
3E1F00
3E1E00
3E1E00
3F3E00
1F3C00
1F3C00
1F7C00
0FF800
0FF800
0FF800
07F000
07F000
07F000
07F800
0FF800
0FF800
0F7C00
1F7C00
1E7C00
1E3E00
3E3E00
3C3E00
3C1F00
7C1F00
781F80
780F80
F80F80
F00FC0
ENDCHAR
STARTCHAR 0426
ENCODING 1062
SWIDTH 444 0
DWIDTH 20 0
BBX 18 36 2 -4
BITMAP
F83E00
F83E00
F83E00
F83E00
F83E00
F83E00
F83E00
F83E00
F83E00
F83E00
F83E00
F83E00
F83E00
F83E00
F83E00
F83E00
F83E00
F83E00
F83E00
F83E00
F83E00
F83E00
F83E00
F83E00
F83E00
F83E00
F83E00
FFFFC0
FFFFC0
FFFFC0
FFFFC0
FFFFC0
0007C0
0007C0
0007C0
0007C0
ENDCHAR
STARTCHAR 0427
ENCODING 1063
SWIDTH 422 0
DWIDTH 19 0
BBX 16 32 1 0
BITMAP
F81F
F81F
F81F
F81F
F81F
F81F
F81F
F81F
F81F
F81F
F81F
F81F
F81F
F81F
7C1F
7C3F
7FFF
7FFF
3FFF
1FFF
0F9F
001F
001F
001F
001F
001F
001F
001F
001F
001F
001F
001F
ENDCHAR
STARTCHAR 0428
ENCODING 1064
SWIDTH 600 0
DWIDTH 27 0
BBX 23 32 2 0
BITMAP
F87C3E
F87C3E
F87C3E
F87C3E
F87C3E
F87C3E
F87C3E
F87C3E
F87C3E
F87C3E
F87C3E
F87C3E
F87C3E
F87C3E
F87C3E
F87C3E
F87C3E
F87C3E
F87C3E
F87C3E
F87C3E
F87C3E
F87C3E
F87C3E
F87C3E
F87C3E
F87C3E
FFFFFE
FFFFFE
FFFFFE
FFFFFE
FFFFFE
ENDCHAR
STARTCHAR 0429
ENCODING 1065
SWIDTH 622 0
DWIDTH 28 0
BBX 25 36 2 -4
BITMAP
F87C3E00
F87C3E00
F87C3E00
F87C3E00
F87C3E00
F87C3E00
F87C3E00
F87C3E00
F87C3E00
F87C3E00
F87C3E00
F87C3E00
F87C3E00
F87C3E00
F87C3E00
F87C3E00
F87C3E00
F87C3E00
F87C3E00
F87C3E00
F87C3E00
F87C3E00
F87C3E00
F87C3E00
F87C3E00
F87C3E00
F87C3E00
FFFFFF80
FFFFFF80
FFFFFF80
FFFFFF80
FFFFFF80
00000780
00000780
00000780
00000780
ENDCHAR
STARTCHAR 042A
ENCODING 1066
SWIDTH 444 0
DWIDTH 20 0
BBX 19 32 0 0
BITMAP
FF8000
FF8000
FF8000
FF8000
FF8000
0F8000
0F8000
0F8000
0F8000
0F8000
0F8000
0F8000
0FE000
0FFF00
0FFF80
0FFFC0
0FFFC0
0F87C0
0F87C0
0F83E0
0F83E0
0F83E0
0F83E0
0F83E0
0F83E0
0F83E0
0F87C0
0FFFC0
0FFFC0
0FFF80
0FFF00
0FFC00
ENDCHAR
STARTCHAR 042B
ENCODING 1067
SWIDTH 577 0
DWIDTH 26 0
BBX 22 32 2 0
BITMAP
F8007C
F8007C
F8007C
F8007C
F8007C
F8007C
F8007C
F8007C
F8007C
F8007C
F8007C
F8007C
FE007C
FFE07C
FFF87C
FFF87C
FFFC7C
F87C7C
F87C7C
F87C7C
F83C7C
F83C7C
F83C7C
F83C7C
F83C7C
F87C7C
F87C7C
FFFC7C
FFFC7C
FFF87C
FFF07C
FFC07C
ENDCHAR
STARTCHAR 042C
ENCODING 1068
SWIDTH 400 0
DWIDTH 18 0
BBX 14 32 2 0
BITMAP
F800
F800
F800
F800
F800
F800
F800
F800
F800
F800
F800
F800
FE00
FFE0
FFF8
FFF8
FFFC
F87C
F87C
F87C
F83C
F83C
F83C
F83C
F83C
F87C
F87C
FFFC
FFFC
FFF8
FFF0
FFC0
ENDCHAR
STARTCHAR 042D
ENCODING 1069
SWIDTH 377 0
DWIDTH 17 0
BBX 15 32 1 0
BITMAP
0FE0
1FF0
3FF8
7FFC
7FFC
F87E
F83E
F83E
F83E
F83E
003E
003E
003E
07FE
07FE
07FE
07FE
07FE
003E
003E
F83E
F83E
F83E
F83E
F83E
F83E
F87E
7FFC
7FFC
3FF8
1FF0
0FE0
ENDCHAR
STARTCHAR 042E
ENCODING 1070
SWIDTH 600 0
DWIDTH 27 0
BBX 23 32 2 0
BITMAP
F807E0
F81FF8
F83FFC
F87FFE
F87FFE
F87C3E
F8F83E
F8F81E
F8F81E
F8F81E
F8F81E
F8F81E
F8F81E
FFF81E
FFF81E
FFF81E
FFF81E
FFF81E
F8F81E
F8F81E
F8F81E
F8F81E
F8F81E
F8F81E
F8F83E
F8783E
F87C3E
F87FFE
F87FFE
F83FFC
F81FF8
F807E0
ENDCHAR
STARTCHAR 042F
ENCODING 1071
SWIDTH 400 0
DWIDTH 18 0
BBX 15 32 1 0
BITMAP
0FFE
1FFE
3FFE
7FFE
7FFE
7C3E
FC3E
F83E
F83E
F83E
F83E
783E
7C3E
7C3E
3FFE
3FFE
0FFE
3FFE
7FFE
7E3E
7C3E
7C3E
F83E
F83E
F83E
F83E
F83E
F83E
F83E
F83E
F83E
F83E
ENDCHAR
STARTCHAR 0430
ENCODING 1072
SWIDTH 400 0
DWIDTH 18 0
BBX 18 32 0 0
BITMAP
07F800
07F800
07F800
07F800
07F800
07FC00
0FFC00
0FFC00
0FFC00
0F7C00
0F3C00
0F3E00
0F3E00
1F3E00
1F3E00
1E3E00
1E3E00
1E1F00
1E1F00
3E1F00
3E1F00
3E1F00
3FFF00
3FFF00
3FFF80
3FFF80
7FFF80
7C0F80
7C0F80
780F80
7807C0
F807C0
ENDCHAR
STARTCHAR 0431
ENCODING 1073
SWIDTH 422 0
DWIDTH 19 0
BBX 15 32 2 0
BITMAP
FFFC
FFFC
FFFC
FFFC
FFFC
F800
F800
F800
F800
F800
F800
F800
F800
FFE0
FFF8
FFFC
FFFC
FFFE
F83E
F83E
F83E
F83E
F83E
F83E
F83E
F83E
F83E
FFFE
FFFC
FFFC
FFF8
FFE0
ENDCHAR
STARTCHAR 0432
ENCODING 1074
SWIDTH 400 0
DWIDTH 18 0
BBX 15 32 2 0
BITMAP
FFE0
FFF0
FFF8
FFFC
FFFC
F87C
F83E
F83E
F83E
F83E
F83E
F87C
F87C
FFFC
FFF8
FFF0
FFF8
FFFC
F87E
F83E
F83E
F83E
F83E
F83E
F83E
F83E
F83E
FFFE
FFFC
FFFC
FFF8
FFE0
ENDCHAR
STARTCHAR 0433
ENCODING 1075
SWIDTH 355 0
DWIDTH 16 0
BBX 13 32 2 0
BITMAP
FFF8
FFF8
FFF8
FFF8
FFF8
F800
F800
F800
F800
F800
F800
F800
F800
F800
F800
F800
F800
F800
F800
F800
F800
F800
F800
F800
F800
F800
F800
F800
F800
F800
F800
F800
ENDCHAR
STARTCHAR 0434
ENCODING 1076
SWIDTH 488 0
DWIDTH 22 0
BBX 20 36 1 -4
BITMAP
0FFFC0
0FFFC0
0FFFC0
0FFFC0
0FFFC0
0F87C0
0F87C0
0F07C0
0F07C0
0F07C0
1F07C0
1F07C0
1F07C0
1F07C0
1F07C0
1F07C0
1F07C0
1F07C0
1F07C0
1F07C0
1F07C0
1F07C0
1F07C0
1F07C0
1F07C0
1E07C0
3E07C0
FFFFF0
FFFFF0
FFFFF0
FFFFF0
FFFFF0
F801F0
F801F0
F801F0
F801F0
ENDCHAR
STARTCHAR 0435
ENCODING 1077
SWIDTH 377 0
DWIDTH 17 0
BBX 13 32 2 0
BITMAP
FFF8
FFF8
FFF8
FFF8
FFF8
F800
F800
F800
F800
F800
F800
F800
F800
FFF0
FFF0
FFF0
FFF0
FFF0
F800
F800
F800
F800
F800
F800
F800
F800
F800
FFF8
FFF8
FFF8
FFF8
FFF8
ENDCHAR
STARTCHAR 0436
ENCODING 1078
SWIDTH 600 0
DWIDTH 27 0
BBX 27 32 0 0
BITMAP
FC1F03E0
7C1F07C0
3C1F07C0
3E1F0F80
3E1F0F80
1F1F1F00
1F1F1F00
0F9F1E00
0F9F3E00
07DF3E00
07DF7C00
03DF7C00
03FFF800
03FFF800
03FFF800
03FFFC00
07FFFC00
07FFFC00
07FFFE00
0F9FBE00
0F9F3E00
0F9F3E00
1F1F1F00
1F1F1F00
1F1F1F00
3F1F0F80
3E1F0F80
3E1F0F80
3E1F07C0
7C1F07C0
7C1F07C0
FC1F03E0
ENDCHAR
STARTCHAR 0437
ENCODING 1079
SWIDTH 400 0
DWIDTH 18 0
BBX 14 32 2 0
BITMAP
0FC0
3FF0
7FF8
FFF8
FFFC
F87C
F07C
F07C
F07C
F07C
007C
007C
00FC
07F8
07F0
07F0
07F8
07F8
007C
007C
007C
F07C
F07C
F07C
F07C
F07C
F87C
FFFC
FFF8
7FF8
3FF0
0FC0
ENDCHAR
STARTCHAR 0438
ENCODING 1080
SWIDTH 422 0
DWIDTH 19 0
BBX 16 32 2 0
BITMAP
F03F
F03F
F07F
F07F
F07F
F0FF
F0FF
F0FF
F1FF
F1FF
F1FF
F1FF
F3DF
F3DF
F3DF
F7DF
F79F
F79F
F79F
FF1F
FF1F
FF1F
FF1F
FE1F
FE1F
FE1F
FC1F
FC1F
FC1F
FC1F
F81F
F81F
ENDCHAR
STARTCHAR 0439
ENCODING 1081
SWIDTH 422 0
DWIDTH 19 0
BBX 16 39 2 0
BITMAP
1C38
1C38
1FF8
1FF0
0FE0
0100
0000
F03F
F03F
F07F
F07F
F07F
F0FF
F0FF
F0FF
F1FF
F1FF
F1FF
F1FF
F3DF
F3DF
F3DF
F7DF
F79F
F79F
F79F
FF1F
FF1F
FF1F
FF1F
FE1F
FE1F
FE1F
FC1F
FC1F
FC1F
FC1F
F81F
F81F
ENDCHAR
STARTCHAR 043A
ENCODING 1082
SWIDTH 422 0
DWIDTH 19 0
BBX 16 32 2 0
BITMAP
F81F
F81E
F83E
F83E
F87C
F87C
F8F8
F8F8
F9F0
F9F0
FBE0
FBE0
FFC0
FFC0
FF80
FFC0
FFC0
FFC0
FFE0
FFE0
FDF0
F9F0
F9F0
F8F8
F8F8
F87C
F87C
F87C
F83E
F83E
F81F
F81F
ENDCHAR
STARTCHAR 043B
ENCODING 1083
SWIDTH 444 0
DWIDTH 20 0
BBX 18 32 0 0
BITMAP
0FFFC0
0FFFC0
0FFFC0
0FFFC0
0FFFC0
0F87C0
0F87C0
0F87C0
0F87C0
0F87C0
0F87C0
0F87C0
0F87C0
0F87C0
0F87C0
0F87C0
0F87C0
0F87C0
0F87C0
0F87C0
0F07C0
0F07C0
0F07C0
1F07C0
1F07C0
1F07C0
1F07C0
FF07C0
FF07C0
FE07C0
FC07C0
F007C0
ENDCHAR
STARTCHAR 043C
ENCODING 1084
SWIDTH 533 0
DWIDTH 24 0
BBX 21 32 2 0
BITMAP
FE03F8
FE07F8
FE07F8
FE07F8
FE07F8
FF07F8
FF07F8
FF07F8
FF0FF8
FF0FF8
FF0FF8
FF0FF8
F78EF8
F78EF8
F79EF8
F79EF8
F79EF8
F79EF8
F3DCF8
F3DCF8
F3DCF8
F3FCF8
F3FCF8
F3FCF8
F1FCF8
F1F8F8
F1F8F8
F1F8F8
F1F8F8
F1F8F8
F0F8F8
F0F8F8
ENDCHAR
STARTCHAR 043D
ENCODING 1085
SWIDTH 422 0
DWIDTH 19 0
BBX 15 32 2 0
BITMAP
F83E
F83E
F83E
F83E
F83E
F83E
F83E
F83E
F83E
F83E
F83E
F83E
F83E
F83E
FFFE
FFFE
FFFE
FFFE
FFFE
F83E
F83E
F83E
F83E
F83E
F83E
F83E
F83E
F83E
F83E
F83E
F83E
F83E
ENDCHAR
STARTCHAR 043E
ENCODING 1086
SWIDTH 400 0
DWIDTH 18 0
BBX 15 32 1 0
BITMAP
07E0
1FF8
3FFC
7FFC
7FFE
7C3E
F83E
F83E
F83E
F83E
F83E
F83E
F83E
F83E
F83E
F83E
F83E
F83E
F83E
F83E
F83E
F83E
F83E
F83E
F83E
F83E
7C3E
7FFE
7FFC
3FFC
1FF8
07E0
ENDCHAR
STARTCHAR 043F
ENCODING 1087
SWIDTH 422 0
DWIDTH 19 0
BBX 15 32 2 0
BITMAP
FFFE
FFFE
FFFE
FFFE
FFFE
F83E
F83E
F83E
F83E
F83E
F83E
F83E
F83E
F83E
F83E
F83E
F83E
F83E
F83E
F83E
F83E
F83E
F83E
F83E
F83E
F83E
F83E
F83E
F83E
F83E
F83E
F83E
ENDCHAR
STARTCHAR 0440
ENCODING 1088
SWIDTH 377 0
DWIDTH 17 0
BBX 14 32 2 0
BITMAP
FFC0
FFF0
FFF8
FFFC
FFFC
F87C
F87C
F83C
F83C
F83C
F83C
F83C
F87C
F87C
F87C
FFFC
FFFC
FFF8
FFF0
FFC0
F800
F800
F800
F800
F800
F800
F800
F800
F800
F800
F800
F800
ENDCHAR
STARTCHAR 0441
ENCODING 1089
SWIDTH 377 0
DWIDTH 17 0
BBX 15 32 1 0
BITMAP
07E0
1FF8
3FFC
7FFC
7FFE
7C3E
F83E
F83E
F83E
F83E
F83E
F800
F800
F800
F800
F800
F800
F800
F800
F800
F83E
F83E
F83E
F83E
F83E
F83E
7C3E
7FFE
7FFC
3FFC
1FF8
07E0
ENDCHAR
STARTCHAR 0442
ENCODING 1090
SWIDTH 355 0
DWIDTH 16 0
BBX 16 32 0 0
BITMAP
FFFF
FFFF
FFFF
FFFF
FFFF
03C0
03C0
03C0
03C0
03C0
03C0
03C0
03C0
03C0
03C0
03C0
03C0
03C0
03C0
03C0
03C0
03C0
03C0
03C0
03C0
03C0
03C0
03C0
03C0
03C0
03C0
03C0
ENDCHAR
STARTCHAR 0443
ENCODING 1091
SWIDTH 400 0
DWIDTH 18 0
BBX 18 32 0 0
BITMAP
F807C0
7C07C0
7C0FC0
7C0F80
3C0F80
3E0F80
3E0F80
3E1F00
1E1F00
1F1F00
1F1F00
0F1F00
0F3E00
0FBE00
0FBE00
07BE00
07BC00
07BC00
03FC00
03FC00
03FC00
03F800
01F800
01F800
01F800
01F000
03F000
1FF000
1FE000
1FE000
1FC000
1F0000
ENDCHAR
STARTCHAR 0444
ENCODING 1092
SWIDTH 577 0
DWIDTH 26 0
BBX 24 32 1 0
BITMAP
003C00
003C00
003C00
003C00
07FFF0
1FFFF8
3FFFFC
7FFFFE
7FFFFE
7C3C3E
F83C1F
F83C1F
F83C1F
F83C1F
F83C1F
F83C1F
F83C1F
F83C1F
F83C1F
F83C1F
F83C1F
F83C1F
7C3C1F
7C3C3E
7FFFFE
7FFFFE
3FFFFC
1FFFF8
00FF80
003C00
003C00
003C00
ENDCHAR
STARTCHAR 0445
ENCODING 1093
SWIDTH 422 0
DWIDTH 19 0
BBX 18 32 1 0
BITMAP
F80780
7C0F80
7C0F00
7C0F00
3E1F00
3E1E00
3E1E00
3F3E00
1F3C00
1F3C00
1F7C00
0FF800
0FF800
0FF800
07F000
07F000
07F000
07F800
0FF800
0FF800
0F7C00
1F7C00
1E7C00
1E3E00
3E3E00
3C3E00
3C1F00
7C1F00
781F80
780F80
F80F80
F00FC0
ENDCHAR
STARTCHAR 0446
ENCODING 1094
SWIDTH 444 0
DWIDTH 20 0
BBX 18 36 2 -4
BITMAP
F83E00
F83E00
F83E00
F83E00
F83E00
F83E00
F83E00
F83E00
F83E00
F83E00
F83E00
F83E00
F83E00
F83E00
F83E00
F83E00
F83E00
F83E00
F83E00
F83E00
F83E00
F83E00
F83E00
F83E00
F83E00
F83E00
F83E00
FFFFC0
FFFFC0
FFFFC0
FFFFC0
FFFFC0
0007C0
0007C0
0007C0
0007C0
ENDCHAR
STARTCHAR 0447
ENCODING 1095
SWIDTH 422 0
DWIDTH 19 0
BBX 16 32 1 0
BITMAP
F81F
F81F
F81F
F81F
F81F
F81F
F81F
F81F
F81F
F81F
F81F
F81F
F81F
F81F
7C1F
7C3F
7FFF
7FFF
3FFF
1FFF
0F9F
001F
001F
001F
001F
001F
001F
001F
001F
001F
001F
001F
ENDCHAR
STARTCHAR 0448
ENCODING 1096
SWIDTH 600 0
DWIDTH 27 0
BBX 23 32 2 0
BITMAP
F87C3E
F87C3E
F87C3E
F87C3E
F87C3E
F87C3E
F87C3E
F87C3E
F87C3E
F87C3E
F87C3E
F87C3E
F87C3E
F87C3E
F87C3E
F87C3E
F87C3E
F87C3E
F87C3E
F87C3E
F87C3E
F87C3E
F87C3E
F87C3E
F87C3E
F87C3E
F87C3E
FFFFFE
FFFFFE
FFFFFE
FFFFFE
FFFFFE
ENDCHAR
STARTCHAR 0449
ENCODING 1097
SWIDTH 622 0
DWIDTH 28 0
BBX 25 36 2 -4
BITMAP
F87C3E00
F87C3E00
F87C3E00
F87C3E00
F87C3E00
F87C3E00
F87C3E00
F87C3E00
F87C3E00
F87C3E00
F87C3E00
F87C3E00
F87C3E00
F87C3E00
F87C3E00
F87C3E00
F87C3E00
F87C3E00
F87C3E00
F87C3E00
F87C3E00
F87C3E00
F87C3E00
F87C3E00
F87C3E00
F87C3E00
F87C3E00
FFFFFF80
FFFFFF80
FFFFFF80
FFFFFF80
FFFFFF80
00000780
00000780
00000780
00000780
ENDCHAR
STARTCHAR 044A
ENCODING 1098
SWIDTH 444 0
DWIDTH 20 0
BBX 19 32 0 0
BITMAP
FF8000
FF8000
FF8000
FF8000
FF8000
0F8000
0F8000
0F8000
0F8000
0F8000
0F8000
0F8000
0FE000
0FFF00
0FFF80
0FFFC0
0FFFC0
0F87C0
0F87C0
0F83E0
0F83E0
0F83E0
0F83E0
0F83E0
0F83E0
0F83E0
0F87C0
0FFFC0
0FFFC0
0FFF80
0FFF00
0FFC00
ENDCHAR
STARTCHAR 044B
ENCODING 1099
SWIDTH 577 0
DWIDTH 26 0
BBX 22 32 2 0
BITMAP
F8007C
F8007C
F8007C
F8007C
F8007C
F8007C
F8007C
F8007C
F8007C
F8007C
F8007C
F8007C
FE007C
FFE07C
FFF87C
FFF87C
FFFC7C
F87C7C
F87C7C
F87C7C
F83C7C
F83C7C
F83C7C
F83C7C
F83C7C
F87C7C
F87C7C
FFFC7C
FFFC7C
FFF87C
FFF07C
FFC07C
ENDCHAR
STARTCHAR 044C
ENCODING 1100
SWIDTH 400 0
DWIDTH 18 0
BBX 14 32 2 0
BITMAP
F800
F800
F800
F800
F800
F800
F800
F800
F800
F800
F800
F800
FE00
FFE0
FFF8
FFF8
FFFC
F87C
F87C
F87C
F83C
F83C
F83C
F83C
F83C
F87C
F87C
FFFC
FFFC
FFF8
FFF0
FFC0
ENDCHAR
STARTCHAR 044D
ENCODING 1101
SWIDTH 377 0
DWIDTH 17 0
BBX 15 32 1 0
BITMAP
0FE0
1FF0
3FF8
7FFC
7FFC
F87E
F83E
F83E
F83E
F83E
003E
003E
003E
07FE
07FE
07FE
07FE
07FE
003E
003E
F83E
F83E
F83E
F83E
F83E
F83E
F87E
7FFC
7FFC
3FF8
1FF0
0FE0
ENDCHAR
STARTCHAR 044E
ENCODING 1102
SWIDTH 600 0
DWIDTH 27 0
BBX 23 32 2 0
BITMAP
F807E0
F81FF8
F83FFC
F87FFE
F87FFE
F87C3E
F8F83E
F8F81E
F8F81E
F8F81E
F8F81E
F8F81E
F8F81E
FFF81E
FFF81E
FFF81E
FFF81E
FFF81E
F8F81E
F8F81E
F8F81E
F8F81E
F8F81E
F8F81E
F8F83E
F8783E
F87C3E
F87FFE
F87FFE
F83FFC
F81FF8
F807E0
ENDCHAR
STARTCHAR 044F
ENCODING 1103
SWIDTH 400 0
DWIDTH 18 0
BBX 15 32 1 0
BITMAP
0FFE
1FFE
3FFE
7FFE
7FFE
7C3E
FC3E
F83E
F83E
F83E
F83E
783E
7C3E
7C3E
3FFE
3FFE
0FFE
3FFE
7FFE
7E3E
7C3E
7C3E
F83E
F83E
F83E
F83E
F83E
F83E
F83E
F83E
F83E
F83E
ENDCHAR
STARTCHAR 0451
ENCODING 1105
SWIDTH 377 0
DWIDTH 17 0
BBX 13 38 2 0
BITMAP
78F0
78F0
78F0
78F0
78F0
0000
FFF8
FFF8
FFF8
FFF8
FFF8
F800
F800
F800
F800
F800
F800
F800
F800
FFF0
FFF0
FFF0
FFF0
FFF0
F800
F800
F800
F800
F800
F800
F800
F800
F800
FFF8
FFF8
FFF8
FFF8
FFF8
ENDCHAR
STARTCHAR 1E02
ENCODING 7682
SWIDTH 400 0
DWIDTH 18 0
BBX 15 38 2 0
BITMAP
0F80
0F80
0F80
0F80
0F80
0000
FFE0
FFF0
FFF8
FFFC
FFFC
F87C
F83E
F83E
F83E
F83E
F83E
F87C
F87C
FFFC
FFF8
FFF0
FFF8
FFFC
F87E
F83E
F83E
F83E
F83E
F83E
F83E
F83E
F83E
FFFE
FFFC
FFFC
FFF8
FFE0
ENDCHAR
STARTCHAR 1E03
ENCODING 7683
SWIDTH 400 0
DWIDTH 18 0
BBX 15 38 2 0
BITMAP
0F80
0F80
0F80
0F80
0F80
0000
FFE0
FFF0
FFF8
FFFC
FFFC
F87C
F83E
F83E
F83E
F83E
F83E
F87C
F87C
FFFC
FFF8
FFF0
FFF8
FFFC
F87E
F83E
F83E
F83E
F83E
F83E
F83E
F83E
F83E
FFFE
FFFC
FFFC
FFF8
FFE0
ENDCHAR
STARTCHAR 1E0A
ENCODING 7690
SWIDTH 400 0
DWIDTH 18 0
BBX 15 38 2 0
BITMAP
0780
0780
0780
0780
0780
0000
FFE0
FFF8
FFFC
FFFC
FFFE
F83E
F83E
F83E
F83E
F83E
F83E
F83E
F83E
F83E
F83E
F83E
F83E
F83E
F83E
F83E
F83E
F83E
F83E
F83E
F83E
F83E
F83E
FFFE
FFFC
FFFC
FFF8
FFE0
ENDCHAR
STARTCHAR 1E0B
ENCODING 7691
SWIDTH 400 0
DWIDTH 18 0
BBX 15 38 2 0
BITMAP
0780
0780
0780
0780
0780
0000
FFE0
FFF8
FFFC
FFFC
FFFE
F83E
F83E
F83E
F83E
F83E
F83E
F83E
F83E
F83E
F83E
F83E
F83E
F83E
F83E
F83E
F83E
F83E
F83E
F83E
F83E
F83E
F83E
FFFE
FFFC
FFFC
FFF8
FFE0
ENDCHAR
STARTCHAR 1E1E
ENCODING 7710
SWIDTH 333 0
DWIDTH 15 0
BBX 13 38 2 0
BITMAP
0F00
0F00
0F00
0F00
0F00
0000
FFF8
FFF8
FFF8
FFF8
FFF8
F800
F800
F800
F800
F800
F800
F800
F800
F800
FFE0
FFE0
FFE0
FFE0
FFE0
F800
F800
F800
F800
F800
F800
F800
F800
F800
F800
F800
F800
F800
ENDCHAR
STARTCHAR 1E1F
ENCODING 7711
SWIDTH 333 0
DWIDTH 15 0
BBX 13 38 2 0
BITMAP
0F00
0F00
0F00
0F00
0F00
0000
FFF8
FFF8
FFF8
FFF8
FFF8
F800
F800
F800
F800
F800
F800
F800
F800
F800
FFE0
FFE0
FFE0
FFE0
FFE0
F800
F800
F800
F800
F800
F800
F800
F800
F800
F800
F800
F800
F800
ENDCHAR
STARTCHAR 1E40
ENCODING 7744
SWIDTH 533 0
DWIDTH 24 0
BBX 21 38 2 0
BITMAP
00F000
00F000
00F000
00F000
00F000
000000
FE03F8
FE07F8
FE07F8
FE07F8
FE07F8
FF07F8
FF07F8
FF07F8
FF0FF8
FF0FF8
FF0FF8
FF0FF8
F78EF8
F78EF8
F79EF8
F79EF8
F79EF8
F79EF8
F3DCF8
F3DCF8
F3DCF8
F3FCF8
F3FCF8
F3FCF8
F1FCF8
F1F8F8
F1F8F8
F1F8F8
F1F8F8
F1F8F8
F0F8F8
F0F8F8
ENDCHAR
STARTCHAR 1E41
ENCODING 7745
SWIDTH 533 0
DWIDTH 24 0
BBX 21 38 2 0
BITMAP
00F000
00F000
00F000
00F000
00F000
000000
FE03F8
FE07F8
FE07F8
FE07F8
FE07F8
FF07F8
FF07F8
FF07F8
FF0FF8
FF0FF8
FF0FF8
FF0FF8
F78EF8
F78EF8
F79EF8
F79EF8
F79EF8
F79EF8
F3DCF8
F3DCF8
F3DCF8
F3FCF8
F3FCF8
F3FCF8
F1FCF8
F1F8F8
F1F8F8
F1F8F8
F1F8F8
F1F8F8
F0F8F8
F0F8F8
ENDCHAR
STARTCHAR 1E56
ENCODING 7766
SWIDTH 377 0
DWIDTH 17 0
BBX 14 38 2 0
BITMAP
0F80
0F80
0F80
0F80
0F80
0000
FFC0
FFF0
FFF8
FFFC
FFFC
F87C
F87C
F83C
F83C
F83C
F83C
F83C
F87C
F87C
F87C
FFFC
FFFC
FFF8
FFF0
FFC0
F800
F800
F800
F800
F800
F800
F800
F800
F800
F800
F800
F800
ENDCHAR
STARTCHAR 1E57
ENCODING 7767
SWIDTH 377 0
DWIDTH 17 0
BBX 14 38 2 0
BITMAP
0F80
0F80
0F80
0F80
0F80
0000
FFC0
FFF0
FFF8
FFFC
FFFC
F87C
F87C
F83C
F83C
F83C
F83C
F83C
F87C
F87C
F87C
FFFC
FFFC
FFF8
FFF0
FFC0
F800
F800
F800
F800
F800
F800
F800
F800
F800
F800
F800
F800
ENDCHAR
STARTCHAR 1E60
ENCODING 7776
SWIDTH 377 0
DWIDTH 17 0
BBX 15 38 1 0
BITMAP
07C0
07C0
07C0
07C0
07C0
0000
0FE0
1FF0
3FF8
7FFC
7FFC
FC3E
F83E
F83E
F83E
F800
FC00
7E00
7E00
3F00
3F80
1FE0
0FF0
07F0
01F8
00FC
00FC
007C
F83E
F83E
F83E
F83E
F87E
FFFC
7FFC
3FF8
3FF0
0FE0
ENDCHAR
STARTCHAR 1E61
ENCODING 7777
SWIDTH 377 0
DWIDTH 17 0
BBX 15 38 1 0
BITMAP
07C0
07C0
07C0
07C0
07C0
0000
0FE0
1FF0
3FF8
7FFC
7FFC
FC3E
F83E
F83E
F83E
F800
FC00
7E00
7E00
3F00
3F80
1FE0
0FF0
07F0
01F8
00FC
00FC
007C
F83E
F83E
F83E
F83E
F87E
FFFC
7FFC
3FF8
3FF0
0FE0
ENDCHAR
STARTCHAR 1E6A
ENCODING 7786
SWIDTH 355 0
DWIDTH 16 0
BBX 16 38 0 0
BITMAP
03C0
03C0
03C0
03C0
03C0
0000
FFFF
FFFF
FFFF
FFFF
FFFF
03C0
03C0
03C0
03C0
03C0
03C0
03C0
03C0
03C0
03C0
03C0
03C0
03C0
03C0
03C0
03C0
03C0
03C0
03C0
03C0
03C0
03C0
03C0
03C0
03C0
03C0
03C0
ENDCHAR
STARTCHAR 1E6B
ENCODING 7787
SWIDTH 355 0
DWIDTH 16 0
BBX 16 38 0 0
BITMAP
03C0
03C0
03C0
03C0
03C0
0000
FFFF
FFFF
FFFF
FFFF
FFFF
03C0
03C0
03C0
03C0
03C0
03C0
03C0
03C0
03C0
03C0
03C0
03C0
03C0
03C0
03C0
03C0
03C0
03C0
03C0
03C0
03C0
03C0
03C0
03C0
03C0
03C0
03C0
ENDCHAR
STARTCHAR 1E80
ENCODING 7808
SWIDTH 555 0
DWIDTH 25 0
BBX 24 38 1 0
BITMAP
03F000
00F000
007800
003C00
001C00
000000
F87C1F
F87C1E
F87E1E
F87E1E
F87E1E
F87E1E
F87E1E
F87E1E
787E3E
787E3E
7C7E3E
7CFE3C
7CFF3C
7CFF3C
7CFF3C
7CFF3C
7CFF3C
3CFF3C
3CEF7C
3EEF7C
3EEF78
3FEF78
3FE778
3FE7F8
3FE7F8
3FE7F8
1FE7F8
1FC7F8
1FC7F8
1FC7F0
1FC7F0
1FC3F0
ENDCHAR
STARTCHAR 1E81
ENCODING 7809
SWIDTH 555 0
DWIDTH 25 0
BBX 24 38 1 0
BITMAP
03F000
00F000
007800
003C00
001C00
000000
F87C1F
F87C1E
F87E1E
F87E1E
F87E1E
F87E1E
F87E1E
F87E1E
787E3E
787E3E
7C7E3E
7CFE3C
7CFF3C
7CFF3C
7CFF3C
7CFF3C
7CFF3C
3CFF3C
3CEF7C
3EEF7C
3EEF78
3FEF78
3FE778
3FE7F8
3FE7F8
3FE7F8
1FE7F8
1FC7F8
1FC7F8
1FC7F0
1FC7F0
1FC3F0
ENDCHAR
STARTCHAR 1E82
ENCODING 7810
SWIDTH 555 0
DWIDTH 25 0
BBX 24 38 1 0
BITMAP
000F80
001E00
003C00
003800
007000
000000
F87C1F
F87C1E
F87E1E
F87E1E
F87E1E
F87E1E
F87E1E
F87E1E
787E3E
787E3E
7C7E3E
7CFE3C
7CFF3C
7CFF3C
7CFF3C
7CFF3C
7CFF3C
3CFF3C
3CEF7C
3EEF7C
3EEF78
3FEF78
3FE778
3FE7F8
3FE7F8
3FE7F8
1FE7F8
1FC7F8
1FC7F8
1FC7F0
1FC7F0
1FC3F0
ENDCHAR
STARTCHAR 1E83
ENCODING 7811
SWIDTH 555 0
DWIDTH 25 0
BBX 24 38 1 0
BITMAP
000F80
001E00
003C00
003800
007000
000000
F87C1F
F87C1E
F87E1E
F87E1E
F87E1E
F87E1E
F87E1E
F87E1E
787E3E
787E3E
7C7E3E
7CFE3C
7CFF3C
7CFF3C
7CFF3C
7CFF3C
7CFF3C
3CFF3C
3CEF7C
3EEF7C
3EEF78
3FEF78
3FE778
3FE7F8
3FE7F8
3FE7F8
1FE7F8
1FC7F8
1FC7F8
1FC7F0
1FC7F0
1FC3F0
ENDCHAR
STARTCHAR 1E84
ENCODING 7812
SWIDTH 555 0
DWIDTH 25 0
BBX 24 38 1 0
BITMAP
03C780
03C780
03C780
03C780
03C780
000000
F87C1F
F87C1E
F87E1E
F87E1E
F87E1E
F87E1E
F87E1E
F87E1E
787E3E
787E3E
7C7E3E
7CFE3C
7CFF3C
7CFF3C
7CFF3C
7CFF3C
7CFF3C
3CFF3C
3CEF7C
3EEF7C
3EEF78
3FEF78
3FE778
3FE7F8
3FE7F8
3FE7F8
1FE7F8
1FC7F8
1FC7F8
1FC7F0
1FC7F0
1FC3F0
ENDCHAR
STARTCHAR 1E85
ENCODING 7813
SWIDTH 555 0
DWIDTH 25 0
BBX 24 38 1 0
BITMAP
03C780
03C780
03C780
03C780
03C780
000000
F87C1F
F87C1E
F87E1E
F87E1E
F87E1E
F87E1E
F87E1E
F87E1E
787E3E
787E3E
7C7E3E
7CFE3C
7CFF3C
7CFF3C
7CFF3C
7CFF3C
7CFF3C
3CFF3C
3CEF7C
3EEF7C
3EEF78
3FEF78
3FE778
3FE7F8
3FE7F8
3FE7F8
1FE7F8
1FC7F8
1FC7F8
1FC7F0
1FC7F0
1FC3F0
ENDCHAR
STARTCHAR 1EF2
ENCODING 7922
SWIDTH 400 0
DWIDTH 18 0
BBX 18 38 0 0
BITMAP
0F8000
07C000
03C000
01E000
00F000
000000
F807C0
7C0780
7C0F80
7C0F80
7E0F00
3E0F00
3E1F00
3E1E00
1F1E00
1F3E00
1F3E00
0F3C00
0FBC00
0FFC00
0FF800
07F800
07F800
07F800
03F000
03F000
03F000
03E000
03E000
03E000
03E000
03E000
03E000
03E000
03E000
03E000
03E000
03E000
ENDCHAR
STARTCHAR 1EF3
ENCODING 7923
SWIDTH 400 0
DWIDTH 18 0
BBX 18 38 0 0
BITMAP
0F8000
07C000
03C000
01E000
00F000
000000
F807C0
7C0780
7C0F80
7C0F80
7E0F00
3E0F00
3E1F00
3E1E00
1F1E00
1F3E00
1F3E00
0F3C00
0FBC00
0FFC00
0FF800
07F800
07F800
07F800
03F000
03F000
03F000
03E000
03E000
03E000
03E000
03E000
03E000
03E000
03E000
03E000
03E000
03E000
ENDCHAR
STARTCHAR 2012
ENCODING 8210
SWIDTH 400 0
DWIDTH 18 0
BBX 18 5 0 14
BITMAP
FFFFC0
FFFFC0
FFFFC0
FFFFC0
FFFFC0
ENDCHAR
STARTCHAR 2013
ENCODING 8211
SWIDTH 511 0
DWIDTH 23 0
BBX 23 5 0 14
BITMAP
FFFFFE
FFFFFE
FFFFFE
FFFFFE
FFFFFE
ENDCHAR
STARTCHAR 2014
ENCODING 8212
SWIDTH 1000 0
DWIDTH 45 0
BBX 45 5 0 14
BITMAP
FFFFFFFFFFF8
FFFFFFFFFFF8
FFFFFFFFFFF8
FFFFFFFFFFF8
FFFFFFFFFFF8
ENDCHAR
STARTCHAR 2018
ENCODING 8216
SWIDTH 177 0
DWIDTH 8 0
BBX 5 9 2 23
BITMAP
30
70
60
E0
F8
F8
F8
F8
F8
ENDCHAR
STARTCHAR 2019
ENCODING 8217
SWIDTH 177 0
DWIDTH 8 0
BBX 5 9 2 23
BITMAP
F8
F8
F8
F8
F0
70
70
60
E0
ENDCHAR
STARTCHAR 201A
ENCODING 8218
SWIDTH 177 0
DWIDTH 8 0
BBX 5 9 2 -4
BITMAP
F8
F8
F8
F8
F8
30
70
60
E0
ENDCHAR
STARTCHAR 201C
ENCODING 8220
SWIDTH 333 0
DWIDTH 15 0
BBX 11 9 2 23
BITMAP
30E0
70C0
61C0
E1C0
F9E0
FBE0
FBE0
FBE0
FBE0
ENDCHAR
STARTCHAR 201D
ENCODING 8221
SWIDTH 333 0
DWIDTH 15 0
BBX 11 9 2 23
BITMAP
FBE0
FBE0
FBE0
FBE0
F3E0
70E0
70C0
61C0
E180
ENDCHAR
STARTCHAR 201E
ENCODING 8222
SWIDTH 333 0
DWIDTH 15 0
BBX 11 9 2 -4
BITMAP
FBE0
FBE0
FBE0
FBE0
FBE0
30E0
70C0
60C0
E180
ENDCHAR
STARTCHAR 2020
ENCODING 8224
SWIDTH 400 0
DWIDTH 18 0
BBX 16 35 1 -3
BITMAP
03C0
03C0
03C0
03C0
03C0
03C0
03C0
03C0
FFFF
FFFF
FFFF
FFFF
03C0
03C0
03C0
03C0
03C0
03C0
03C0
03C0
03C0
03C0
03C0
03C0
03C0
03C0
03C0
03C0
03C0
03C0
03C0
03C0
03C0
03C0
03C0
ENDCHAR
STARTCHAR 2021
ENCODING 8225
SWIDTH 400 0
DWIDTH 18 0
BBX 16 35 1 -3
BITMAP
03C0
03C0
03C0
03C0
03C0
03C0
03C0
03C0
FFFF
FFFF
FFFF
FFFF
03C0
03C0
03C0
03C0
03C0
03C0
03C0
03C0
03C0
03C0
03C0
FFFF
FFFF
FFFF
FFFF
03C0
03C0
03C0
03C0
03C0
03C0
03C0
03C0
ENDCHAR
STARTCHAR 2022
ENCODING 8226
SWIDTH 400 0
DWIDTH 18 0
BBX 12 13 3 10
BITMAP
1F00
3FC0
7FE0
FFE0
FFF0
FFF0
FFF0
FFF0
FFF0
FFE0
7FE0
3FC0
1F00
ENDCHAR
STARTCHAR 2026
ENCODING 8230
SWIDTH 488 0
DWIDTH 22 0
BBX 18 5 2 0
BITMAP
FBE7C0
FBE7C0
FBE7C0
FBE7C0
FBE7C0
ENDCHAR
STARTCHAR 2030
ENCODING 8240
SWIDTH 888 0
DWIDTH 40 0
BBX 36 32 2 0
BITMAP
3E00700000
7F00E00000
FF80E00000
E381C00000
E381C00000
E381C00000
E383800000
E383800000
E387000000
E387000000
E387000000
E38E000000
E38E7C07C0
E39CFF0FE0
E39CFF1FF0
E39DE79C70
E3B9C39C70
E3B9C39C70
FFB1C39C70
7F71C39C70
3C71C39C70
00E1C39C70
00E1C39C70
00E1C39C70
01C1C39C70
01C1C39C70
0381C39C70
0381C79C70
0381E79C70
0700FF1FF0
0700FF0FE0
0E007C07C0
ENDCHAR
STARTCHAR 2039
ENCODING 8249
SWIDTH 200 0
DWIDTH 9 0
BBX 7 25 1 3
BITMAP
3E
3E
3E
3C
7C
7C
7C
78
78
F8
F8
F8
F8
F8
F8
F8
78
7C
7C
7C
7C
3C
3E
3E
3E
ENDCHAR
STARTCHAR 203A
ENCODING 8250
SWIDTH 200 0
DWIDTH 9 0
BBX 7 25 1 3
BITMAP
F8
F8
F8
F8
78
7C
7C
7C
3C
3E
3E
3E
3E
3E
3E
3C
7C
7C
7C
7C
78
F8
F8
F8
F8
ENDCHAR
STARTCHAR 2044
ENCODING 8260
SWIDTH 66 0
DWIDTH 3 0
BBX 15 32 -6 0
BITMAP
000E
000E
001C
001C
0038
0038
0038
0070
0070
0070
00E0
00E0
01C0
01C0
01C0
0380
0380
0700
0700
0700
0E00
0E00
1C00
1C00
1C00
3800
3800
3800
7000
7000
E000
E000
ENDCHAR
STARTCHAR 2070
ENCODING 8304
SWIDTH 288 0
DWIDTH 13 0
BBX 9 20 2 16
BITMAP
3E00
7F00
FF80
E380
E380
E380
E380
E380
E380
E380
E380
E380
E380
E380
E380
E380
E380
FF80
7F00
3E00
ENDCHAR
STARTCHAR 2074
ENCODING 8308
SWIDTH 288 0
DWIDTH 13 0
BBX 11 20 1 16
BITMAP
0380
0780
0780
0F80
0F80
1F80
1F80
1B80
3B80
3B80
7380
7380
E380
FFE0
FFE0
FFE0
0380
0380
0380
0380
ENDCHAR
STARTCHAR 2075
ENCODING 8309
SWIDTH 288 0
DWIDTH 13 0
BBX 9 20 2 16
BITMAP
FF80
FF80
FF80
E000
E000
E000
EE00
FF00
FF80
E380
E380
0380
0380
E380
E380
E380
E380
FF80
7F00
3E00
ENDCHAR
STARTCHAR 2076
ENCODING 8310
SWIDTH 288 0
DWIDTH 13 0
BBX 9 20 2 16
BITMAP
3E00
7F00
FF80
E380
E380
E000
E000
EF00
FF80
FF80
E380
E380
E380
E380
E380
E380
E380
FF80
7F00
3E00
ENDCHAR
STARTCHAR 2077
ENCODING 8311
SWIDTH 288 0
DWIDTH 13 0
BBX 9 20 2 16
BITMAP
FF80
FF80
FF80
0380
0780
0700
0700
0700
0E00
0E00
0E00
1E00
1C00
1C00
1C00
3C00
3800
3800
3800
7800
ENDCHAR
STARTCHAR 2078
ENCODING 8312
SWIDTH 288 0
DWIDTH 13 0
BBX 10 20 1 16
BITMAP
1F00
7F80
7FC0
71C0
F1C0
F1C0
F1C0
71C0
7F80
3F80
7FC0
71C0
F1C0
F1C0
F1C0
F1C0
71C0
7FC0
3F80
1F00
ENDCHAR
STARTCHAR 2079
ENCODING 8313
SWIDTH 288 0
DWIDTH 13 0
BBX 10 20 1 16
BITMAP
1F00
7F80
7FC0
71C0
F1C0
F1C0
F1C0
F1C0
F1C0
F3C0
7FC0
7FC0
39C0
01C0
E1C0
E1C0
73C0
7FC0
3F80
1F00
ENDCHAR
STARTCHAR 2080
ENCODING 8320
SWIDTH 288 0
DWIDTH 13 0
BBX 9 20 2 -3
BITMAP
3E00
7F00
FF80
E380
E380
E380
E380
E380
E380
E380
E380
E380
E380
E380
E380
E380
E380
FF80
7F00
3E00
ENDCHAR
STARTCHAR 2081
ENCODING 8321
SWIDTH 200 0
DWIDTH 9 0
BBX 6 20 1 -3
BITMAP
1C
1C
3C
FC
FC
1C
1C
1C
1C
1C
1C
1C
1C
1C
1C
1C
1C
1C
1C
1C
ENDCHAR
STARTCHAR 2082
ENCODING 8322
SWIDTH 288 0
DWIDTH 13 0
BBX 9 20 2 -3
BITMAP
3E00
7F00
FF80
E380
E380
E380
E380
0380
0780
0700
0E00
1C00
3C00
7800
7000
E000
E000
FF80
FF80
FF80
ENDCHAR
STARTCHAR 2083
ENCODING 8323
SWIDTH 288 0
DWIDTH 13 0
BBX 9 20 2 -3
BITMAP
3E00
7F00
FF80
E380
E380
E380
0380
0780
1F00
1E00
1F00
0780
0380
E380
E380
E380
E780
FF80
7F00
3E00
ENDCHAR
STARTCHAR 2084
ENCODING 8324
SWIDTH 288 0
DWIDTH 13 0
BBX 11 20 1 -3
BITMAP
0380
0780
0780
0F80
0F80
1F80
1F80
1B80
3B80
3B80
7380
7380
E380
FFE0
FFE0
FFE0
0380
0380
0380
0380
ENDCHAR
STARTCHAR 2085
ENCODING 8325
SWIDTH 288 0
DWIDTH 13 0
BBX 9 20 2 -3
BITMAP
FF80
FF80
FF80
E000
E000
E000
EE00
FF00
FF80
E380
E380
0380
0380
E380
E380
E380
E380
FF80
7F00
3E00
ENDCHAR
STARTCHAR 2086
ENCODING 8326
SWIDTH 288 0
DWIDTH 13 0
BBX 9 20 2 -3
BITMAP
3E00
7F00
FF80
E380
E380
E000
E000
EF00
FF80
FF80
E380
E380
E380
E380
E380
E380
E380
FF80
7F00
3E00
ENDCHAR
STARTCHAR 2087
ENCODING 8327
SWIDTH 288 0
DWIDTH 13 0
BBX 9 20 2 -3
BITMAP
FF80
FF80
FF80
0380
0780
0700
0700
0700
0E00
0E00
0E00
1E00
1C00
1C00
1C00
3C00
3800
3800
3800
7800
ENDCHAR
STARTCHAR 2088
ENCODING 8328
SWIDTH 288 0
DWIDTH 13 0
BBX 10 20 1 -3
BITMAP
1F00
7F80
7FC0
71C0
F1C0
F1C0
F1C0
71C0
7F80
3F80
7FC0
71C0
F1C0
F1C0
F1C0
F1C0
71C0
7FC0
3F80
1F00
ENDCHAR
STARTCHAR 2089
ENCODING 8329
SWIDTH 288 0
DWIDTH 13 0
BBX 10 20 1 -3
BITMAP
1F00
7F80
7FC0
71C0
F1C0
F1C0
F1C0
F1C0
F1C0
F3C0
7FC0
7FC0
39C0
01C0
E1C0
E1C0
73C0
7FC0
7F80
1F00
ENDCHAR
STARTCHAR 20AC
ENCODING 8364
SWIDTH 400 0
DWIDTH 18 0
BBX 16 32 1 0
BITMAP
07F0
1FF8
1FFC
3FFE
3FFE
7C3E
7C1F
7C1F
7C1F
7C1F
7C00
7C00
FFF8
FFF8
7C00
7C00
7C00
FFF8
FFF8
7C00
7C00
7C1F
7C1F
7C1F
7C1F
7C1F
7E3E
3FFE
3FFE
1FFC
0FF8
07E0
ENDCHAR
STARTCHAR 20B9
ENCODING 8377
SWIDTH 400 0
DWIDTH 18 0
BBX 16 31 1 0
BITMAP
FFFF
FFFF
FFFF
FFFF
01F0
00F8
FFFF
FFFF
FFFF
FFFF
00F8
00F8
01F0
FFF0
FFE0
FFC0
FF00
7C00
7E00
3E00
1F00
0F80
0FC0
07C0
03E0
01F0
01F8
00F8
007C
003E
003F
ENDCHAR
STARTCHAR 2117
ENCODING 8471
SWIDTH 733 0
DWIDTH 33 0
BBX 31 32 1 0
BITMAP
001FF000
007FFC00
01FFFF00
07F01FC0
0FC003E0
1F0001F0
1E0000F0
3C1FE078
381FF83C
781FF83C
701E3C1C
F01E3C1E
F01E3C0E
E01E3C0E
E01E3C0E
E01E3C0E
E01FF80E
E01FF80E
E01FE00E
F01E000E
F01E001E
701E001C
781E003C
381E003C
3C1E0078
1E1E00F0
1F0001F0
0FC003E0
07F01FC0
01FFFF00
007FFC00
001FF000
ENDCHAR
STARTCHAR 2122
ENCODING 8482
SWIDTH 577 0
DWIDTH 26 0
BBX 25 16 0 16
BITMAP
FFCF8780
FFCF8780
FFCF8F80
0E0F8F80
0E0F8F80
0E0FCF80
0E0FCF80
0E0FDF80
0E0EDF80
0E0EDB80
0E0EFB80
0E0EFB80
0E0EFB80
0E0E7B80
0E0E7380
0E0E7380
ENDCHAR
STARTCHAR 2153
ENCODING 8531
SWIDTH 600 0
DWIDTH 27 0
BBX 0 0 0 0
BITMAP
ENDCHAR
STARTCHAR 2154
ENCODING 8532
SWIDTH 600 0
DWIDTH 27 0
BBX 0 0 0 0
BITMAP
ENDCHAR
STARTCHAR 215B
ENCODING 8539
SWIDTH 622 0
DWIDTH 28 0
BBX 24 32 3 0
BITMAP
1C01C0
1C01C0
3C0380
FC0380
FC0700
3C0700
3C0700
3C0E00
3C0E00
3C0E00
3C1C00
3C1C00
3C38F8
3C39FE
3C3BFE
3C73CF
3C7387
3CE387
3CE387
3CE38E
01C1FE
01C1FC
0181FE
0383CF
038387
070387
070387
070387
0E03CF
0E03FE
1C01FE
1C00F8
ENDCHAR
STARTCHAR 215C
ENCODING 8540
SWIDTH 622 0
DWIDTH 28 0
BBX 25 32 2 0
BITMAP
3E007000
7F00E000
FF00E000
E781C000
E381C000
E381C000
03838000
03838000
07838000
1F070000
1E070000
1F0E0000
078E7C00
038EFF00
E39DFF00
E39DE780
E3B9C380
E7B9C380
FF39C380
7F71C780
3C70FF00
00E07E00
00E0FF00
00E1E700
01C1C380
01C1C380
01C1C380
0381C380
0381E780
0701FF00
0700FF00
0F007C00
ENDCHAR
STARTCHAR 215D
ENCODING 8541
SWIDTH 622 0
DWIDTH 28 0
BBX 25 32 2 0
BITMAP
FF807000
FF80E000
FF80E000
E001C000
E001C000
E001C000
E0038000
EE038000
FF038000
FF870000
E3870000
E38E0000
038E7C00
038EFF00
E39DFF00
E39DE780
E3B9C380
E7B9C380
FFB9C380
7F71C780
3E70FF00
00E07E00
00E0FF00
00E1E700
01C1C380
01C1C380
01C1C380
0381C380
0381E780
0701FF00
0700FF00
0F007C00
ENDCHAR
STARTCHAR 215E
ENCODING 8542
SWIDTH 622 0
DWIDTH 28 0
BBX 25 32 2 0
BITMAP
FF81C000
FF81C000
FF818000
03838000
07838000
07070000
07070000
07070000
0F0E0000
0E0E0000
0E1C0000
0E1C0000
1E1C7C00
1C38FF00
1C39FF00
1C71E780
3871C380
3871C380
38E1C380
78E1C780
00E0FF00
01C07E00
01C0FF00
0381E780
0381C380
0381C380
0701C380
0701C380
0E01E780
0E01FF00
0E00FF00
1C007C00
ENDCHAR
STARTCHAR 2212
ENCODING 8722
SWIDTH 400 0
DWIDTH 18 0
BBX 16 4 1 14
BITMAP
FFFF
FFFF
FFFF
FFFF
ENDCHAR
STARTCHAR 221E
ENCODING 8734
SWIDTH 600 0
DWIDTH 27 0
BBX 24 12 2 10
BITMAP
1FC3F0
7FEFFC
7FFFFE
F07C1E
E03C0F
E0380F
E0380F
E03C0F
F07C1E
7FFFFE
7FEFFC
1FC3F0
ENDCHAR
STARTCHAR 2248
ENCODING 8776
SWIDTH 400 0
DWIDTH 18 0
BBX 17 14 0 9
BITMAP
0F0100
3F8300
3FE780
7FFF80
F1FF00
707E00
203C00
0F0100
3F8300
3FE780
7FFF80
F1FF00
707E00
203C00
ENDCHAR
STARTCHAR F6C3
ENCODING 63171
SWIDTH 0 0
DWIDTH 0 0
BBX 0 0 0 0
BITMAP
ENDCHAR
ENDFONT
